<svg width="0" height="0" class="hidden">

  <symbol fill="#5e3bee" xmlns="http://www.w3.org/2000/svg" viewBox="0 0 50 50" id="figma">
    <path d="M 18.5 2 C 13.81752 2 10 5.8175204 10 10.5 C 10 13.800292 11.949927 16.592855 14.708984 18 C 11.949927 19.407145 10 22.199708 10 25.5 C 10 28.800292 11.949927 31.592855 14.708984 33 C 11.949927 34.407145 10 37.199708 10 40.5 C 10 45.18248 13.81752 49 18.5 49 C 23.18248 49 27 45.18248 27 40.5 L 27 33 L 27 29.65625 C 28.341367 32.201717 30.932066 34 34 34 C 38.406436 34 42 30.406432 42 26 C 42 22.378246 39.526173 19.428685 36.214844 18.449219 C 39.553558 17.301707 42 14.220224 42 10.5 C 42 5.8175204 38.18248 2 33.5 2 L 26 2 L 18.5 2 z M 18.5 4 L 25 4 L 25 17 L 18.5 17 C 14.89848 17 12 14.10152 12 10.5 C 12 6.8984796 14.89848 4 18.5 4 z M 27 4 L 33.5 4 C 37.10152 4 40 6.8984796 40 10.5 C 40 14.10152 37.10152 17 33.5 17 L 27 17 L 27 4 z M 18.5 19 L 25 19 L 25 32 L 18.5 32 C 14.89848 32 12 29.10152 12 25.5 C 12 21.89848 14.89848 19 18.5 19 z M 27 19 L 30.34375 19 C 28.908839 19.756146 27.756146 20.908838 27 22.34375 L 27 19 z M 34 20 C 37.325556 20 40 22.674446 40 26 C 40 29.325554 37.325556 32 34 32 C 30.674444 32 28 29.325554 28 26 C 28 22.674446 30.674444 20 34 20 z M 18.5 34 L 25 34 L 25 40.5 C 25 44.10152 22.10152 47 18.5 47 C 14.89848 47 12 44.10152 12 40.5 C 12 36.89848 14.89848 34 18.5 34 z"></path>
  </symbol>

  <symbol fill="#5e3bee" xmlns="http://www.w3.org/2000/svg" viewBox="0 0 24 24" id="github">
    <path d="M10.9,2.1c-4.6,0.5-8.3,4.2-8.8,8.7c-0.5,4.7,2.2,8.9,6.3,10.5C8.7,21.4,9,21.2,9,20.8v-1.6c0,0-0.4,0.1-0.9,0.1 c-1.4,0-2-1.2-2.1-1.9c-0.1-0.4-0.3-0.7-0.6-1C5.1,16.3,5,16.3,5,16.2C5,16,5.3,16,5.4,16c0.6,0,1.1,0.7,1.3,1c0.5,0.8,1.1,1,1.4,1 c0.4,0,0.7-0.1,0.9-0.2c0.1-0.7,0.4-1.4,1-1.8c-2.3-0.5-4-1.8-4-4c0-1.1,0.5-2.2,1.2-3C7.1,8.8,7,8.3,7,7.6C7,7.2,7,6.6,7.3,6 c0,0,1.4,0,2.8,1.3C10.6,7.1,11.3,7,12,7s1.4,0.1,2,0.3C15.3,6,16.8,6,16.8,6C17,6.6,17,7.2,17,7.6c0,0.8-0.1,1.2-0.2,1.4 c0.7,0.8,1.2,1.8,1.2,3c0,2.2-1.7,3.5-4,4c0.6,0.5,1,1.4,1,2.3v2.6c0,0.3,0.3,0.6,0.7,0.5c3.7-1.5,6.3-5.1,6.3-9.3 C22,6.1,16.9,1.4,10.9,2.1z"></path>
  </symbol>

   <symbol xmlns="http://www.w3.org/2000/svg" version="1.1" xmlns:xlink="http://www.w3.org/1999/xlink" viewBox="0 0 48px 48px" id="chevron-right">
    <g>
      <path fill="#5d3aee" d="M 24.5,5.5 C 23.5,5.5 22.5,5.5 21.5,5.5C 19.5976,4.48905 17.5976,4.32239 15.5,5C 16.3805,5.7083 17.0472,6.54163 17.5,7.5C 17.1115,8.97589 17.1115,10.3092 17.5,11.5C 15.4503,9.76318 13.617,7.76318 12,5.5C 11.5172,4.55198 11.3505,3.55198 11.5,2.5C 15.5138,2.33449 19.5138,2.50115 23.5,3C 24.2524,3.67076 24.5858,4.5041 24.5,5.5 Z"></path>
    </g>
    <g>
      <path fill="#5d3aed" d="M 21.5,5.5 C 22.5,5.5 23.5,5.5 24.5,5.5C 25.8333,6.16667 26.8333,7.16667 27.5,8.5C 27.7373,9.79105 27.404,10.791 26.5,11.5C 24.3674,9.90949 22.7007,7.90949 21.5,5.5 Z"></path>
    </g>
    <g>
      <path fill="#5d39ef" d="M 17.5,7.5 C 21.8144,12.7633 26.1477,18.0966 30.5,23.5C 29.1667,24.8333 27.8333,24.8333 26.5,23.5C 23.4756,19.4815 20.4756,15.4815 17.5,11.5C 17.1115,10.3092 17.1115,8.97589 17.5,7.5 Z"></path>
    </g>
    <g>
      <path fill="#5e39ef" d="M 27.5,8.5 C 29.5475,10.5496 31.2141,12.883 32.5,15.5C 32.5,16.8333 32.5,18.1667 32.5,19.5C 30.1468,17.1401 28.1468,14.4735 26.5,11.5C 27.404,10.791 27.7373,9.79105 27.5,8.5 Z"></path>
    </g>
    <g>
      <path fill="#5d3aed" d="M 32.5,15.5 C 39.3582,19.537 40.0249,24.2037 34.5,29.5C 34.4431,28.391 34.1098,27.391 33.5,26.5C 34.1408,25.5178 34.8075,24.5178 35.5,23.5C 34.4756,22.1482 33.4756,20.8149 32.5,19.5C 32.5,18.1667 32.5,16.8333 32.5,15.5 Z"></path>
    </g>
    <g>
      <path fill="#5d39ef" d="M 33.5,26.5 C 34.1098,27.391 34.4431,28.391 34.5,29.5C 32.5179,32.8103 30.1846,35.8103 27.5,38.5C 27.7373,37.209 27.404,36.209 26.5,35.5C 28.4821,32.1897 30.8154,29.1897 33.5,26.5 Z"></path>
    </g>
    <g>
      <path fill="#5e3aee" d="M 15.5,42.5 C 14.609,41.8902 13.609,41.5569 12.5,41.5C 16.168,36.9933 19.668,32.3266 23,27.5C 24.1096,25.9632 25.6096,25.2965 27.5,25.5C 24.3427,31.6743 20.3427,37.3409 15.5,42.5 Z"></path>
    </g>
    <g>
      <path fill="#5d3bed" d="M 26.5,35.5 C 27.404,36.209 27.7373,37.209 27.5,38.5C 26.5,39.8333 25.5,41.1667 24.5,42.5C 23.609,41.8902 22.609,41.5569 21.5,41.5C 22.7007,39.0905 24.3674,37.0905 26.5,35.5 Z"></path>
    </g>
    <g>
      <path fill="#5c39ee" d="M 12.5,41.5 C 13.609,41.5569 14.609,41.8902 15.5,42.5C 17.6208,42.6747 19.6208,42.3414 21.5,41.5C 22.609,41.5569 23.609,41.8902 24.5,42.5C 24.3893,43.1174 24.056,43.6174 23.5,44C 19.5138,44.4988 15.5138,44.6655 11.5,44.5C 11.2627,43.209 11.596,42.209 12.5,41.5 Z"></path>
    </g>
  </symbol>

  <symbol xmlns="http://www.w3.org/2000/svg" version="1.1" xmlns:xlink="http://www.w3.org/1999/xlink" viewBox="0 0 48px 48px" id="chevron-left">
    <g>
      <path fill="#5c39ee" d="M 36.5,4.5 C 35.0357,5.40536 33.7024,5.40536 32.5,4.5C 30.3792,4.32526 28.3792,4.65859 26.5,5.5C 25.791,4.59603 24.791,4.26269 23.5,4.5C 23.6107,3.88258 23.944,3.38258 24.5,3C 26.5,2.83333 28.5,2.66667 30.5,2.5C 32.9522,2.53907 34.9522,3.20574 36.5,4.5 Z"></path>
    </g>
    <g>
      <path fill="#5d3aee" d="M 23.5,4.5 C 24.791,4.26269 25.791,4.59603 26.5,5.5C 22.7294,10.7218 18.7294,15.7218 14.5,20.5C 13.8902,19.609 13.5569,18.609 13.5,17.5C 16.8333,13.1667 20.1667,8.83333 23.5,4.5 Z"></path>
    </g>
    <g>
      <path fill="#5d3aee" d="M 32.5,4.5 C 33.7024,5.40536 35.0357,5.40536 36.5,4.5C 33.1793,9.15175 29.5126,13.4851 25.5,17.5C 25.6716,16.5084 25.3382,15.8417 24.5,15.5C 26.9127,11.6857 29.5793,8.01899 32.5,4.5 Z"></path>
    </g>
    <g>
      <path fill="#5c3bed" d="M 24.5,15.5 C 25.3382,15.8417 25.6716,16.5084 25.5,17.5C 25.0334,20.2974 23.3667,21.6308 20.5,21.5C 20.6225,18.7079 21.9558,16.7079 24.5,15.5 Z"></path>
    </g>
    <g>
      <path fill="#5d3aec" d="M 13.5,17.5 C 13.5569,18.609 13.8902,19.609 14.5,20.5C 13.8592,21.4822 13.1925,22.4822 12.5,23.5C 13.1925,24.5178 13.8592,25.5178 14.5,26.5C 14.1115,27.9759 14.1115,29.3092 14.5,30.5C 8.40018,26.4823 8.06685,22.1489 13.5,17.5 Z"></path>
    </g>
    <g>
      <path fill="#5e3aef" d="M 14.5,26.5 C 16.8777,28.8785 18.8777,31.5451 20.5,34.5C 20.5,35.8333 20.5,37.1667 20.5,38.5C 18.1468,36.1401 16.1468,33.4735 14.5,30.5C 14.1115,29.3092 14.1115,27.9759 14.5,26.5 Z"></path>
    </g>
    <g>
      <path fill="#5c3bee" d="M 26.5,30.5 C 25.8333,30.8333 25.1667,31.1667 24.5,31.5C 21.713,29.2802 19.3797,26.6136 17.5,23.5C 21.7259,23.6682 24.7259,26.0015 26.5,30.5 Z"></path>
    </g>
    <g>
      <path fill="#5d39ee" d="M 26.5,30.5 C 28.6326,32.0905 30.2993,34.0905 31.5,36.5C 31.631,37.2389 31.4643,37.9056 31,38.5C 30.3292,37.7476 29.4959,37.4142 28.5,37.5C 26.7484,35.7541 25.4151,33.7541 24.5,31.5C 25.1667,31.1667 25.8333,30.8333 26.5,30.5 Z"></path>
    </g>
    <g>
      <path fill="#5d3aed" d="M 20.5,34.5 C 23.2003,36.2344 25.2003,38.5677 26.5,41.5C 25.5,41.5 24.5,41.5 23.5,41.5C 22.1667,40.8333 21.1667,39.8333 20.5,38.5C 20.5,37.1667 20.5,35.8333 20.5,34.5 Z"></path>
    </g>
    <g>
      <path fill="#5c3aed" d="M 31.5,36.5 C 33.9929,38.6576 35.6595,41.3243 36.5,44.5C 32.4862,44.6655 28.4862,44.4988 24.5,44C 23.7476,43.3292 23.4142,42.4959 23.5,41.5C 24.5,41.5 25.5,41.5 26.5,41.5C 28.4024,42.5109 30.4024,42.6776 32.5,42C 30.9586,40.6288 29.6253,39.1288 28.5,37.5C 29.4959,37.4142 30.3292,37.7476 31,38.5C 31.4643,37.9056 31.631,37.2389 31.5,36.5 Z"></path>
    </g>
  </symbol>

   <symbol xmlns="http://www.w3.org/2000/svg" version="1.1" xmlns:xlink="http://www.w3.org/1999/xlink" viewBox="0 0 32px 32px" id="google-cloud">
    <g>
      <path fill="#5a39ef" d="M 18.5,4.5 C 18.8333,5.16667 19.1667,5.83333 19.5,6.5C 15.4384,6.72415 12.605,8.72415 11,12.5C 10.0053,11.9341 9.17197,11.2674 8.5,10.5C 9.83333,10.5 10.5,9.83333 10.5,8.5C 12.3145,5.59259 14.9812,4.25926 18.5,4.5 Z"></path>
    </g>
    <g>
      <path fill="#5d3aed" d="M 18.5,4.5 C 23.7807,5.11383 26.7807,8.11383 27.5,13.5C 28.8599,14.1799 30.1932,14.8466 31.5,15.5C 31.5,17.8333 31.5,20.1667 31.5,22.5C 30.5084,22.6716 29.8417,22.3382 29.5,21.5C 29.9807,17.6509 28.314,15.6509 24.5,15.5C 24.9393,11.2848 23.2726,8.28482 19.5,6.5C 19.1667,5.83333 18.8333,5.16667 18.5,4.5 Z"></path>
    </g>
    <g>
      <path fill="#5c3aed" d="M 10.5,8.5 C 10.5,9.83333 9.83333,10.5 8.5,10.5C 6.61612,11.3387 5.28279,12.672 4.5,14.5C 4.15829,13.6618 3.49162,13.3284 2.5,13.5C 3.6087,9.39806 6.27537,7.73139 10.5,8.5 Z"></path>
    </g>
    <g>
      <path fill="#5e39ee" d="M 2.5,13.5 C 3.49162,13.3284 4.15829,13.6618 4.5,14.5C 1.43884,16.45 0.772176,19.1167 2.5,22.5C 1.83333,22.5 1.5,22.8333 1.5,23.5C 0.833333,23.1667 0.166667,22.8333 -0.5,22.5C -0.5,20.1667 -0.5,17.8333 -0.5,15.5C 0.5,14.8333 1.5,14.1667 2.5,13.5 Z"></path>
    </g>
    <g>
      <path fill="#5c38ee" d="M 29.5,21.5 C 29.8417,22.3382 30.5084,22.6716 31.5,22.5C 31.5,22.8333 31.5,23.1667 31.5,23.5C 29.7028,24.7298 27.7028,25.3964 25.5,25.5C 18.8333,24.8333 12.1667,24.1667 5.5,23.5C 12.8409,23.6663 20.1742,23.4997 27.5,23C 28.0442,22.2828 28.7109,21.7828 29.5,21.5 Z"></path>
    </g>
    <g>
      <path fill="#5d3aed" d="M 2.5,22.5 C 3.60895,22.5569 4.60895,22.8902 5.5,23.5C 12.1667,24.1667 18.8333,24.8333 25.5,25.5C 17.8261,25.6664 10.1594,25.4997 2.5,25C 1.94404,24.6174 1.61071,24.1174 1.5,23.5C 1.5,22.8333 1.83333,22.5 2.5,22.5 Z"></path>
    </g>
  </symbol>

  <symbol fill="#5e3bee" xmlns="http://www.w3.org/2000/svg" viewBox="0 0 44.343 46" id="jira">
    <path d="M 22.15625 0 A 1.0001 1.0001 0 0 0 21.464844 0.29296875 L 21.445312 0.3125 L 0.87890625 20.878906 C -0.28429206 22.042104 -0.28429206 23.957896 0.87890625 25.121094 L 21.464844 45.707031 A 1.0001 1.0001 0 0 0 22.878906 45.707031 L 22.898438 45.6875 L 43.464844 25.121094 C 44.628041 23.957896 44.628041 22.042104 43.464844 20.878906 L 22.878906 0.29296875 A 1.0001 1.0001 0 0 0 22.15625 0 z M 22.234375 2.4765625 L 42.050781 22.292969 C 42.449681 22.691868 42.449681 23.308132 42.050781 23.707031 L 25.933594 39.824219 C 26.052442 39.242277 26.138227 38.651984 26.169922 38.052734 A 1.0001 1.0001 0 0 0 26.169922 37.947266 C 26.036349 35.421796 25.108902 33.01145 23.537109 31.050781 L 30.878906 23.707031 A 1.0001 1.0001 0 0 0 30.878906 22.292969 L 22.898438 14.3125 C 21.275291 12.594247 20.319287 10.358489 20.181641 8 C 20.299146 5.9866151 21.018169 4.0654641 22.234375 2.4765625 z M 18.410156 6.1757812 C 18.291308 6.7577229 18.205523 7.3480156 18.173828 7.9472656 A 1.0001 1.0001 0 0 0 18.173828 8.0527344 C 18.307423 10.578631 19.236316 12.988371 20.808594 14.949219 L 13.464844 22.292969 A 1.0001 1.0001 0 0 0 13.464844 23.707031 L 21.464844 31.708984 C 23.075846 33.424403 24.02503 35.651211 24.162109 38 C 24.044604 40.013385 23.325581 41.934536 22.109375 43.523438 L 2.2929688 23.707031 C 1.8940686 23.308131 1.8940686 22.691869 2.2929688 22.292969 L 18.410156 6.1757812 z M 22.171875 16.414062 L 28.757812 23 L 22.171875 29.585938 L 15.585938 23 L 22.171875 16.414062 z"></path>
  </symbol>

   <symbol xmlns="http://www.w3.org/2000/svg" version="1.1" xmlns:xlink="http://www.w3.org/1999/xlink" viewBox="0 0 32px 32px" id="mongodb">
    <g>
      <path fill="#5e3aee" d="M 14.5,-0.5 C 15.1667,-0.5 15.8333,-0.5 16.5,-0.5C 18.4779,2.33333 20.3112,5.33333 22,8.5C 24.6492,16.2235 22.9825,22.8901 17,28.5C 16.5172,29.448 16.3505,30.448 16.5,31.5C 15.8333,31.5 15.1667,31.5 14.5,31.5C 14.6567,30.1266 14.49,28.7932 14,27.5C 5.44974,18.1186 5.61641,8.78527 14.5,-0.5 Z"></path>
    </g>
  </symbol>

   <symbol xmlns="http://www.w3.org/2000/svg" version="1.1" xmlns:xlink="http://www.w3.org/1999/xlink" viewBox="0 0 32px 32px" id="netlify">
    <g>
      <path fill="#5f39eb" d="M 13.5,-0.5 C 14.8333,-0.5 16.1667,-0.5 17.5,-0.5C 17.8333,0.166667 18.1667,0.833333 18.5,1.5C 16.901,1.23219 15.5676,1.56552 14.5,2.5C 13.7101,3.79423 12.7101,4.9609 11.5,6C 12.4158,6.27842 13.0825,6.77842 13.5,7.5C 12.8333,7.83333 12.1667,8.16667 11.5,8.5C 10.5,8.5 9.5,8.5 8.5,8.5C 8.57735,7.25025 9.24402,6.41691 10.5,6C 9.94404,5.61742 9.61071,5.11742 9.5,4.5C 10.8333,2.83333 12.1667,1.16667 13.5,-0.5 Z"></path>
    </g>
    <g>
      <path fill="#5d3aec" d="M 14.5,2.5 C 15.5676,1.56552 16.901,1.23219 18.5,1.5C 20.1667,2.5 21.5,3.83333 22.5,5.5C 21.8333,5.83333 21.1667,6.16667 20.5,6.5C 19.8333,6.16667 19.1667,5.83333 18.5,5.5C 17.5,5.5 16.5,5.5 15.5,5.5C 17.129,3.80407 16.7957,2.80407 14.5,2.5 Z"></path>
    </g>
    <g>
      <path fill="#6038ea" d="M 9.5,4.5 C 9.61071,5.11742 9.94404,5.61742 10.5,6C 9.24402,6.41691 8.57735,7.25025 8.5,8.5C 8.16667,9.5 7.5,10.1667 6.5,10.5C 5.83333,10.5 5.16667,10.5 4.5,10.5C 4.16667,10.5 3.83333,10.5 3.5,10.5C 5.16667,8.16667 7.16667,6.16667 9.5,4.5 Z"></path>
    </g>
    <g>
      <path fill="#5e3aed" d="M 22.5,5.5 C 23.5,5.83333 24.1667,6.5 24.5,7.5C 23.791,8.40397 22.791,8.73731 21.5,8.5C 21.5,9.5 21.5,10.5 21.5,11.5C 20.1667,11.5 18.8333,11.5 17.5,11.5C 16.8333,11.5 16.5,11.1667 16.5,10.5C 16.8333,9.83333 17.1667,9.16667 17.5,8.5C 19.5983,9.9143 20.5983,9.24764 20.5,6.5C 21.1667,6.16667 21.8333,5.83333 22.5,5.5 Z"></path>
    </g>
    <g>
      <path fill="#5c39ef" d="M 15.5,5.5 C 16.5,5.5 17.5,5.5 18.5,5.5C 18.0472,6.45837 17.3805,7.2917 16.5,8C 16.7284,8.39877 17.0618,8.56544 17.5,8.5C 17.1667,9.16667 16.8333,9.83333 16.5,10.5C 15.8333,10.5 15.1667,10.5 14.5,10.5C 13.8333,10.5 13.1667,10.5 12.5,10.5C 12.1667,9.83333 11.8333,9.16667 11.5,8.5C 12.1667,8.16667 12.8333,7.83333 13.5,7.5C 14.1667,6.83333 14.8333,6.16667 15.5,5.5 Z"></path>
    </g>
    <g>
      <path fill="#6038ea" d="M 3.5,10.5 C 3.83333,10.5 4.16667,10.5 4.5,10.5C 4.44312,11.609 4.10978,12.609 3.5,13.5C 3.5,13.8333 3.5,14.1667 3.5,14.5C 2.16667,14.5 0.833333,14.5 -0.5,14.5C -0.5,14.1667 -0.5,13.8333 -0.5,13.5C 0.833333,12.5 2.16667,11.5 3.5,10.5 Z"></path>
    </g>
    <g>
      <path fill="#5d3aed" d="M 24.5,7.5 C 26.1667,8.5 27.5,9.83333 28.5,11.5C 28.5,12.8333 28.5,14.1667 28.5,15.5C 26.5588,15.1307 24.7255,14.464 23,13.5C 22.2086,14.745 21.7086,16.0783 21.5,17.5C 20.8333,17.5 20.1667,17.5 19.5,17.5C 19.5,16.5 19.5,15.5 19.5,14.5C 19.9382,14.5654 20.2716,14.3988 20.5,14C 19.4734,13.4867 18.4734,12.9867 17.5,12.5C 17.5,12.1667 17.5,11.8333 17.5,11.5C 18.8333,11.5 20.1667,11.5 21.5,11.5C 21.5,10.5 21.5,9.5 21.5,8.5C 22.791,8.73731 23.791,8.40397 24.5,7.5 Z"></path>
    </g>
    <g>
      <path fill="#5c3aee" d="M 17.5,12.5 C 18.4734,12.9867 19.4734,13.4867 20.5,14C 20.2716,14.3988 19.9382,14.5654 19.5,14.5C 17.0763,15.0305 14.743,15.8638 12.5,17C 14.3817,17.1981 16.0484,17.6981 17.5,18.5C 17.8333,19.1667 18.1667,19.8333 18.5,20.5C 16.9397,20.4809 15.4397,20.1476 14,19.5C 12.3167,20.1765 12.1501,21.1765 13.5,22.5C 13.7373,23.791 13.404,24.791 12.5,25.5C 12.5,24.8333 12.1667,24.5 11.5,24.5C 11.5,23.8333 11.1667,23.5 10.5,23.5C 10.3404,21.847 9.67373,20.5137 8.5,19.5C 7.16667,19.5 5.83333,19.5 4.5,19.5C 4.5,18.1667 5.16667,17.5 6.5,17.5C 9.24903,18.4886 11.249,17.4886 12.5,14.5C 13.1667,14.5 13.5,14.1667 13.5,13.5C 14.8333,13.1667 16.1667,12.8333 17.5,12.5 Z"></path>
    </g>
    <g>
      <path fill="#5c3bef" d="M 12.5,10.5 C 13.1667,10.5 13.8333,10.5 14.5,10.5C 14.4431,11.609 14.1098,12.609 13.5,13.5C 12.8333,13.5 12.5,13.8333 12.5,14.5C 11.249,17.4886 9.24903,18.4886 6.5,17.5C 6.5,17.1667 6.5,16.8333 6.5,16.5C 7.5,16.1667 8.16667,15.5 8.5,14.5C 9.83333,13.1667 11.1667,11.8333 12.5,10.5 Z"></path>
    </g>
    <g>
      <path fill="#5d3aed" d="M 4.5,10.5 C 5.16667,10.5 5.83333,10.5 6.5,10.5C 7.16667,11.8333 7.83333,13.1667 8.5,14.5C 8.16667,15.5 7.5,16.1667 6.5,16.5C 4.16667,17.8333 1.83333,17.8333 -0.5,16.5C -0.5,15.8333 -0.5,15.1667 -0.5,14.5C 0.833333,14.5 2.16667,14.5 3.5,14.5C 4.07683,15.7733 4.7435,15.7733 5.5,14.5C 5.04311,13.7025 4.37644,13.3691 3.5,13.5C 4.10978,12.609 4.44312,11.609 4.5,10.5 Z"></path>
    </g>
    <g>
      <path fill="#5e39ea" d="M 28.5,11.5 C 29.5,12.1667 30.5,12.8333 31.5,13.5C 31.5,14.8333 31.5,16.1667 31.5,17.5C 30.8333,17.8333 30.1667,18.1667 29.5,18.5C 29.6716,17.5084 29.3382,16.8417 28.5,16.5C 28.5,16.1667 28.5,15.8333 28.5,15.5C 28.5,14.1667 28.5,12.8333 28.5,11.5 Z"></path>
    </g>
    <g>
      <path fill="#5e39ec" d="M -0.5,17.5 C -0.5,17.1667 -0.5,16.8333 -0.5,16.5C 1.83333,17.8333 4.16667,17.8333 6.5,16.5C 6.5,16.8333 6.5,17.1667 6.5,17.5C 5.16667,17.5 4.5,18.1667 4.5,19.5C 3.83333,19.5 3.16667,19.5 2.5,19.5C 1.5,18.8333 0.5,18.1667 -0.5,17.5 Z"></path>
    </g>
    <g>
      <path fill="#5f3aef" d="M 19.5,17.5 C 20.1667,17.5 20.8333,17.5 21.5,17.5C 21.8333,18.1667 22.1667,18.8333 22.5,19.5C 22.0825,20.2216 21.4158,20.7216 20.5,21C 20.7284,21.3988 21.0618,21.5654 21.5,21.5C 21.5,21.8333 21.5,22.1667 21.5,22.5C 21.1667,22.5 20.8333,22.5 20.5,22.5C 19.8333,22.1667 19.1667,21.8333 18.5,21.5C 18.5,21.1667 18.5,20.8333 18.5,20.5C 18.1667,19.8333 17.8333,19.1667 17.5,18.5C 18.4916,18.6716 19.1583,18.3382 19.5,17.5 Z"></path>
    </g>
    <g>
      <path fill="#5f39eb" d="M 28.5,16.5 C 29.3382,16.8417 29.6716,17.5084 29.5,18.5C 28.8333,19.8333 27.8333,20.8333 26.5,21.5C 24.9731,21.573 23.9731,20.9063 23.5,19.5C 25.4113,18.925 27.078,17.925 28.5,16.5 Z"></path>
    </g>
    <g>
      <path fill="#5c3ceb" d="M 22.5,19.5 C 22.8333,19.5 23.1667,19.5 23.5,19.5C 23.9731,20.9063 24.9731,21.573 26.5,21.5C 25.8333,22.8333 24.8333,23.8333 23.5,24.5C 23.6716,23.5084 23.3382,22.8417 22.5,22.5C 22.5,21.8333 22.1667,21.5 21.5,21.5C 21.0618,21.5654 20.7284,21.3988 20.5,21C 21.4158,20.7216 22.0825,20.2216 22.5,19.5 Z"></path>
    </g>
    <g>
      <path fill="#5c3aec" d="M 2.5,19.5 C 3.16667,19.5 3.83333,19.5 4.5,19.5C 5.83333,19.5 7.16667,19.5 8.5,19.5C 8.22911,21.3797 8.89578,22.713 10.5,23.5C 10.5,23.8333 10.5,24.1667 10.5,24.5C 10.1667,25.1667 9.83333,25.8333 9.5,26.5C 6.83333,24.5 4.5,22.1667 2.5,19.5 Z"></path>
    </g>
    <g>
      <path fill="#5e39ed" d="M 18.5,21.5 C 19.1667,21.8333 19.8333,22.1667 20.5,22.5C 20.8333,23.8333 21.1667,23.8333 21.5,22.5C 21.8333,22.5 22.1667,22.5 22.5,22.5C 23.3382,22.8417 23.6716,23.5084 23.5,24.5C 22.8333,25.8333 21.8333,26.8333 20.5,27.5C 19.5,27.5 18.5,27.5 17.5,27.5C 18.1495,25.5648 18.4828,23.5648 18.5,21.5 Z"></path>
    </g>
    <g>
      <path fill="#5f38eb" d="M 13.5,22.5 C 14.3382,22.8417 14.6716,23.5084 14.5,24.5C 14.67,25.8221 14.3366,26.9887 13.5,28C 14,28.5 14.5,29 15,29.5C 16.3561,28.6198 17.8561,28.2865 19.5,28.5C 18.8333,29.5 18.1667,30.5 17.5,31.5C 16.1667,31.5 14.8333,31.5 13.5,31.5C 12.1667,29.8333 10.8333,28.1667 9.5,26.5C 9.83333,25.8333 10.1667,25.1667 10.5,24.5C 10.8333,24.5 11.1667,24.5 11.5,24.5C 12.1667,24.5 12.5,24.8333 12.5,25.5C 13.404,24.791 13.7373,23.791 13.5,22.5 Z"></path>
    </g>
    <g>
      <path fill="#5c3bec" d="M 14.5,24.5 C 15.2719,25.6935 16.2719,26.6935 17.5,27.5C 18.5,27.5 19.5,27.5 20.5,27.5C 20.5,28.1667 20.1667,28.5 19.5,28.5C 17.8561,28.2865 16.3561,28.6198 15,29.5C 14.5,29 14,28.5 13.5,28C 14.3366,26.9887 14.67,25.8221 14.5,24.5 Z"></path>
    </g>
  </symbol>

   <symbol fill="#5e3bee" xmlns="http://www.w3.org/2000/svg" viewBox="0 0 50 50" id="prisma">
    <path d="M44.674,37.568L27.405,1.49c-0.89-1.859-3.473-2.012-4.575-0.271L3.679,31.461c-0.413,0.652-0.401,1.486,0.03,2.126	l9.647,14.323c0.599,0.889,1.7,1.29,2.729,0.994l26.994-7.775C44.596,40.692,45.357,38.994,44.674,37.568z M40.86,38.865	l-22.703,6.369c-0.526,0.148-1.02-0.318-0.906-0.853L25.3,6.749c0.145-0.678,1.064-0.788,1.364-0.163l14.843,30.881	C41.766,38.033,41.459,38.697,40.86,38.865z"></path>
  </symbol>

  <symbol fill="#5e3bee" xmlns="http://www.w3.org/2000/svg" viewBox="0 0 50 50" id="sass">
    <path d="M 25 2 C 12.309288 2 2 12.309297 2 25 C 2 37.690703 12.309288 48 25 48 C 37.690712 48 48 37.690703 48 25 C 48 12.309297 37.690712 2 25 2 z M 25 4 C 36.609833 4 46 13.390175 46 25 C 46 36.609825 36.609833 46 25 46 C 13.390167 46 4 36.609825 4 25 C 4 13.390175 13.390167 4 25 4 z M 30.648438 9.0019531 C 28.910804 9.0308606 27.034844 9.360625 25.191406 10.015625 C 21.680406 11.262625 17.880437 13.221344 15.148438 15.777344 C 11.899437 18.816344 11.38075 21.460406 11.59375 22.566406 C 12.34675 26.466406 17.691672 29.016203 19.888672 30.908203 L 19.888672 30.919922 C 19.240672 31.238922 14.499625 33.636844 13.390625 36.089844 C 12.219625 38.677844 13.575609 40.535156 14.474609 40.785156 C 17.258609 41.560156 20.114391 40.165953 21.650391 37.876953 C 23.131391 35.666953 23.009234 32.814531 22.365234 31.394531 C 23.253234 31.160531 24.287516 31.054031 25.603516 31.207031 C 29.316516 31.641031 30.04525 33.959687 29.90625 34.929688 C 29.76725 35.899687 28.988516 36.434703 28.728516 36.595703 C 28.468516 36.756703 28.388156 36.811641 28.410156 36.931641 C 28.442156 37.105641 28.561203 37.1005 28.783203 37.0625 C 29.089203 37.0105 30.734688 36.273422 30.804688 34.482422 C 30.894687 32.208422 28.713469 29.664469 24.855469 29.730469 C 23.266469 29.757469 22.268875 29.909734 21.546875 30.177734 C 21.493875 30.116734 21.438813 30.056094 21.382812 29.996094 C 18.997813 27.451094 14.586437 25.651469 14.773438 22.230469 C 14.841437 20.986469 15.273094 17.711281 23.246094 13.738281 C 29.777094 10.484281 35.007156 11.380234 35.910156 13.365234 C 37.201156 16.201234 33.115031 21.470469 26.332031 22.230469 C 23.748031 22.520469 22.388781 21.519484 22.050781 21.146484 C 21.694781 20.753484 21.640812 20.735594 21.507812 20.808594 C 21.290813 20.928594 21.428813 21.276422 21.507812 21.482422 C 21.710812 22.009422 22.541031 22.943203 23.957031 23.408203 C 25.203031 23.817203 28.238203 24.043047 31.908203 22.623047 C 36.016203 21.033047 39.225203 16.610063 38.283203 12.914062 C 37.624578 10.32975 34.47123 8.9383567 30.648438 9.0019531 z M 20.798828 32.072266 C 21.106828 33.211266 21.073859 34.272375 20.755859 35.234375 C 20.720859 35.341375 20.680672 35.448734 20.638672 35.552734 C 20.596672 35.656734 20.550953 35.759328 20.501953 35.861328 C 20.256953 36.370328 19.927437 36.845156 19.523438 37.285156 C 18.293437 38.627156 16.576844 39.135031 15.839844 38.707031 C 15.043844 38.246031 15.441187 36.354656 16.867188 34.847656 C 18.401187 33.225656 20.609375 32.183594 20.609375 32.183594 L 20.605469 32.175781 C 20.668469 32.142781 20.733828 32.108266 20.798828 32.072266 z"></path>
  </symbol>

   <symbol fill="#5e3bee" xmlns="http://www.w3.org/2000/svg" viewBox="0 0 50 50" id="visual-studio-code">
    <path d="M 35.445312 2.0117188 C 35.056812 2.0253438 34.669266 2.1265938 34.322266 2.3085938 C 35.227266 2.7565937 35.865703 3.6414062 35.970703 4.6914062 C 35.988703 4.8174062 36 4.9322812 36 4.9882812 L 36 44.988281 C 36 46.174281 35.306594 47.190734 34.308594 47.677734 C 34.672594 47.876734 35.079 47.988281 35.5 47.988281 C 35.873 47.988281 36.224969 47.901859 36.542969 47.755859 L 36.544922 47.759766 C 38.152922 46.927766 46.192281 42.764703 46.488281 42.595703 C 47.421281 42.060703 48 41.061281 48 39.988281 L 48 9.9882812 C 48 8.9902813 47.505734 8.0619062 46.677734 7.5039062 C 46.357734 7.2869063 36.582031 2.2363281 36.582031 2.2363281 L 36.580078 2.2402344 C 36.224078 2.0727344 35.833813 1.9980938 35.445312 2.0117188 z M 33 3.9882812 C 32.744125 3.9882812 32.487969 4.08575 32.292969 4.28125 C 32.292969 4.28125 26.568469 10.718844 20.230469 17.839844 L 27.724609 23.970703 L 34 18.685547 L 34 4.9882812 C 34 4.7322812 33.902031 4.47625 33.707031 4.28125 C 33.511531 4.08575 33.255875 3.9882812 33 3.9882812 z M 8 10.988281 C 7.844 10.988281 7.5538594 10.988844 6.2558594 11.589844 C 5.5408594 11.920844 3.0507812 13.228516 3.0507812 13.228516 C 2.7207812 13.407516 2.4545781 13.687719 2.2675781 14.011719 C 2.3435781 13.999719 2.4190469 13.988281 2.4980469 13.988281 L 2.5 13.988281 C 3.168 13.988281 3.5776562 14.454469 3.7226562 14.605469 C 3.7226562 14.605469 31.929969 45.332313 32.292969 45.695312 C 32.487969 45.890313 32.742047 45.988281 32.998047 45.988281 C 33.254047 45.988281 33.510078 45.890313 33.705078 45.695312 C 33.900078 45.500312 34 45.244281 34 44.988281 L 34 31.658203 C 34 31.658203 9.53375 11.661813 9.34375 11.507812 C 8.97575 11.173813 8.497 10.988281 8 10.988281 z M 2.1992188 15.988281 C 2.0892188 15.988281 2 16.078453 2 16.189453 L 2 34.794922 C 2 34.901922 2.0873125 34.990234 2.1953125 34.990234 C 2.2513125 34.990234 2.3009375 34.964781 2.3359375 34.925781 L 8 28.638672 L 8 22.007812 L 2.3417969 16.046875 C 2.3057969 16.010875 2.2542188 15.988281 2.1992188 15.988281 z M 12.253906 26.802734 C 12.253906 26.802734 3.6585469 36.452781 3.5605469 36.550781 C 3.2895469 36.821781 2.915 36.988281 2.5 36.988281 C 2.422 36.988281 2.3464844 36.978797 2.2714844 36.966797 C 2.4734844 37.317797 2.7697188 37.607156 3.1367188 37.785156 L 3.1328125 37.791016 C 4.0028125 38.233016 6.8739531 39.691703 7.2519531 39.845703 C 7.4899531 39.940703 7.741 39.988281 8 39.988281 C 8.347 39.988281 8.6900469 39.898656 8.9980469 39.722656 C 9.0210469 39.709656 17.527344 32.552734 17.527344 32.552734 L 12.253906 26.802734 z"></path>
  </symbol>

  <symbol fill="#5e3bee" xmlns="http://www.w3.org/2000/svg" viewBox="0 0 50 50" id="css3">
    <path fill-rule="evenodd" d="M 39 40 L 25 44 L 11 40 L 8 6 L 42 6 C 41 17.332031 40 28.667969 39 40 Z M 39.816406 8 L 10.183594 8 L 12.871094 38.453125 L 25 41.921875 L 37.128906 38.453125 Z M 16.800781 28 L 20.800781 28 L 20.898438 30.5 L 25 31.898438 L 29.101563 30.5 L 29.398438 26 L 20.601563 26 L 20.398438 22 L 29.601563 22 L 29.898438 18 L 16.101563 18 L 15.800781 14 L 34.101563 14 L 33.601563 22 L 32.898438 33.5 L 25 36.101563 L 17.101563 33.5 Z"></path>
  </symbol>

  <symbol fill="#5e3bee" xmlns="http://www.w3.org/2000/svg" viewBox="0 0 32 32" id="git">
    <path d="M 16 2 C 15.496094 2 15.003906 2.183594 14.625 2.5625 L 11.8125 5.40625 C 11.660156 5.488281 11.53125 5.605469 11.4375 5.75 L 2.5625 14.625 C 1.804688 15.378906 1.804688 16.617188 2.5625 17.375 L 14.625 29.4375 C 15.382813 30.191406 16.617188 30.191406 17.375 29.4375 L 29.4375 17.375 C 30.195313 16.621094 30.195313 15.382813 29.4375 14.625 L 17.375 2.5625 C 16.996094 2.183594 16.503906 2 16 2 Z M 16 4.03125 L 27.96875 16 L 16 27.96875 L 4.03125 16 L 12.3125 7.71875 L 14.0625 9.46875 C 14.015625 9.636719 14 9.816406 14 10 C 14 10.738281 14.402344 11.371094 15 11.71875 L 15 20.28125 C 14.402344 20.628906 14 21.261719 14 22 C 14 23.105469 14.894531 24 16 24 C 17.105469 24 18 23.105469 18 22 C 18 21.261719 17.597656 20.628906 17 20.28125 L 17 12.4375 L 20.0625 15.5 C 20.019531 15.660156 20 15.828125 20 16 C 20 17.105469 20.894531 18 22 18 C 23.105469 18 24 17.105469 24 16 C 24 14.894531 23.105469 14 22 14 C 21.828125 14 21.660156 14.019531 21.5 14.0625 L 17.9375 10.5 C 17.980469 10.339844 18 10.171875 18 10 C 18 8.894531 17.105469 8 16 8 C 15.816406 8 15.636719 8.015625 15.46875 8.0625 L 13.71875 6.3125 Z"></path>
  </symbol>

  <symbol fill="#5e3bee" xmlns="http://www.w3.org/2000/svg" viewBox="0 0 50 50" id="html5">
    <path d="M 9 7 L 12 41 L 26 45 L 40 41 C 41 29.667 42 18.333 43 7 L 9 7 z M 11.183594 9 L 40.816406 9 L 38.128906 39.455078 L 26 42.919922 L 13.871094 39.455078 L 11.183594 9 z M 18.550781 15 L 17.589844 27 L 30.580078 27 L 30.169922 32 L 26 32.619141 L 21.880859 32 L 21.699219 30 L 17.839844 30 L 18.230469 35 L 25.990234 37 L 33.759766 35 L 34.75 23 L 22.089844 23 L 22.410156 19 L 30.769531 19 L 31 21 L 34.699219 21 L 34 15 L 18.550781 15 z"></path>
  </symbol>

  <symbol fill="#5e3bee" xmlns="http://www.w3.org/2000/svg" viewBox="0 0 50 50" id="javascript">
    <path d="M 6.667969 4 C 5.207031 4 4 5.207031 4 6.667969 L 4 43.332031 C 4 44.792969 5.207031 46 6.667969 46 L 43.332031 46 C 44.792969 46 46 44.796875 46 43.332031 L 46 6.667969 C 46 5.207031 44.796875 4 43.332031 4 Z M 6.667969 6 L 43.332031 6 C 43.703125 6 44 6.296875 44 6.667969 L 44 43.332031 C 44 43.703125 43.703125 44 43.332031 44 L 6.667969 44 C 6.296875 44 6 43.703125 6 43.332031 L 6 6.667969 C 6 6.296875 6.296875 6 6.667969 6 Z M 23 23 L 23 35.574219 C 23 37.503906 22.269531 38 21 38 C 19.671875 38 18.75 37.171875 18.140625 36.097656 L 15 38 C 15.910156 39.925781 18.140625 42 21.234375 42 C 24.65625 42 27 40.179688 27 36.183594 L 27 23 Z M 35.453125 23 C 32.046875 23 29.863281 25.179688 29.863281 28.042969 C 29.863281 31.148438 31.695313 32.617188 34.449219 33.789063 L 35.402344 34.199219 C 37.140625 34.960938 38 35.425781 38 36.734375 C 38 37.824219 37.171875 38.613281 35.589844 38.613281 C 33.707031 38.613281 32.816406 37.335938 32 36 L 29 38 C 30.121094 40.214844 32.132813 42 35.675781 42 C 39.300781 42 42 40.117188 42 36.683594 C 42 33.496094 40.171875 32.078125 36.925781 30.6875 L 35.972656 30.28125 C 34.335938 29.570313 33.625 29.109375 33.625 27.964844 C 33.625 27.039063 34.335938 26.328125 35.453125 26.328125 C 36.550781 26.328125 37.253906 26.792969 37.90625 27.964844 L 40.878906 26.058594 C 39.625 23.84375 37.878906 23 35.453125 23 Z"></path>
  </symbol>

  <symbol fill="#5e3bee" xmlns="http://www.w3.org/2000/svg" viewBox="0 0 32 32" id="node-js">
    <path d="M 15.994141 3 C 15.629141 3 15.264219 3.0895313 14.949219 3.2695312 L 5.0390625 8.9902344 C 4.3990625 9.3602344 4 10.060781 4 10.800781 L 4 21.179688 C 4 21.929688 4.3990625 22.620234 5.0390625 22.990234 L 7.640625 24.490234 C 8.900625 25.110234 9.3499219 25.109375 9.9199219 25.109375 C 11.789922 25.109375 12.859375 23.979531 12.859375 22.019531 L 12.859375 11.310547 C 12.859375 11.150547 12.730312 11.019531 12.570312 11.019531 L 11.320312 11.019531 C 11.150313 11.019531 11.029297 11.150547 11.029297 11.310547 L 11.029297 22.009766 C 11.029297 22.889766 10.120391 23.749531 8.6503906 23.019531 L 5.9296875 21.449219 C 5.8296875 21.399219 5.7695313 21.289687 5.7695312 21.179688 L 5.7695312 10.810547 C 5.7695312 10.690547 5.8296875 10.589297 5.9296875 10.529297 L 15.839844 4.8105469 C 15.929844 4.7505469 16.050391 4.7505469 16.150391 4.8105469 L 26.060547 10.529297 C 26.160547 10.589297 26.220703 10.690781 26.220703 10.800781 L 26.220703 21.179688 C 26.220703 21.289687 26.160313 21.399219 26.070312 21.449219 L 16.150391 27.179688 C 16.060391 27.229688 15.929844 27.229688 15.839844 27.179688 L 13.289062 25.669922 C 13.219062 25.619922 13.120781 25.610391 13.050781 25.650391 C 12.340781 26.050391 12.210781 26.100078 11.550781 26.330078 C 11.390781 26.380078 11.140625 26.479766 11.640625 26.759766 L 14.949219 28.720703 C 15.269219 28.900703 15.630234 29 15.990234 29 C 16.360234 29 16.719062 28.900703 17.039062 28.720703 L 26.960938 22.990234 C 27.600938 22.620234 28 21.929688 28 21.179688 L 28 10.810547 C 28 10.060547 27.600938 9.37 26.960938 9 L 17.039062 3.2695312 C 16.724063 3.0895313 16.359141 3 15.994141 3 z M 18.660156 11.005859 C 15.830156 11.005859 14.140625 12.205078 14.140625 14.205078 C 14.140625 16.375078 15.819062 16.974141 18.539062 17.244141 C 21.789062 17.564141 22.039062 18.045547 22.039062 18.685547 C 22.039062 19.785547 21.150547 20.255859 19.060547 20.255859 C 16.430547 20.255859 15.850156 19.594922 15.660156 18.294922 C 15.640156 18.154922 15.520859 18.054688 15.380859 18.054688 L 14.089844 18.054688 C 13.929844 18.054688 13.810547 18.185938 13.810547 18.335938 C 13.810547 20.005937 14.720547 21.994141 19.060547 21.994141 C 22.200547 21.994141 24 20.755703 24 18.595703 C 24 16.455703 22.549766 15.884609 19.509766 15.474609 C 16.419766 15.074609 16.109375 14.864531 16.109375 14.144531 C 16.109375 13.544531 16.380156 12.755859 18.660156 12.755859 C 20.690156 12.755859 21.449766 13.194453 21.759766 14.564453 C 21.789766 14.694453 21.899062 14.794922 22.039062 14.794922 L 23.330078 14.794922 C 23.410078 14.794922 23.479063 14.755313 23.539062 14.695312 C 23.589062 14.645313 23.619375 14.564609 23.609375 14.474609 C 23.409375 12.114609 21.840156 11.005859 18.660156 11.005859 z"></path>
  </symbol>

  <symbol fill="#5e3bee" xmlns="http://www.w3.org/2000/svg" viewBox="0 0 32 32" id="npm">
    <path d="M 0 10 L 0 21 L 9 21 L 9 23 L 16 23 L 16 21 L 32 21 L 32 10 L 0 10 z M 1.7773438 11.777344 L 8.8886719 11.777344 L 8.890625 11.777344 L 8.890625 19.445312 L 7.1113281 19.445312 L 7.1113281 13.556641 L 5.3339844 13.556641 L 5.3339844 19.445312 L 1.7773438 19.445312 L 1.7773438 11.777344 z M 10.667969 11.777344 L 17.777344 11.777344 L 17.779297 11.777344 L 17.779297 19.443359 L 14.222656 19.443359 L 14.222656 21.222656 L 10.667969 21.222656 L 10.667969 11.777344 z M 19.556641 11.777344 L 30.222656 11.777344 L 30.224609 11.777344 L 30.224609 19.445312 L 28.445312 19.445312 L 28.445312 13.556641 L 26.667969 13.556641 L 26.667969 19.445312 L 24.890625 19.445312 L 24.890625 13.556641 L 23.111328 13.556641 L 23.111328 19.445312 L 19.556641 19.445312 L 19.556641 11.777344 z M 14.222656 13.556641 L 14.222656 17.667969 L 16 17.667969 L 16 13.556641 L 14.222656 13.556641 z"></path>
  </symbol>

  <symbol fill="#5e3bee" xmlns="http://www.w3.org/2000/svg" viewBox="0 0 50 50" id="react">
    <path d="M 34.554688 3.984375 C 33.775003 3.9581582 32.958884 4.0940926 32.140625 4.359375 C 30.504109 4.889941 28.789203 5.9238848 27.029297 7.3554688 C 26.339589 7.9165071 25.643623 8.5578288 24.945312 9.2382812 C 24.262398 8.5751039 23.580733 7.9490442 22.90625 7.4003906 C 21.147758 5.9699557 19.4375 4.9375672 17.804688 4.4082031 C 16.171878 3.8788386 14.547223 3.8624356 13.212891 4.6328125 C 11.878558 5.4031893 11.080619 6.8173558 10.722656 8.4960938 C 10.364693 10.174832 10.402173 12.173992 10.761719 14.412109 C 10.886606 15.189511 11.066671 16.005078 11.269531 16.835938 C 10.507095 17.067004 9.7666767 17.309955 9.0800781 17.578125 C 7.0079817 18.387438 5.2934468 19.355663 4.0449219 20.507812 C 2.7963969 21.659962 1.9902344 23.058304 1.9902344 24.59375 C 1.9902344 26.129196 2.7963969 27.525585 4.0449219 28.677734 C 5.2934468 29.829884 7.0079817 30.800062 9.0800781 31.609375 C 9.8142516 31.896126 10.609118 32.154326 11.429688 32.398438 C 11.134531 33.501278 10.895394 34.571467 10.732422 35.585938 C 10.372587 37.825853 10.334588 39.825265 10.693359 41.507812 C 11.052134 43.19036 11.850478 44.612534 13.191406 45.386719 C 14.532336 46.160905 16.164264 46.141894 17.800781 45.611328 C 19.437297 45.080762 21.15025 44.048772 22.910156 42.617188 C 23.593512 42.061316 24.284757 41.427206 24.976562 40.753906 C 25.671663 41.430886 26.366333 42.068604 27.052734 42.626953 C 28.811227 44.057387 30.523438 45.089776 32.15625 45.619141 C 33.789061 46.148505 35.411762 46.164908 36.746094 45.394531 C 38.080426 44.624154 38.878366 43.209988 39.236328 41.53125 C 39.59429 39.852512 39.554857 37.85335 39.195312 35.615234 C 39.031899 34.598012 38.792614 33.526227 38.496094 32.419922 C 39.343769 32.169866 40.163744 31.904721 40.919922 31.609375 C 42.992018 30.800062 44.706553 29.829884 45.955078 28.677734 C 47.203603 27.525585 48.009766 26.129196 48.009766 24.59375 C 48.009766 23.058304 47.203603 21.659963 45.955078 20.507812 C 44.706553 19.355663 42.992018 18.387438 40.919922 17.578125 C 40.22347 17.306107 39.471688 17.059992 38.697266 16.826172 C 38.901775 15.990221 39.083345 15.168805 39.208984 14.386719 C 39.568819 12.146804 39.606825 10.145439 39.248047 8.4628906 C 38.889279 6.7803434 38.088976 5.3601244 36.748047 4.5859375 C 36.077582 4.1988452 35.334372 4.0105918 34.554688 3.984375 z M 34.462891 6.0195312 C 34.952154 6.03291 35.369535 6.1493386 35.726562 6.3554688 C 36.440618 6.7677287 36.968419 7.5700924 37.25 8.890625 C 37.531581 10.211156 37.521848 11.99533 37.189453 14.064453 C 37.075647 14.772878 36.910402 15.52369 36.722656 16.292969 C 34.677708 15.800829 32.436969 15.435424 30.048828 15.220703 C 28.849094 13.558465 27.615953 12.046374 26.373047 10.703125 C 27.030182 10.061662 27.683063 9.4617259 28.320312 8.9433594 C 29.946026 7.6209332 31.485126 6.7210962 32.769531 6.3046875 C 33.411734 6.0964824 33.973627 6.0061525 34.462891 6.0195312 z M 15.486328 6.0253906 C 15.978419 6.0116533 16.541491 6.1017415 17.185547 6.3105469 C 18.473657 6.7281576 20.015451 7.6275969 21.642578 8.9511719 C 22.266889 9.4590141 22.905452 10.045872 23.548828 10.671875 C 22.296955 12.025781 21.055175 13.553705 19.847656 15.230469 C 17.468002 15.449155 15.235261 15.818024 13.199219 16.3125 C 13.012686 15.546898 12.84964 14.799095 12.736328 14.09375 C 12.403642 12.02283 12.39534 10.236451 12.677734 8.9121094 C 12.960128 7.5877677 13.492238 6.7813032 14.212891 6.3652344 C 14.573216 6.1572002 14.994237 6.0391279 15.486328 6.0253906 z M 24.976562 12.142578 C 25.791064 13.028975 26.606064 13.9993 27.414062 15.042969 C 26.620033 15.009861 25.816288 14.990234 25 14.990234 C 24.167457 14.990234 23.34841 15.010498 22.539062 15.044922 C 23.347352 14.000306 24.16175 13.029737 24.976562 12.142578 z M 25 17.009766 C 26.359894 17.009766 27.685348 17.065647 28.974609 17.160156 C 29.86173 18.434311 30.728648 19.786055 31.554688 21.216797 C 32.280504 22.473948 32.937328 23.729163 33.535156 24.96875 C 32.931017 26.224782 32.263184 27.496972 31.527344 28.771484 C 30.879609 29.893393 30.20319 30.958949 29.515625 31.986328 C 28.059313 32.10805 26.550303 32.175781 25 32.175781 C 23.412375 32.175781 21.869462 32.104031 20.380859 31.976562 C 19.704742 30.963955 19.039735 29.912587 18.402344 28.808594 C 17.668186 27.536996 17.003577 26.269079 16.400391 25.015625 C 17.006106 23.755092 17.673701 22.47818 18.412109 21.199219 C 19.233818 19.775977 20.098207 18.432055 20.980469 17.164062 C 22.283609 17.067424 23.62445 17.009766 25 17.009766 z M 31.550781 17.410156 C 33.198531 17.615819 34.745652 17.90154 36.185547 18.244141 C 35.758129 19.645287 35.231654 21.108808 34.59375 22.619141 C 34.179567 21.820719 33.750599 21.019585 33.287109 20.216797 C 32.725727 19.244455 32.142026 18.315962 31.550781 17.410156 z M 18.34375 17.425781 C 17.764654 18.315097 17.194836 19.224578 16.644531 20.177734 C 16.175094 20.990823 15.737221 21.802736 15.318359 22.611328 C 14.68596 21.110075 14.162654 19.654877 13.738281 18.261719 C 15.168002 17.918363 16.706766 17.633813 18.34375 17.425781 z M 38.164062 18.775391 C 38.872944 18.989877 39.557566 19.21371 40.185547 19.458984 C 42.0957 20.205046 43.60665 21.088493 44.585938 21.992188 C 45.565224 22.895882 45.990234 23.757696 45.990234 24.59375 C 45.990234 25.429804 45.565225 26.291619 44.585938 27.195312 C 43.60665 28.099007 42.0957 28.982454 40.185547 29.728516 C 39.487698 30.001079 38.72096 30.248243 37.923828 30.482422 C 37.355199 28.723643 36.629408 26.888772 35.765625 25.015625 C 36.758785 22.865083 37.561088 20.768289 38.164062 18.775391 z M 11.802734 18.785156 C 12.398795 20.758095 13.190852 22.834207 14.169922 24.962891 C 13.30047 26.846955 12.571087 28.692254 12 30.460938 C 11.23096 30.232919 10.490212 29.992451 9.8144531 29.728516 C 7.9042995 28.982454 6.39335 28.099007 5.4140625 27.195312 C 4.434775 26.291618 4.0097656 25.429804 4.0097656 24.59375 C 4.0097656 23.757696 4.434775 22.895882 5.4140625 21.992188 C 6.39335 21.088493 7.9042995 20.205046 9.8144531 19.458984 C 10.432774 19.217483 11.105915 18.996837 11.802734 18.785156 z M 25 20 C 22.250421 20 20 22.250421 20 25 C 20 27.749579 22.250421 30 25 30 C 27.749579 30 30 27.749579 30 25 C 30 22.250421 27.749579 20 25 20 z M 25 22 C 26.668699 22 28 23.331301 28 25 C 28 26.668699 26.668699 28 25 28 C 23.331301 28 22 26.668699 22 25 C 22 23.331301 23.331301 22 25 22 z M 34.619141 27.363281 C 35.143596 28.604493 35.599462 29.819048 35.982422 30.990234 C 34.779808 31.269089 33.499292 31.504052 32.152344 31.689453 C 32.540071 31.070779 32.922982 30.44057 33.296875 29.792969 C 33.765554 28.981192 34.200846 28.17048 34.619141 27.363281 z M 15.341797 27.365234 C 15.762305 28.177437 16.200272 28.991753 16.671875 29.808594 C 17.041066 30.448052 17.418053 31.072363 17.800781 31.683594 C 16.457817 31.497372 15.181231 31.261605 13.982422 30.982422 C 14.363652 29.81481 14.819744 28.602796 15.341797 27.365234 z M 13.40625 32.923828 C 15.216074 33.352568 17.177716 33.681912 19.257812 33.896484 C 20.646655 35.905245 22.092677 37.70929 23.548828 39.287109 C 22.897813 39.921859 22.252566 40.517583 21.621094 41.03125 C 19.99538 42.353677 18.454326 43.251559 17.169922 43.667969 C 15.885516 44.084378 14.926946 44.029446 14.212891 43.617188 C 13.498835 43.204927 12.972987 42.402563 12.691406 41.082031 C 12.409825 39.761499 12.417606 37.979279 12.75 35.910156 C 12.900793 34.971492 13.12615 33.966374 13.40625 32.923828 z M 36.560547 32.931641 C 36.842786 33.979991 37.069087 34.989811 37.220703 35.933594 C 37.553389 38.004513 37.56169 39.788939 37.279297 41.113281 C 36.996903 42.437623 36.466746 43.24604 35.746094 43.662109 C 35.025442 44.078178 34.059594 44.13441 32.771484 43.716797 C 31.483374 43.299186 29.941578 42.397794 28.314453 41.074219 C 27.678439 40.556858 27.028726 39.958258 26.373047 39.318359 C 27.838664 37.73459 29.295467 35.920758 30.693359 33.900391 C 32.778701 33.687251 34.745791 33.359875 36.560547 32.931641 z M 21.867188 34.101562 C 22.893951 34.157518 23.934244 34.195312 25 34.195312 C 26.030504 34.195312 27.037063 34.159787 28.03125 34.107422 C 27.014961 35.478593 25.979034 36.725149 24.947266 37.847656 C 23.916125 36.722751 22.882145 35.473968 21.867188 34.101562 z"></path>
  </symbol>

  <symbol fill="#5e3bee" xmlns="http://www.w3.org/2000/svg" viewBox="0 0 50 50" id="typescript">
    <path d="M 5 4 A 1.0001 1.0001 0 0 0 4 5 L 4 45 A 1.0001 1.0001 0 0 0 5 46 L 45 46 A 1.0001 1.0001 0 0 0 46 45 L 46 5 A 1.0001 1.0001 0 0 0 45 4 L 5 4 z M 6 6 L 44 6 L 44 44 L 6 44 L 6 6 z M 15 23 L 15 26.445312 L 20 26.445312 L 20 42 L 24 42 L 24 26.445312 L 29 26.445312 L 29 23 L 15 23 z M 36.691406 23.009766 C 33.576782 22.997369 30.017578 23.941219 30.017578 28.324219 C 30.017578 34.054219 37.738281 34.055625 37.738281 36.640625 C 37.738281 36.885625 37.842187 38.666016 35.117188 38.666016 C 32.392187 38.666016 30.121094 36.953125 30.121094 36.953125 L 30.121094 41.111328 C 30.121094 41.111328 42.001953 44.954062 42.001953 36.289062 C 42.000953 30.664063 34.208984 30.945391 34.208984 28.150391 C 34.208984 27.067391 34.978375 26.054687 37.109375 26.054688 C 39.240375 26.054688 41.126953 27.3125 41.126953 27.3125 L 41.267578 23.607422 C 41.267578 23.607422 39.113892 23.019408 36.691406 23.009766 z"></path>
  </symbol>

   <symbol fill="#5e3bee" xmlns="http://www.w3.org/2000/svg" viewBox="0 0 32 32" id="yarn">
    <path d="M 16 3 C 8.8 3 3 8.8 3 16 C 3 23.2 8.8 29 16 29 C 23.2 29 29 23.2 29 16 C 29 8.8 23.2 3 16 3 z M 16 5 C 22.1 5 27 9.9 27 16 C 27 22.1 22.1 27 16 27 C 9.9 27 5 22.1 5 16 C 5 9.9 9.9 5 16 5 z M 16.208984 9.0449219 C 15.75918 9.1214844 15.300781 10.5 15.300781 10.5 C 15.300781 10.5 14.099609 10.300781 13.099609 11.300781 C 12.899609 11.500781 12.700391 11.599219 12.400391 11.699219 C 12.300391 11.799219 12.2 11.800391 12 12.400391 C 11.6 13.300391 12.599609 14.400391 12.599609 14.400391 C 10.499609 15.900391 10.599219 17.900391 10.699219 18.400391 C 9.3992187 19.500391 9.8992187 20.900781 10.199219 21.300781 C 10.399219 21.600781 10.599219 21.5 10.699219 21.5 C 10.699219 21.6 10.199219 22.200391 10.699219 22.400391 C 11.199219 22.700391 12.000391 22.800391 12.400391 22.400391 C 12.700391 22.100391 12.800391 21.499219 12.900391 21.199219 C 13.000391 21.099219 13.000391 21.399609 13.400391 21.599609 C 13.400391 21.599609 12.7 21.899609 13 22.599609 C 13.1 22.799609 13.4 23 14 23 C 14.2 23 16.599219 22.899219 17.199219 22.699219 C 17.599219 22.599219 17.699219 22.400391 17.699219 22.400391 C 20.299219 21.700391 20.799609 20.599219 22.599609 20.199219 C 23.199609 20.099219 23.199609 19.099219 22.099609 19.199219 C 21.299609 19.199219 20.6 19.6 20 20 C 19 20.6 18.300781 20.699609 18.300781 20.599609 C 18.200781 20.499609 18.699219 19.3 18.199219 18 C 17.699219 16.6 16.800391 16.199609 16.900391 16.099609 C 17.200391 15.599609 17.899219 14.800391 18.199219 13.400391 C 18.299219 12.500391 18.300391 11.000781 17.900391 10.300781 C 17.800391 10.100781 17.199219 10.5 17.199219 10.5 C 17.199219 10.5 16.600391 9.1996094 16.400391 9.0996094 C 16.337891 9.0496094 16.273242 9.0339844 16.208984 9.0449219 z"></path>
  </symbol>

  <symbol fill="#5e3bee" xmlns="http://www.w3.org/2000/svg" viewBox="0 0 50 50" id="express-js">
    <path d="M49.729 11h-.85c-1.051 0-2.041.49-2.68 1.324l-8.7 11.377-8.7-11.377C28.162 11.49 27.171 11 26.121 11h-.85l10.971 14.346L25.036 40h.85c1.051 0 2.041-.49 2.679-1.324L37.5 26.992l8.935 11.684C47.073 39.51 48.063 40 49.114 40h.85L38.758 25.346 49.729 11zM21.289 34.242c-2.554 3.881-7.582 5.87-12.389 4.116C4.671 36.815 2 32.611 2 28.109L2 27h12v0h11l0-4.134c0-6.505-4.818-12.2-11.295-12.809C6.273 9.358 0 15.21 0 22.5l0 5.573c0 5.371 3.215 10.364 8.269 12.183 6.603 2.376 13.548-1.17 15.896-7.256 0 0 0 0 0 0h-.638C22.616 33 21.789 33.481 21.289 34.242zM2 22.5C2 16.71 6.71 12 12.5 12S23 16.71 23 22.5V25H2V22.5z"></path>
  </symbol>

 <symbol  fill="#5e3bee" xmlns="http://www.w3.org/2000/svg" viewBox="0 0 32 32" id="terminal">
    <path d="M0 6c0-2.21 1.79-4 4-4h24c2.21 0 4 1.79 4 4v20c0 2.21-1.79 4-4 4H4c-2.21 0-4-1.79-4-4Zm19 11h-6c-.55 0-1 .45-1 1s.45 1 1 1h6c.55 0 1-.45 1-1s-.45-1-1-1Zm-12.707-.707a1 1 0 1 0 1.414 1.414l4-4a1 1 0 0 0 0-1.414l-4-4a1 1 0 1 0-1.414 1.414L9.586 13Zm0 0"></path>
</symbol>

<symbol fill="#5e3bee" xmlns="http://www.w3.org/2000/svg" viewBox="0 0 32 32" id="styled-components">
    <path d="m21.617 9.016-.097.523c-.157.984-.098 1.27.324 1.637l.41.336-.426 1.89c-.254 1.13-.562 2.075-.762 2.387-.168.266-.363.66-.406.875-.07.25-.312.508-.68.73-.324.184-.96.68-1.41 1.075-.36.324-.61.523-.742.61l-.441.347c-.14.226-.219.41-.25.547-.032.144-.016.238.031.308a.37.37 0 0 0 .223.14c.125.032.25.04.379.032.285-.02.566-.07.84-.148l.23-.07c.101-.122.328-.352.73-.75 1.075-1.06 1.485-1.637 1.059-1.481-.152.055-.082-.086.183-.367.567-.551.891-1.383 1.567-3.992.535-2.06.535-2.09.933-2.09.184 0 .708.03.708.03v-2.57Zm5.121 4.218c-.086 0-.226.13-.312.27-.153.254.027.41 2.355 1.863 1.383.875 2.5 1.621 2.473 1.68-.031.043-1.16.777-2.512 1.621-2.457 1.523-2.469 1.539-2.246 1.848.285.367 0 .496 3.188-1.496L32 17.54v-1.114l-2.582-1.594c-1.398-.875-2.61-1.582-2.68-1.598Zm-21.449.157c-.07 0-1.281.722-2.68 1.582L0 16.566v1.114l2.598 1.625c1.437.886 2.652 1.62 2.707 1.62.058 0 .172-.128.285-.28.168-.27.023-.383-2.36-1.891C.96 17.328.72 17.129.945 16.977c.145-.098 1.215-.762 2.371-1.48 2.641-1.626 2.5-1.513 2.286-1.852-.082-.141-.227-.266-.309-.254Zm11.582.03c-.39 0-1.226.59-3.734 2.638-.11.257-.117.437-.07.55a.35.35 0 0 0 .171.172.774.774 0 0 0 .301.074c.227.02.496-.015.715-.058l.144-.031a.52.52 0 0 1 .196-.16c.152-.086.8-.676 1.453-1.313 1.14-1.156 1.41-1.68.945-1.848a.333.333 0 0 0-.12-.023Zm2.926.806c-.344.007-.961.406-2.016 1.25-.531.43-.867.664-1.047.71l-.699.551c-.262.48-.3.778-.234.942a.327.327 0 0 0 .187.18c.102.038.207.062.32.062.262-.004.52-.043.77-.113.133-.036.262-.079.39-.125l.04-.016.07-.04c.133-.171.438-.495.824-.866 1.211-1.172 1.832-2.004 1.707-2.313-.058-.152-.156-.226-.312-.222Zm-3.23 1.441c-.102.008-.32.18-.72.531-.577.508-1.202.801-1.421.672-.051.008-.102.02-.153.031a2.891 2.891 0 0 1-.742.059 1.031 1.031 0 0 1-.34-.082.482.482 0 0 1-.222-.227c-.047-.12-.047-.27.008-.46l-.868.71-1.96 1.621v2.633l6.425-5.062c0-.055.008-.11.024-.164.047-.18.047-.27-.032-.262Zm2.765.852c-.098 0-.262.136-.52.414-.355.375-.91.742-1.207.816l-.043.023c-.05.02-.097.04-.148.055a6.484 6.484 0 0 1-.305.094c-.238.062-.539.125-.804.117a.921.921 0 0 1-.367-.074.459.459 0 0 1-.247-.238c-.074-.184-.043-.446.125-.817l-5.668 4.469v1.605h2.489l5.285-4.148c.137-.152.344-.36.621-.621.746-.692.914-.93.914-1.285 0-.274-.027-.414-.125-.414Zm1.258 2.597-.453.453a3.943 3.943 0 0 1-1.016.66l-.062.028-.004.008-.012.011c-.012.012-.02.012-.027.016-.125.047-.25.09-.375.125a4.076 4.076 0 0 1-.868.152 1.474 1.474 0 0 1-.414-.035.49.49 0 0 1-.289-.191c-.066-.102-.082-.23-.047-.395.028-.117.07-.226.125-.332l-4.261 3.367h5.668l.68-.777c.93-1.086 1.355-1.86 1.355-2.523Zm0 0"></path>
</symbol>

 <symbol fill="#5e3bee" xmlns="http://www.w3.org/2000/svg" viewBox="0 0 32 32" id="google-cloud">
    <path d="M30.668 19.668c0 4.598-3.734 8.332-8.336 8.332H9.668c-4.602 0-8.336-3.734-8.336-8.332a8.327 8.327 0 0 1 3.613-6.867C6.105 7.76 10.613 4 16 4s9.895 3.762 11.055 8.8a8.297 8.297 0 0 1 3.613 6.868m-8.496 3c1.75 0 3.16-1.414 3.16-3.16a3.164 3.164 0 0 0-3.039-3.176l.039-.664a6.34 6.34 0 0 0-11.094-4.188c2 .387 3.735 1.48 4.95 3L12.668 18c-.563-.973-1.613-1.668-2.828-1.668a3.163 3.163 0 0 0-3.172 3.176 3.173 3.173 0 0 0 3 3.16Zm0 0"></path>
</symbol>

<symbol fill="#5e3bee" xmlns="http://www.w3.org/2000/svg" viewBox="0 0 32 32" id="material-ui">
    <path d="M0 3.3v13.852l4 2.313v-9.238l8 4.62 8-4.62v4.62l-8 4.618v4.617l8 4.617 12-6.926v-9.238l-4 2.313v4.617l-8 4.617-4-2.309 8-4.62V3.3l-12 6.926Zm32 0-4 2.305v4.622l4-2.309V3.297Zm0 0"></path>
</symbol>

 <symbol xmlns="http://www.w3.org/2000/svg" version="1.1" xmlns:xlink="http://www.w3.org/1999/xlink" viewBox="0 0 60px 60px" id="frontend">
    <g>
      <path fill="#000000" d="M 7.5,8.5 C 22.1705,8.33342 36.8371,8.50009 51.5,9C 52,9.5 52.5,10 53,10.5C 53.4999,23.8292 53.6666,37.1625 53.5,50.5C 37.5,50.5 21.5,50.5 5.5,50.5C 5.33344,37.1625 5.5001,23.8292 6,10.5C 6.71719,9.9558 7.21719,9.28913 7.5,8.5 Z M 8.5,11.5 C 22.504,11.3334 36.504,11.5001 50.5,12C 51.731,13.1827 51.731,14.3493 50.5,15.5C 36.5,15.5 22.5,15.5 8.5,15.5C 7.37437,14.1916 7.37437,12.8583 8.5,11.5 Z M 7.5,16.5 C 21.8685,16.7981 36.2019,16.7981 50.5,16.5C 51.4986,26.8119 51.8319,37.1452 51.5,47.5C 36.8333,47.5 22.1667,47.5 7.5,47.5C 7.5,37.1667 7.5,26.8333 7.5,16.5 Z"></path>
    </g>
    <g>
      <path fill="#000000" d="M 31.5,22.5 C 32.552,22.3505 33.552,22.5172 34.5,23C 31.7043,30.0865 28.5376,36.9199 25,43.5C 24.5,43.1667 24,42.8333 23.5,42.5C 26.3702,35.8842 29.0368,29.2175 31.5,22.5 Z"></path>
    </g>
    <g>
      <path fill="#000000" d="M 19.5,26.5 C 20.7562,26.4614 21.7562,26.9614 22.5,28C 20.981,29.3513 19.6477,30.8513 18.5,32.5C 19.6477,34.1487 20.981,35.6487 22.5,37C 21.9747,37.6924 21.3081,38.1924 20.5,38.5C 18.1667,36.8333 16.1667,34.8333 14.5,32.5C 16.1897,30.4807 17.8564,28.4807 19.5,26.5 Z"></path>
    </g>
    <g>
      <path fill="#000000" d="M 37.5,26.5 C 40.4073,27.7341 42.7407,29.7341 44.5,32.5C 42.8333,34.8333 40.8333,36.8333 38.5,38.5C 37.6919,38.1924 37.0253,37.6924 36.5,37C 38.019,35.6487 39.3523,34.1487 40.5,32.5C 39.3523,30.8513 38.019,29.3513 36.5,28C 37.056,27.6174 37.3893,27.1174 37.5,26.5 Z"></path>
    </g>
  </symbol>

<symbol xmlns="http://www.w3.org/2000/svg" version="1.1" xmlns:xlink="http://www.w3.org/1999/xlink" viewBox="0 0 50px 50px" id="development">
    <g>
      <path fill="#5d3aee" d="M 35.5,-0.5 C 37.5,-0.5 39.5,-0.5 41.5,-0.5C 41.3505,0.551975 41.5172,1.55198 42,2.5C 44.5734,-0.00477748 46.7401,0.495223 48.5,4C 45.7406,6.48365 46.074,7.65032 49.5,7.5C 49.5,9.5 49.5,11.5 49.5,13.5C 45.9007,13.2619 45.5673,14.2619 48.5,16.5C 47.8551,17.646 47.0217,18.646 46,19.5C 45.5006,24.8229 45.334,30.1563 45.5,35.5C 46.5,35.5 47.5,35.5 48.5,35.5C 48.822,37.7224 48.1554,39.5557 46.5,41C 31.8333,41.6667 17.1667,41.6667 2.5,41C 0.844644,39.5557 0.177978,37.7224 0.5,35.5C 1.5,35.5 2.5,35.5 3.5,35.5C 3.18215,26.2494 3.51549,17.0828 4.5,8C 11.856,7.16872 19.1893,7.33539 26.5,8.5C 20.1928,9.33059 13.8594,9.83059 7.5,10C 7,10.5 6.5,11 6,11.5C 5.33333,18.8333 5.33333,26.1667 6,33.5C 6.5,34 7,34.5 7.5,35C 18.8333,35.6667 30.1667,35.6667 41.5,35C 42,34.5 42.5,34 43,33.5C 43.226,29.1126 43.726,24.7793 44.5,20.5C 42.2619,17.5673 41.2619,17.9007 41.5,21.5C 39.5,21.5 37.5,21.5 35.5,21.5C 35.6503,18.074 34.4837,17.7406 32,20.5C 28.4952,18.7401 27.9952,16.5734 30.5,14C 29.552,13.5172 28.552,13.3505 27.5,13.5C 27.5,11.5 27.5,9.5 27.5,7.5C 28.552,7.64945 29.552,7.48278 30.5,7C 28.0167,4.20409 28.6834,2.03743 32.5,0.5C 34.7381,3.43268 35.7381,3.09935 35.5,-0.5 Z M 37.5,5.5 C 34.6699,7.36227 33.8366,10.0289 35,13.5C 41.3333,16.1667 43.6667,14.1667 42,7.5C 41.0053,6.93406 40.172,6.26739 39.5,5.5C 40.8333,5.5 42.1667,5.5 43.5,5.5C 44.8333,8.83333 44.8333,12.1667 43.5,15.5C 40.1667,16.8333 36.8333,16.8333 33.5,15.5C 32.3733,12.1427 32.3733,8.80939 33.5,5.5C 34.8333,5.5 36.1667,5.5 37.5,5.5 Z M 37.5,9.5 C 39.337,9.63945 39.6704,10.3061 38.5,11.5C 37.7025,11.0431 37.3691,10.3764 37.5,9.5 Z M 3.5,38.5 C 17.3272,37.3393 31.3272,37.1727 45.5,38C 38.6012,39.1314 31.6012,39.6314 24.5,39.5C 17.4538,39.4644 10.4538,39.131 3.5,38.5 Z"></path>
    </g>
    <g>
      <path fill="#5d3aed" d="M 37.5,5.5 C 38.1667,5.5 38.8333,5.5 39.5,5.5C 40.172,6.26739 41.0053,6.93406 42,7.5C 43.6667,14.1667 41.3333,16.1667 35,13.5C 33.8366,10.0289 34.6699,7.36227 37.5,5.5 Z M 37.5,9.5 C 37.3691,10.3764 37.7025,11.0431 38.5,11.5C 39.6704,10.3061 39.337,9.63945 37.5,9.5 Z"></path>
    </g>
</symbol>

<symbol xmlns="http://www.w3.org/2000/svg" version="1.1" xmlns:xlink="http://www.w3.org/1999/xlink" viewBox="0 0 50px 50px" id="design">
    <g>
      <path fill="#5c3aee" d="M 25.5,3.5 C 26.9717,5.13431 28.6383,6.63431 30.5,8C 27.5721,12.7098 24.9054,12.5432 22.5,7.5C 23.9095,6.43052 24.9095,5.09719 25.5,3.5 Z"></path>
    </g>
    <g>
      <path fill="#5d3aed" d="M 15.5,7.5 C 21.1004,8.94329 21.6004,11.2766 17,14.5C 15.5,13.6667 14.3333,12.5 13.5,11C 14.4295,9.9231 15.0962,8.75644 15.5,7.5 Z"></path>
    </g>
    <g>
      <path fill="#5d3aed" d="M 6.5,8.5 C 8.97747,8.05078 10.9775,8.71745 12.5,10.5C 10.604,11.4656 8.60395,11.7989 6.5,11.5C 6.5,18.5 6.5,25.5 6.5,32.5C 18.5,32.5 30.5,32.5 42.5,32.5C 42.5,25.5 42.5,18.5 42.5,11.5C 40.396,11.7989 38.396,11.4656 36.5,10.5C 37.1709,9.05421 38.3376,8.38754 40,8.5C 42.3052,8.48409 43.9718,9.48409 45,11.5C 45.6667,20.1667 45.6667,28.8333 45,37.5C 41.8028,42.5265 40.9695,41.8598 42.5,35.5C 37.1667,35.5 31.8333,35.5 26.5,35.5C 26.5,36.5 26.5,37.5 26.5,38.5C 25.1667,38.5 23.8333,38.5 22.5,38.5C 22.5,37.5 22.5,36.5 22.5,35.5C 17.1667,35.5 11.8333,35.5 6.5,35.5C 6.33003,36.8221 6.66337,37.9887 7.5,39C 18.5151,39.1676 29.5151,39.6676 40.5,40.5C 36.8776,41.3253 33.211,41.8253 29.5,42C 30.938,42.2189 32.2713,42.7189 33.5,43.5C 33.2907,44.086 32.9574,44.586 32.5,45C 27.1667,45.6667 21.8333,45.6667 16.5,45C 16.0426,44.586 15.7093,44.086 15.5,43.5C 16.7287,42.7189 18.062,42.2189 19.5,42C 14.8333,41.6667 10.1667,41.3333 5.5,41C 5,40.5 4.5,40 4,39.5C 3.33333,30.1667 3.33333,20.8333 4,11.5C 4.69794,10.3094 5.53128,9.30943 6.5,8.5 Z"></path>
    </g>
    <g>
      <path fill="#5e39ee" d="M 32.5,9.5 C 38.3559,11.6428 38.6892,14.3095 33.5,17.5C 32.6143,16.675 32.281,15.675 32.5,14.5C 28.5,13.8333 28.5,13.1667 32.5,12.5C 32.5,11.5 32.5,10.5 32.5,9.5 Z"></path>
    </g>
    <g>
      <path fill="#5d3aed" d="M 39.5,20.5 C 38.6043,19.4937 37.9377,19.4937 37.5,20.5C 31.4908,20.3338 25.4908,20.5005 19.5,21C 25.1569,21.4994 30.8236,21.6661 36.5,21.5C 30.1667,22.8333 23.8333,22.8333 17.5,21.5C 16.8333,20.1667 16.1667,20.1667 15.5,21.5C 14.596,22.209 14.2627,23.209 14.5,24.5C 10.0628,24.6946 8.39616,22.8612 9.5,19C 14.5,18.8333 19.5,18.6667 24.5,18.5C 29.8806,18.5058 34.8806,19.1725 39.5,20.5 Z"></path>
    </g>
    <g>
      <path fill="#5d3aee" d="M 39.5,20.5 C 40.2589,22.6657 39.2589,24.1657 36.5,25C 38.5268,26.3957 38.8602,28.0624 37.5,30C 28.4653,30.7481 19.4653,30.5815 10.5,29.5C 10.8087,26.6545 12.4754,25.1545 15.5,25C 15.2716,24.6012 14.9382,24.4346 14.5,24.5C 14.2627,23.209 14.596,22.209 15.5,21.5C 16.1667,21.5 16.8333,21.5 17.5,21.5C 23.8333,22.8333 30.1667,22.8333 36.5,21.5C 37.1667,21.5 37.5,21.1667 37.5,20.5C 37.9377,19.4937 38.6043,19.4937 39.5,20.5 Z"></path>
    </g>
</symbol>

<symbol xmlns="http://www.w3.org/2000/svg" version="1.1" xmlns:xlink="http://www.w3.org/1999/xlink" viewBox="0 0 64px 64px" id="backend">
    <g>
      <path fill="#3660ff" d="M 40.5,9.5 C 39.1667,10.1667 37.8333,10.8333 36.5,11.5C 35.0735,9.8516 34.2401,7.8516 34,5.5C 29.5155,3.79708 27.3488,5.46375 27.5,10.5C 25.5,10.5 23.5,10.5 21.5,10.5C 22.531,9.75147 23.6976,9.0848 25,8.5C 25.487,1.8693 28.987,-0.297362 35.5,2C 37.0738,3.82586 37.9071,5.99253 38,8.5C 38.6708,9.25244 39.5041,9.58577 40.5,9.5 Z"></path>
    </g>
    <g>
      <path fill="#3f5cff" d="M 55.5,14.5 C 54.5,14.5 53.5,14.5 52.5,14.5C 51.5423,13.0384 50.3756,11.7051 49,10.5C 46.6954,12.9305 43.8621,13.9305 40.5,13.5C 40.1667,13.5 39.8333,13.5 39.5,13.5C 39.1583,12.6618 38.4916,12.3284 37.5,12.5C 37.5,11.8333 37.1667,11.5 36.5,11.5C 37.8333,10.8333 39.1667,10.1667 40.5,9.5C 42.7376,10.5777 44.7376,10.0777 46.5,8C 51.574,7.23532 54.574,9.40199 55.5,14.5 Z"></path>
    </g>
    <g>
      <path fill="#445bff" d="M 21.5,10.5 C 23.5,10.5 25.5,10.5 27.5,10.5C 26.8333,11.1667 26.1667,11.8333 25.5,12.5C 24.5084,12.3284 23.8417,12.6618 23.5,13.5C 23.1667,13.5 22.8333,13.5 22.5,13.5C 19.1379,13.9305 16.3046,12.9305 14,10.5C 12.6244,11.7051 11.4577,13.0384 10.5,14.5C 9.83333,15.1667 9.16667,15.8333 8.5,16.5C 7.36489,10.4595 10.0316,7.62617 16.5,8C 17.9101,9.37171 19.5767,10.205 21.5,10.5 Z"></path>
    </g>
    <g>
      <path fill="#7149f1" d="M 25.5,12.5 C 29.5,12.5 33.5,12.5 37.5,12.5C 37.8417,13.3382 38.5084,13.6716 39.5,13.5C 39.8333,13.5 40.1667,13.5 40.5,13.5C 43.8333,16.1667 46.8333,19.1667 49.5,22.5C 49.5,22.8333 49.5,23.1667 49.5,23.5C 49.3284,24.4916 49.6618,25.1583 50.5,25.5C 50.5,27.1667 50.5,28.8333 50.5,30.5C 49.2223,30.7822 48.2223,31.4489 47.5,32.5C 48.1216,25.6251 45.455,20.4585 39.5,17C 31.3435,13.9325 24.3435,15.4325 18.5,21.5C 17.1667,21.5 15.8333,21.5 14.5,21.5C 16.8605,18.4728 19.5271,15.8062 22.5,13.5C 22.8333,13.5 23.1667,13.5 23.5,13.5C 24.4916,13.6716 25.1583,13.3382 25.5,12.5 Z"></path>
    </g>
    <g>
      <path fill="#634eff" d="M 10.5,14.5 C 12.9819,16.5027 13.9819,19.1694 13.5,22.5C 13.5,22.8333 13.5,23.1667 13.5,23.5C 12.6618,23.8417 12.3284,24.5084 12.5,25.5C 10.3486,27.7184 7.68194,29.0517 4.5,29.5C 3.79105,28.596 2.79105,28.2627 1.5,28.5C 1.9528,27.5416 2.61947,26.7083 3.5,26C 9.80276,25.2542 11.4694,22.0875 8.5,16.5C 9.16667,15.8333 9.83333,15.1667 10.5,14.5 Z"></path>
    </g>
    <g>
      <path fill="#5f4eff" d="M 52.5,14.5 C 53.5,14.5 54.5,14.5 55.5,14.5C 54.5588,16.4664 53.5588,18.4664 52.5,20.5C 53.0736,22.0589 53.7402,23.5589 54.5,25C 56.3817,25.1981 58.0484,25.6981 59.5,26.5C 56.8333,26.5 54.1667,26.5 51.5,26.5C 51.5,25.8333 51.1667,25.5 50.5,25.5C 50.6716,24.5084 50.3382,23.8417 49.5,23.5C 49.5,23.1667 49.5,22.8333 49.5,22.5C 49.0181,19.1694 50.0181,16.5027 52.5,14.5 Z"></path>
    </g>
    <g>
      <path fill="#6c48ff" d="M 21.5,30.5 C 20.2921,31.2341 18.9587,31.5674 17.5,31.5C 19.0713,28.2559 21.4046,25.5892 24.5,23.5C 25.2868,24.2421 25.9535,25.0754 26.5,26C 24.9625,27.7073 23.2959,29.2073 21.5,30.5 Z"></path>
    </g>
    <g>
      <path fill="#7a43fe" d="M 51.5,26.5 C 54.1667,26.5 56.8333,26.5 59.5,26.5C 60.1174,26.6107 60.6174,26.944 61,27.5C 63.3624,34.622 60.8624,38.2887 53.5,38.5C 52.5,38.5 51.5,38.5 50.5,38.5C 50.5,38.1667 50.5,37.8333 50.5,37.5C 52.2214,35.3057 54.5547,34.139 57.5,34C 58.8333,32.3333 58.8333,30.6667 57.5,29C 55.1484,28.7599 53.1484,27.9265 51.5,26.5 Z"></path>
    </g>
    <g>
      <path fill="#7e41fe" d="M 1.5,28.5 C 2.79105,28.2627 3.79105,28.596 4.5,29.5C 4.34332,30.8734 4.50999,32.2068 5,33.5C 7.41521,34.1319 9.58187,35.1319 11.5,36.5C 8.9407,36.1984 6.60737,36.5318 4.5,37.5C 3.54163,37.0472 2.7083,36.3805 2,35.5C 1.50335,33.1902 1.33669,30.8568 1.5,28.5 Z"></path>
    </g>
    <g>
      <path fill="#8040ff" d="M 21.5,30.5 C 22.5434,33.0562 24.2101,35.2228 26.5,37C 25.9535,37.9246 25.2868,38.7579 24.5,39.5C 21.4046,37.4108 19.0713,34.7441 17.5,31.5C 18.9587,31.5674 20.2921,31.2341 21.5,30.5 Z"></path>
    </g>
    <g>
      <path fill="#7b44fe" d="M 33.5,20.5 C 34.5,20.5 35.5,20.5 36.5,20.5C 34.6491,27.5555 32.4824,34.5555 30,41.5C 28.8173,42.731 27.6507,42.731 26.5,41.5C 29.0426,34.5388 31.376,27.5388 33.5,20.5 Z"></path>
    </g>
    <g>
      <path fill="#7b43ff" d="M 37.5,23.5 C 47.6722,28.1951 48.0055,33.5285 38.5,39.5C 37.7132,38.7579 37.0465,37.9246 36.5,37C 38.3513,35.3163 40.018,33.4829 41.5,31.5C 40.018,29.5171 38.3513,27.6837 36.5,26C 37.2524,25.3292 37.5858,24.4959 37.5,23.5 Z"></path>
    </g>
    <g>
      <path fill="#a877f6" d="M 14.5,21.5 C 15.8333,21.5 17.1667,21.5 18.5,21.5C 15.3362,27.1272 14.6695,33.1272 16.5,39.5C 15.5,39.5 14.5,39.5 13.5,39.5C 13.6716,38.5084 13.3382,37.8417 12.5,37.5C 12.5,33.5 12.5,29.5 12.5,25.5C 13.3382,25.1583 13.6716,24.4916 13.5,23.5C 13.5,23.1667 13.5,22.8333 13.5,22.5C 14.1667,22.5 14.5,22.1667 14.5,21.5 Z"></path>
    </g>
    <g>
      <path fill="#b884f9" d="M 50.5,30.5 C 50.5,32.8333 50.5,35.1667 50.5,37.5C 49.6618,37.8417 49.3284,38.5084 49.5,39.5C 49.5,39.8333 49.5,40.1667 49.5,40.5C 48.8333,41.1667 48.1667,41.8333 47.5,42.5C 46.209,42.7373 45.209,42.404 44.5,41.5C 46.4848,38.8791 47.4848,35.8791 47.5,32.5C 48.2223,31.4489 49.2223,30.7822 50.5,30.5 Z"></path>
    </g>
    <g>
      <path fill="#8f39fe" d="M 4.5,37.5 C 6.60737,36.5318 8.9407,36.1984 11.5,36.5C 11.5,37.1667 11.8333,37.5 12.5,37.5C 12.3284,38.4916 12.6618,39.1583 13.5,39.5C 13.5,39.8333 13.5,40.1667 13.5,40.5C 13.7845,42.4147 13.4511,44.0813 12.5,45.5C 11.5,45.5 10.5,45.5 9.5,45.5C 11.1173,40.631 9.45064,37.9644 4.5,37.5 Z"></path>
    </g>
    <g>
      <path fill="#9737ff" d="M 50.5,38.5 C 51.5,38.5 52.5,38.5 53.5,38.5C 52.0373,41.9274 52.7039,44.9274 55.5,47.5C 54.1667,47.5 52.8333,47.5 51.5,47.5C 49.8372,45.5615 49.1706,43.2282 49.5,40.5C 49.5,40.1667 49.5,39.8333 49.5,39.5C 50.1667,39.5 50.5,39.1667 50.5,38.5 Z"></path>
    </g>
    <g>
      <path fill="#d7a1fd" d="M 13.5,40.5 C 13.5,40.1667 13.5,39.8333 13.5,39.5C 14.5,39.5 15.5,39.5 16.5,39.5C 22.3778,47.3779 30.0444,49.5446 39.5,46C 41.6592,44.9409 43.3259,43.4409 44.5,41.5C 45.209,42.404 46.209,42.7373 47.5,42.5C 45.4728,45.1939 43.1395,47.5272 40.5,49.5C 40.1667,49.5 39.8333,49.5 39.5,49.5C 38.5084,49.3284 37.8417,49.6618 37.5,50.5C 33.5,50.5 29.5,50.5 25.5,50.5C 25.1583,49.6618 24.4916,49.3284 23.5,49.5C 23.1667,49.5 22.8333,49.5 22.5,49.5C 19.1667,46.8333 16.1667,43.8333 13.5,40.5 Z"></path>
    </g>
    <g>
      <path fill="#a92fff" d="M 9.5,45.5 C 10.5,45.5 11.5,45.5 12.5,45.5C 12.4894,47.0174 11.8228,48.1841 10.5,49C 11.7101,50.0391 12.7101,51.2058 13.5,52.5C 12.8333,53.1667 12.1667,53.8333 11.5,54.5C 7.45373,52.0058 6.78706,49.0058 9.5,45.5 Z"></path>
    </g>
    <g>
      <path fill="#ad2dff" d="M 22.5,49.5 C 22.8333,49.5 23.1667,49.5 23.5,49.5C 23.8417,50.3382 24.5084,50.6716 25.5,50.5C 26.853,51.5261 27.853,52.8595 28.5,54.5C 27.391,54.5569 26.391,54.8902 25.5,55.5C 24.2642,53.9572 22.5976,52.9572 20.5,52.5C 18.4771,53.5401 16.4771,54.5401 14.5,55.5C 13.4163,55.315 12.4163,54.9817 11.5,54.5C 12.1667,53.8333 12.8333,53.1667 13.5,52.5C 15.9966,50.1289 18.9966,49.1289 22.5,49.5 Z"></path>
    </g>
    <g>
      <path fill="#ae2eff" d="M 39.5,49.5 C 39.8333,49.5 40.1667,49.5 40.5,49.5C 43.8306,49.0181 46.4973,50.0181 48.5,52.5C 46.901,52.2322 45.5676,52.5655 44.5,53.5C 41.7563,52.5234 39.423,53.1901 37.5,55.5C 36.609,54.8902 35.609,54.5569 34.5,54.5C 35.147,52.8595 36.147,51.5261 37.5,50.5C 38.4916,50.6716 39.1583,50.3382 39.5,49.5 Z"></path>
    </g>
    <g>
      <path fill="#ad2bff" d="M 51.5,47.5 C 52.8333,47.5 54.1667,47.5 55.5,47.5C 54.3487,54.5723 50.682,56.5723 44.5,53.5C 45.5676,52.5655 46.901,52.2322 48.5,52.5C 51.0469,51.3787 52.0469,49.712 51.5,47.5 Z"></path>
    </g>
    <g>
      <path fill="#be25ff" d="M 28.5,54.5 C 28.7007,58.35 30.5341,59.35 34,57.5C 34.4828,56.552 34.6495,55.552 34.5,54.5C 35.609,54.5569 36.609,54.8902 37.5,55.5C 37.8423,59.8243 35.8423,61.8243 31.5,61.5C 27.1577,61.8243 25.1577,59.8243 25.5,55.5C 26.391,54.8902 27.391,54.5569 28.5,54.5 Z"></path>
    </g>
</symbol>

 <symbol xmlns="http://www.w3.org/2000/svg" xmlns:xlink="http://www.w3.org/1999/xlink" viewBox="0,0,256,256" id="postman">
    <g fill="#5e3bee" fill-rule="nonzero" stroke="none" stroke-width="1" stroke-linecap="butt" stroke-linejoin="miter" stroke-miterlimit="10" stroke-dasharray="" stroke-dashoffset="0" font-family="none" font-weight="none" font-size="none" text-anchor="none">
      <g transform="scale(4,4)">
        <path d="M31.88086,3c-4.21938,0.01364 -8.50134,0.95286 -12.55078,2.91992c-6.914,3.359 -12.20966,9.3278 -14.72266,16.5918c-5.244,15.126 2.76753,31.63786 17.89453,36.88086c15.127,5.243 31.63881,-2.76853 36.88281,-17.89453c2.544,-7.27 2.06869,-15.25778 -1.32031,-22.17578c-5.02766,-10.34784 -15.40072,-16.35713 -26.18359,-16.32227zM31.5332,4.98633c3.08043,-0.05333 6.22252,0.42447 9.30273,1.49219c6.761,2.344 12.31545,7.27684 15.43945,13.71484c3.125,6.438 3.56175,13.85519 1.21875,20.61719c-4.881,14.08 -20.25103,21.5382 -34.33203,16.6582c-14.081,-4.88 -21.5382,-20.25103 -16.6582,-34.33203c3.8125,-11.00078 14.02775,-17.95993 25.0293,-18.15039zM31.63867,8.31836c-0.835,-0.012 -1.66995,0.02161 -2.50195,0.09961c-0.552,0.018 -0.98384,0.48025 -0.96484,1.03125c0.018,0.552 0.48025,0.98384 1.03125,0.96484c0.041,-0.001 0.084,-0.00472 0.125,-0.01172c0.752,-0.078 1.50672,-0.11628 2.26172,-0.11328c0.547,-0.076 0.92756,-0.58095 0.85156,-1.12695c-0.059,-0.424 -0.38173,-0.76375 -0.80273,-0.84375zM25.05273,9.24219c-0.12908,-0.01417 -0.26423,-0.00239 -0.39648,0.03711c-7.037,2.141 -12.63059,7.50817 -15.05859,14.45117c-0.196,0.516 0.06408,1.09306 0.58008,1.28906c0.516,0.196 1.09306,-0.06213 1.28906,-0.57812c0.007,-0.017 0.01258,-0.03473 0.01758,-0.05273l-0.03516,0.03516c2.215,-6.358 7.33825,-11.27647 13.78125,-13.23047c0.529,-0.158 0.82792,-0.71514 0.66992,-1.24414c-0.1185,-0.39675 -0.46042,-0.66452 -0.84766,-0.70703zM44.9375,14.75c-2.382,0 -4.31055,1.9305 -4.31055,4.3125c0,2.382 1.92955,4.31445 4.31055,4.31445c0.614,0 1.19561,-0.13323 1.72461,-0.36523l-3.16406,-3.26953c-0.066,-0.068 -0.10166,-0.16086 -0.09766,-0.25586c0.003,-0.095 0.04619,-0.18505 0.11719,-0.24805l4.01758,-3.59766c-0.724,-0.551 -1.61766,-0.89062 -2.59766,-0.89062zM48.0625,16.10547l-3.80859,3.41211l3.04492,3.14648c1.173,-0.771 1.94922,-2.09256 1.94922,-3.60156c0,-1.148 -0.45455,-2.18403 -1.18555,-2.95703zM47.98242,18.15234c0.13481,-0.00811 0.26753,0.06241 0.33203,0.19141c0.018,0.037 0.44505,0.9185 -0.12695,2.0625c-0.061,0.123 -0.1845,0.19336 -0.3125,0.19336c-0.052,0 -0.10625,-0.01211 -0.15625,-0.03711c-0.173,-0.086 -0.24325,-0.29475 -0.15625,-0.46875c0.409,-0.817 0.136,-1.41641 0.125,-1.44141c-0.082,-0.173 -0.00989,-0.38084 0.16211,-0.46484c0.043,-0.02075 0.08787,-0.03245 0.13281,-0.03516zM39.4082,21.6582c-0.643,0.02775 -1.3727,0.1838 -2.1582,0.4668c-3.125,1.125 -6.875,5.25 -6.875,5.25l-3.00781,3.48828l2.46875,2.42578l11.20898,-11.32617c-0.4375,-0.231 -0.99372,-0.33244 -1.63672,-0.30469zM41.60156,22.39648l-11.26758,11.38477l1.45508,1.43164l8.46094,-8.58203c0.025,-0.024 1.84977,-1.82483 1.75977,-3.42383c-0.083,-0.317 -0.2182,-0.59155 -0.4082,-0.81055zM41.77148,25.87695c-0.486,0.713 -0.9863,1.209 -1.0293,1.25l-8.45508,8.57422l1.12305,1.10547c0.114,-0.104 0.22389,-0.20064 0.33789,-0.30664c6.093,-5.65 7.37544,-8.06005 8.02344,-10.62305zM26.9082,31.39453l-2.7832,3.23047l5.10352,-0.94922zM29.7207,34.1582l-1.75781,1.82031l3.12109,-0.48047zM31.70508,36.11133l-4.54492,0.69922l-8.33203,8.62305l3.49609,3.4375l0.17578,0.00391l-0.875,-3.625c0,0 4.82058,-2.18961 11.26758,-7.97461zM51.74219,37.12109c-0.3832,0.06998 -0.70492,0.36138 -0.79492,0.76563c-0.113,0.507 0.17978,1.01687 0.67578,1.17188l1.92969,0.51563c0.539,0.12 1.07336,-0.21881 1.19336,-0.75781c0.113,-0.507 -0.18173,-1.01687 -0.67773,-1.17187l-1.92773,-0.51562c-0.13475,-0.03 -0.2707,-0.03114 -0.39844,-0.00781zM50.04297,41.82813c-0.38813,-0.03413 -0.7772,0.16209 -0.9707,0.52734c-0.246,0.464 -0.09053,1.03941 0.35547,1.31641l1.73047,0.99609c0.482,0.275 1.09609,0.107 1.37109,-0.375c0.275,-0.482 0.107,-1.09609 -0.375,-1.37109l-1.73047,-0.98047c-0.122,-0.06475 -0.25148,-0.10191 -0.38086,-0.11328zM46.83203,45.83203c-0.25563,0 -0.50958,0.09797 -0.70508,0.29297c-0.39,0.39 -0.39,1.02211 0,1.41211l1.41211,1.41406c0.39,0.39 1.02211,0.39 1.41211,0c0.39,-0.39 0.39,-1.02406 0,-1.41406l-1.41211,-1.41211c-0.195,-0.195 -0.45141,-0.29297 -0.70703,-0.29297zM18.3418,45.9375l-2.7168,2.8125l5.68359,0.10352zM42.66992,48.9375c-0.12847,0.01628 -0.25405,0.05795 -0.37305,0.12695c-0.475,0.278 -0.63733,0.88923 -0.36133,1.36523l0.99023,1.72266c0.259,0.488 0.86261,0.67306 1.34961,0.41406c0.488,-0.259 0.67306,-0.86261 0.41406,-1.34961c-0.011,-0.02 -0.0212,-0.04155 -0.0332,-0.06055l-0.99609,-1.73047c-0.2085,-0.357 -0.60483,-0.53713 -0.99023,-0.48828zM38.23633,50.88672c-0.12845,-0.0188 -0.26103,-0.01327 -0.39453,0.02148c-0.002,0.001 -0.00291,0 -0.00391,0c-0.533,0.142 -0.85198,0.69161 -0.70898,1.22461c0.001,0.002 0.00095,0.00286 0.00195,0.00586l0.51563,1.92969c0.165,0.527 0.72595,0.8193 1.25195,0.6543c0.496,-0.155 0.79073,-0.66292 0.67773,-1.16992l-0.51562,-1.92969c-0.10425,-0.4005 -0.43886,-0.67994 -0.82422,-0.73633z"></path>
      </g>
    </g>
</symbol>

</svg>