<svg width="0" height="0" class="hidden">
   <symbol xmlns="http://www.w3.org/2000/svg" viewBox="0 0 32 32" id="html5">
    <path d="m5.219 4 .093 1.094 1.75 19.781.063.688.656.187 7.938 2.219.25.062.281-.062 7.938-2.188.656-.187.062-.688 1.782-19.812.093-1.063h-1.093L6.313 4Zm2.187 2 17.188.031-1.625 18L16 25.97 9 24.03Zm2.407 3 .656 7.469h8.562l-.281 3.218-2.75.75h-.031l-2.75-.75-.156-2.062h-2.5l.343 3.969L15.97 23H16l5.063-1.406L21.75 14h-9.031l-.219-2.531h9.469L22.187 9Zm0 0"></path>
  </symbol>

   <symbol xmlns="http://www.w3.org/2000/svg" viewBox="0 0 32 32" id="css3">
    <path d="m6.668 4-.867 4.453h18.12l-.589 2.879H5.227l-.88 4.441h18.118l-1.012 5.079-7.305 2.414-6.335-2.414.44-2.184H3.802L2.746 24l10.469 4 12.066-4 1.598-8.04.32-1.612L29.254 4Zm0 0"></path>
  </symbol>

  <symbol xmlns="http://www.w3.org/2000/svg" viewBox="0 0 32 32" id="javascript">
    <path d="M0 0h32v32H0Zm29.379 24.367c-.234-1.46-1.184-2.687-4.004-3.828-.98-.46-2.074-.781-2.395-1.523-.125-.438-.14-.68-.062-.938.2-.863 1.219-1.121 2.02-.879.519.156 1 .559 1.3 1.2 1.38-.903 1.38-.903 2.34-1.5-.36-.563-.539-.801-.781-1.044-.84-.937-1.957-1.418-3.777-1.375l-.942.118c-.902.218-1.758.699-2.281 1.34-1.52 1.722-1.078 4.722.762 5.96 1.82 1.36 4.48 1.66 4.82 2.942.32 1.558-1.16 2.058-2.621 1.879-1.082-.239-1.68-.782-2.34-1.782l-2.441 1.403c.28.64.601.918 1.082 1.476 2.32 2.344 8.117 2.223 9.16-1.336.039-.12.32-.94.097-2.203Zm-11.977-9.66h-3c0 2.586-.011 5.152-.011 7.742 0 1.64.086 3.149-.184 3.613-.437.918-1.574.801-2.086.641-.527-.262-.797-.621-1.11-1.14-.081-.141-.144-.262-.167-.262L8.41 26.8c.406.84 1 1.562 1.766 2.023 1.14.68 2.672.899 4.277.54 1.043-.302 1.942-.923 2.414-1.88.68-1.242.535-2.761.528-4.464.015-2.739 0-5.477 0-8.239Zm0 0"></path>
  </symbol>

   <symbol xmlns="http://www.w3.org/2000/svg" viewBox="0 0 32 32" id="typescript">
    <path d="M1.5 0C.668 0 0 .668 0 1.5v29c0 .832.668 1.5 1.5 1.5h29c.832 0 1.5-.668 1.5-1.5v-29c0-.832-.668-1.5-1.5-1.5Zm23.152 13c.813 0 1.535.05 2.168.148a8.66 8.66 0 0 1 1.742.454v3.277a5.142 5.142 0 0 0-.859-.48 6.363 6.363 0 0 0-.957-.348 7.254 7.254 0 0 0-1.898-.266c-.403 0-.766.035-1.094.113a2.75 2.75 0 0 0-.828.325 1.615 1.615 0 0 0-.528.496 1.175 1.175 0 0 0-.183.656c0 .258.07.496.207.703.137.207.336.406.59.594.254.183.562.367.93.547.363.18.773.363 1.234.554.625.262 1.187.543 1.687.836.5.297.926.63 1.285 1.004.356.371.63.797.817 1.278.191.476.285 1.035.285 1.668 0 .878-.164 1.613-.496 2.21a4.063 4.063 0 0 1-1.352 1.446 5.858 5.858 0 0 1-1.98.793c-.754.16-1.55.242-2.387.242-.824.004-1.644-.07-2.453-.219a7.476 7.476 0 0 1-2.016-.656v-3.508a6.717 6.717 0 0 0 4.317 1.598c.441 0 .832-.04 1.16-.117a2.72 2.72 0 0 0 .832-.336 1.42 1.42 0 0 0 .496-.504c.25-.465.211-1.028-.098-1.453a2.905 2.905 0 0 0-.714-.668 7.594 7.594 0 0 0-1.079-.59c-.44-.203-.89-.399-1.343-.582-1.223-.512-2.133-1.137-2.735-1.875-.601-.735-.902-1.63-.902-2.672 0-.82.164-1.52.492-2.11.328-.59.774-1.07 1.34-1.453a5.993 5.993 0 0 1 1.957-.835 10.017 10.017 0 0 1 2.363-.27ZM4.5 13.25h12.75v2.887h-4.574V29H9.05V16.137H4.5Zm0 0"></path>
  </symbol>

  <symbol xmlns="http://www.w3.org/2000/svg" viewBox="0 0 32 32" id="react">
    <path d="M26.137 11.074a25.121 25.121 0 0 0-1.012-.316c.055-.235.105-.465.156-.695.77-3.727.262-6.72-1.445-7.708-1.64-.94-4.324.04-7.035 2.403a15.2 15.2 0 0 0-.781.719 15.234 15.234 0 0 0-.52-.485C12.656 2.47 9.805 1.406 8.102 2.398c-1.641.954-2.125 3.77-1.438 7.297.066.348.14.692.23 1.043-.402.114-.792.239-1.164.367C2.395 12.262 0 14.085 0 15.977c0 1.949 2.55 3.906 6.02 5.093.28.094.562.188.847.266-.094.375-.172.746-.25 1.125-.656 3.469-.14 6.219 1.496 7.164 1.688.977 4.524-.023 7.285-2.445.22-.192.438-.39.657-.606.277.27.562.528.851.778 2.676 2.296 5.32 3.23 6.95 2.285 1.687-.973 2.238-3.93 1.527-7.532a58.74 58.74 0 0 0-.188-.843c.2-.055.39-.117.586-.18C29.387 19.887 32 17.957 32 15.977c0-1.895-2.46-3.735-5.863-4.903ZM17.68 5.77c2.328-2.028 4.496-2.82 5.484-2.25 1.055.605 1.461 3.054.797 6.273-.043.215-.086.418-.14.625a32.145 32.145 0 0 0-4.208-.66 31.077 31.077 0 0 0-2.664-3.32c.246-.231.48-.45.73-.668Zm-7.23 13.449c.32.543.644 1.086.988 1.617a27.65 27.65 0 0 1-2.899-.469c.274-.898.617-1.828 1.016-2.781.289.55.582 1.094.894 1.633Zm-1.895-7.52c.902-.199 1.86-.363 2.851-.488a34.34 34.34 0 0 0-.96 1.59c-.31.531-.61 1.074-.891 1.625a31.636 31.636 0 0 1-1-2.727Zm1.715 4.309c.41-.863.863-1.707 1.335-2.54.477-.831.989-1.636 1.528-2.429.937-.07 1.89-.11 2.867-.11.977 0 1.938.04 2.867.11.531.785 1.04 1.594 1.52 2.418a41.2 41.2 0 0 1 1.355 2.523 40.79 40.79 0 0 1-1.347 2.551c-.477.832-.98 1.637-1.512 2.438-.934.07-1.903.101-2.883.101s-1.93-.03-2.852-.09a37.544 37.544 0 0 1-1.535-2.437 40.352 40.352 0 0 1-1.343-2.535Zm11.285 3.199c.32-.55.62-1.105.914-1.668.398.906.75 1.824 1.054 2.766-.968.218-1.949.39-2.937.5.34-.524.656-1.063.969-1.598Zm.902-4.781a47.326 47.326 0 0 0-1.863-3.215c1.008.125 1.968.297 2.867.5a27.54 27.54 0 0 1-1.004 2.715Zm-6.445-7.031c.656.71 1.277 1.46 1.851 2.238a39.359 39.359 0 0 0-3.718 0 30.927 30.927 0 0 1 1.867-2.238Zm-7.25-3.832c1.05-.614 3.383.261 5.84 2.437.156.137.312.29.472.438a31.22 31.22 0 0 0-2.68 3.32 33.144 33.144 0 0 0-4.199.648c-.082-.32-.152-.644-.218-.969-.59-3.023-.204-5.304.785-5.874ZM7.23 20.038c-.261-.078-.52-.156-.773-.246-1.332-.418-2.844-1.082-3.937-1.95a2.796 2.796 0 0 1-1.176-1.866c0-1.145 1.976-2.61 4.824-3.602.355-.125.719-.238 1.082-.344a33.545 33.545 0 0 0 1.531 3.977 34.2 34.2 0 0 0-1.55 4.031Zm7.29 6.125a11.461 11.461 0 0 1-3.528 2.203 2.756 2.756 0 0 1-2.203.082c-.996-.574-1.406-2.781-.844-5.75.067-.347.14-.699.23-1.043 1.4.301 2.813.508 4.243.614a33.023 33.023 0 0 0 2.7 3.335c-.2.196-.4.383-.598.56Zm1.53-1.52a29.107 29.107 0 0 1-1.894-2.269c.602.023 1.219.04 1.844.04.645 0 1.273-.017 1.898-.048a26.563 26.563 0 0 1-1.847 2.278Zm8.169 1.876a2.775 2.775 0 0 1-1.032 1.957c-.992.574-3.113-.176-5.398-2.141-.266-.223-.527-.469-.797-.719a30.693 30.693 0 0 0 2.64-3.347 31.56 31.56 0 0 0 4.263-.657c.062.254.117.512.168.762.304 1.352.355 2.758.156 4.145Zm1.136-6.72c-.175.055-.347.114-.53.16a31.496 31.496 0 0 0-1.595-3.983 31.645 31.645 0 0 0 1.532-3.934c.324.094.636.195.937.293 2.914 1 4.957 2.488 4.957 3.625 0 1.226-2.18 2.809-5.3 3.84ZM16 18.864a2.862 2.862 0 1 0 0-5.726 2.862 2.862 0 1 0 0 5.726Zm0 0"></path>
  </symbol>

  <symbol xmlns="http://www.w3.org/2000/svg" viewBox="0 0 32 32" id="npm">
    <path d="M0 9.777v10.668h8.887v1.778H16v-1.778h16V9.777Zm8.887 8.887H7.113v-5.332H5.332v5.332h-3.55v-7.11h7.105Zm5.336 0v1.781h-3.555v-8.89h7.113v7.11Zm16 0h-1.774v-5.332h-1.781v5.332h-1.781v-5.332h-1.774v5.332h-3.558v-7.11h10.668Zm-16.004-5.332H16v3.559h-1.781Zm0 0"></path>
  </symbol>
  
  <symbol xmlns="http://www.w3.org/2000/svg" viewBox="0 0 32 32" id="yarn">
    <path d="M16 0C7.168 0 0 7.168 0 16s7.168 16 16 16 16-7.168 16-16S24.832 0 16 0Zm1.023 5.473c.247 0 .485.07.7.21.168.11.382.247 1.007 1.54.415-.118.625-.059.735-.028a.979.979 0 0 1 .617.5c.637 1.223.723 3.407.445 4.809-.32 1.64-1.007 2.703-1.507 3.434.433.437 1.039 1.199 1.488 2.433a6.6 6.6 0 0 1 .367 2.688c.273-.13.543-.278.8-.442.79-.488 1.985-1.222 3.403-1.238.953-.012 1.695.59 1.805 1.469a1.639 1.639 0 0 1-1.258 1.816c-.867.211-1.27.371-2.43 1.125-1.64 1.063-3.383 1.656-4.015 1.852a2.193 2.193 0 0 1-.938.457c-.984.242-4.355.422-4.62.422h-.063c-1.043 0-1.618-.32-1.934-.657-.879.438-2.012.254-2.828-.18a1.43 1.43 0 0 1-.774-1.535 1.622 1.622 0 0 1-.203-.261c-.218-.332-.707-1.246-.605-2.594.074-.965.738-1.824 1.172-2.281a7.35 7.35 0 0 1 .543-3.008c.41-.969 1.18-1.797 1.761-2.317-.425-.714-.859-1.82-.437-2.945.3-.8.547-1.246 1.09-1.441h-.004c.265-.098.515-.203.648-.344a4.54 4.54 0 0 1 3.063-1.469c.05-.125.105-.25.168-.379.41-.879.851-1.37 1.363-1.558.14-.051.29-.078.438-.078Zm.008.933c-.676.024-1.332 2.028-1.332 2.028s-1.695-.274-3.023 1.16c-.266.289-.625.445-.996.586-.106.039-.235.03-.555.894-.496 1.324.832 2.793.832 2.793s-1.578 1.121-2.168 2.508c-.644 1.527-.45 3.016-.45 3.016s-1.124.976-1.198 1.984c-.067.883.187 1.598.457 2.02.304.457.68.234.68.234s-.747.871-.048 1.242c.637.332 1.711.524 2.278-.05.414-.415.496-1.337.648-1.712.04-.086.16.149.281.266.13.125.352.258.352.258s-1.008.433-.594 1.422c.137.328.625.539 1.422.53.293-.007 3.551-.183 4.418-.394.5-.117.672-.375.672-.375s2.086-.578 3.996-1.812c1.223-.797 1.727-1.012 2.711-1.246.816-.2.762-1.465-.32-1.445-1.117.011-2.098.585-2.926 1.097-1.55.961-2.324.899-2.324.899l-.024-.043c-.105-.172.496-1.723-.18-3.57-.73-2.02-1.882-2.509-1.792-2.665.398-.664 1.386-1.73 1.78-3.707.235-1.199.173-3.168-.358-4.199-.098-.191-.977.32-.977.32s-.82-1.828-1.05-1.976a.358.358 0 0 0-.208-.063Zm0 0"></path>
  </symbol>


  <symbol xmlns="http://www.w3.org/2000/svg" viewBox="0 0 32 32" id="node-js">
    <path d="M15.996 32c-.426 0-.851-.113-1.226-.328l-3.918-2.317c-.582-.328-.297-.445-.106-.511.781-.27.938-.332 1.77-.805.09-.05.203-.031.293.023l3.007 1.786c.11.058.262.058.364 0l11.726-6.77a.369.369 0 0 0 .18-.316V9.227a.384.384 0 0 0-.184-.32L16.18 2.144a.349.349 0 0 0-.36 0L4.102 8.906a.384.384 0 0 0-.188.32v13.536c0 .129.074.25.188.312l3.21 1.856c1.743.87 2.81-.153 2.81-1.188v-13.36c0-.19.151-.335.343-.335h1.484c.188 0 .34.148.34.336v13.36c0 2.327-1.266 3.66-3.469 3.66-.68 0-1.215 0-2.703-.735l-3.078-1.77a2.472 2.472 0 0 1-1.227-2.136V9.227c0-.88.47-1.7 1.227-2.137L14.766.316c.742-.421 1.73-.421 2.464 0L28.957 7.09a2.48 2.48 0 0 1 1.23 2.137v13.535a2.48 2.48 0 0 1-1.23 2.136L17.23 31.672a2.473 2.473 0 0 1-1.234.328Zm9.469-13.344c0-2.531-1.711-3.207-5.317-3.683-3.64-.48-4.011-.73-4.011-1.582 0-.704.312-1.645 3.011-1.645 2.41 0 3.297.52 3.665 2.145a.338.338 0 0 0 .328.265h1.52a.352.352 0 0 0 .25-.11.353.353 0 0 0 .089-.26c-.238-2.798-2.098-4.102-5.852-4.102-3.343 0-5.34 1.41-5.34 3.777 0 2.566 1.985 3.277 5.196 3.594 3.84.375 4.137.937 4.137 1.691 0 1.313-1.051 1.871-3.524 1.871-3.101 0-3.785-.781-4.015-2.324a.34.34 0 0 0-.336-.285H13.75a.337.337 0 0 0-.34.336c0 1.976 1.074 4.332 6.207 4.332 3.719 0 5.848-1.461 5.848-4.02Zm0 0"></path>
  </symbol>

   <symbol xmlns="http://www.w3.org/2000/svg" viewBox="0 0 32 32" id="mongodb">
    <path d="M22.91 12.691c-1.683-7.414-5.656-9.851-6.082-10.78-.473-.657-.98-1.911-.98-1.911l-.004.066v.016h-.004c0 .02-.004.035-.004.05v.024h-.004v.067h-.004c-.004.011-.004.023-.004.035v.027h-.004c0 .008 0 .02-.004.028V.34l-.004.043v.004l-.015.066v.008l-.004.02V.5h-.004v.031h-.008v.024h-.004v.027h-.007v.027h-.004v.02h-.008v.02h-.004v.023h-.008v.02h-.008V.71h-.004v.02h-.004v.015h-.003l-.004.012v.008c-.004.004-.004.007-.004.011l-.012.028v.004c-.004.003-.008.003-.008.007v.012h-.008V.84h-.004v.008h-.003v.015h-.008v.02h-.008v.004h-.004v.011h-.004V.91h-.008v.012h-.007v.015h-.004V.95h-.008v.008h-.004v.016h-.008v.011h-.004v.008h-.004V1h-.008v.012h-.007v.008h-.004v.011h-.008v.016h-.008v.004h-.004v.012h-.008v.003h-.004v.016h-.003v.004h-.008v.012h-.004v.007h-.004l-.004.004v.008h-.004v.004h-.004c0 .004-.004.008-.004.012v.004h-.004l-.015.023-.012.016-.004.004v.004h-.004l-.004.004v.003l-.004.004v.008h-.007v.004h-.004v.008h-.008v.012h-.004v.003h-.008v.008h-.004v.012h-.008v-.012h-.003v.008h-.008v.008h-.004v.012h-.008v.004h-.008v.007h-.004v.004h-.004v.012h-.007v.004h-.008v.012h-.004v.004h-.008v.007h-.004v.012h-.004v.004h-.008v.008h-.007v.004h-.004v.004h-.008v.015h-.004v.004h-.008v.004h-.004v.008h-.008v.008h-.003v.004H15.3v.003h-.004v.016h-.008v.008h-.008v.004h-.004v.004h-.007v.008h-.004v.007h-.008v.008h-.004v.004h-.008v.008h-.004v.008h-.004v.004h-.008v.007h-.003v.008h-.008v.004h-.004V1.5h-.004l-.004.008-.008.004v.008h-.004v.003h-.008v.008h-.003v.004h-.004l-.004.004v.004h-.004v.008h-.004c-.008.008-.008.012-.02.02-.023.019-.046.034-.066.058l-.031.023c-.024.016-.043.036-.067.051v.004l-.097.082v-.004h-.004c-.074.063-.156.137-.246.215h-.004c-.227.2-.492.45-.793.758l-.024.023c-1.812 1.88-4.671 5.785-4.972 12.106-.028.52-.02 1.027.008 1.523v.012c.144 2.488.925 4.617 1.906 6.344.387.687.808 1.312 1.234 1.87v.005c1.469 1.937 2.969 3.09 3.352 3.367.586 1.363.531 3.707.531 3.707l.86.285s-.176-2.27.07-3.363c.078-.344.258-.633.465-.883.37-.266.726-.55 1.062-.86.023-.023.04-.046.059-.07 2.027-1.89 5.816-6.547 4.52-14.133Zm0 0"></path>
  </symbol>


  <symbol xmlns="http://www.w3.org/2000/svg" viewBox="0 0 32 32" id="git">
    <path d="M31.395 14.574 17.422.602a2.065 2.065 0 0 0-2.918 0l-2.895 2.902 3.68 3.68a2.449 2.449 0 0 1 2.52.586c.687.687.878 1.68.586 2.535l3.543 3.547a2.445 2.445 0 0 1 2.53.578c.966.96.966 2.511 0 3.472-.956.961-2.507.961-3.464 0a2.461 2.461 0 0 1-.54-2.66l-3.316-3.3v8.699c.235.113.454.27.649.464.95.961.95 2.508 0 3.465-.957.961-2.52.961-3.477 0a2.443 2.443 0 0 1 0-3.465 2.49 2.49 0 0 1 .805-.539v-8.785a2.45 2.45 0 0 1-1.328-3.215L10.18 4.934.602 14.508c-.801.808-.801 2.113 0 2.918l13.972 13.969c.805.808 2.11.808 2.914 0l13.907-13.907a2.054 2.054 0 0 0 0-2.914"></path>
  </symbol>

   <symbol xmlns="http://www.w3.org/2000/svg" viewBox="0 0 32 32" id="github">
    <path d="M16 .395c-8.84 0-16 7.164-16 16 0 7.07 4.586 13.066 10.941 15.18.797.152 1.094-.345 1.094-.766 0-.383-.015-1.387-.023-2.723-4.45.965-5.387-2.145-5.387-2.145-.73-1.847-1.781-2.34-1.781-2.34-1.45-.992.113-.972.113-.972 1.606.11 2.45 1.648 2.45 1.648 1.425 2.446 3.745 1.739 4.66 1.328.144-1.035.554-1.738 1.011-2.14-3.55-.399-7.285-1.774-7.285-7.906 0-1.746.617-3.172 1.644-4.293-.18-.403-.718-2.032.141-4.235 0 0 1.34-.43 4.402 1.64a15.319 15.319 0 0 1 4-.538c1.36.008 2.72.183 4 .539 3.04-2.07 4.38-1.64 4.38-1.64.859 2.202.32 3.831.16 4.234 1.02 1.12 1.64 2.546 1.64 4.293 0 6.148-3.742 7.5-7.3 7.894.558.48 1.078 1.461 1.078 2.961 0 2.14-.02 3.86-.02 4.379 0 .422.281.922 1.102.762C27.422 29.457 32 23.457 32 16.395c0-8.836-7.164-16-16-16"></path>
  </symbol>

  <symbol xmlns="http://www.w3.org/2000/svg" viewBox="0 0 32 32" id="figma">
    <path d="M21.137 11.977H15.02V0h6.117a5.99 5.99 0 0 1 5.984 5.988c0 3.301-2.683 5.989-5.984 5.989Zm-4.157-1.965h4.157a4.028 4.028 0 0 0 4.023-4.024 4.031 4.031 0 0 0-4.023-4.027H16.98Zm0 1.965h-6.117A5.993 5.993 0 0 1 4.88 5.988C4.879 2.688 7.563 0 10.863 0h6.117ZM10.863 1.96A4.031 4.031 0 0 0 6.84 5.988a4.028 4.028 0 0 0 4.023 4.024h4.157V1.96Zm6.117 20.027h-6.117A5.993 5.993 0 0 1 4.88 16c0-3.3 2.684-5.988 5.984-5.988h6.117Zm-6.117-10.011A4.028 4.028 0 0 0 6.84 16a4.028 4.028 0 0 0 4.023 4.023h4.157v-8.046ZM10.895 32c-3.317 0-6.02-2.684-6.02-5.988 0-3.301 2.688-5.985 5.988-5.985h6.117v5.922c0 3.336-2.73 6.051-6.085 6.051Zm-.032-10.012a4.023 4.023 0 0 0-4.023 4.024c0 2.218 1.82 4.027 4.058 4.027 2.274 0 4.122-1.836 4.122-4.094v-3.957Zm10.274 0h-.133A5.993 5.993 0 0 1 15.02 16c0-3.3 2.683-5.988 5.984-5.988h.133c3.3 0 5.984 2.687 5.984 5.988 0 3.3-2.683 5.988-5.984 5.988Zm-.13-10.011A4.029 4.029 0 0 0 16.98 16a4.031 4.031 0 0 0 4.028 4.023h.129A4.031 4.031 0 0 0 25.164 16a4.031 4.031 0 0 0-4.027-4.023Zm0 0"></path>
  </symbol>


  <symbol xmlns="http://www.w3.org/2000/svg" viewBox="0 0 32 32" id="styled-components">
    <path d="m21.617 9.016-.097.523c-.157.984-.098 1.27.324 1.637l.41.336-.426 1.89c-.254 1.13-.562 2.075-.762 2.387-.168.266-.363.66-.406.875-.07.25-.312.508-.68.73-.324.184-.96.68-1.41 1.075-.36.324-.61.523-.742.61l-.441.347c-.14.226-.219.41-.25.547-.032.144-.016.238.031.308a.37.37 0 0 0 .223.14c.125.032.25.04.379.032.285-.02.566-.07.84-.148l.23-.07c.101-.122.328-.352.73-.75 1.075-1.06 1.485-1.637 1.059-1.481-.152.055-.082-.086.183-.367.567-.551.891-1.383 1.567-3.992.535-2.06.535-2.09.933-2.09.184 0 .708.03.708.03v-2.57Zm5.121 4.218c-.086 0-.226.13-.312.27-.153.254.027.41 2.355 1.863 1.383.875 2.5 1.621 2.473 1.68-.031.043-1.16.777-2.512 1.621-2.457 1.523-2.469 1.539-2.246 1.848.285.367 0 .496 3.188-1.496L32 17.54v-1.114l-2.582-1.594c-1.398-.875-2.61-1.582-2.68-1.598Zm-21.449.157c-.07 0-1.281.722-2.68 1.582L0 16.566v1.114l2.598 1.625c1.437.886 2.652 1.62 2.707 1.62.058 0 .172-.128.285-.28.168-.27.023-.383-2.36-1.891C.96 17.328.72 17.129.945 16.977c.145-.098 1.215-.762 2.371-1.48 2.641-1.626 2.5-1.513 2.286-1.852-.082-.141-.227-.266-.309-.254Zm11.582.03c-.39 0-1.226.59-3.734 2.638-.11.257-.117.437-.07.55a.35.35 0 0 0 .171.172.774.774 0 0 0 .301.074c.227.02.496-.015.715-.058l.144-.031a.52.52 0 0 1 .196-.16c.152-.086.8-.676 1.453-1.313 1.14-1.156 1.41-1.68.945-1.848a.333.333 0 0 0-.12-.023Zm2.926.806c-.344.007-.961.406-2.016 1.25-.531.43-.867.664-1.047.71l-.699.551c-.262.48-.3.778-.234.942a.327.327 0 0 0 .187.18c.102.038.207.062.32.062.262-.004.52-.043.77-.113.133-.036.262-.079.39-.125l.04-.016.07-.04c.133-.171.438-.495.824-.866 1.211-1.172 1.832-2.004 1.707-2.313-.058-.152-.156-.226-.312-.222Zm-3.23 1.441c-.102.008-.32.18-.72.531-.577.508-1.202.801-1.421.672-.051.008-.102.02-.153.031a2.891 2.891 0 0 1-.742.059 1.031 1.031 0 0 1-.34-.082.482.482 0 0 1-.222-.227c-.047-.12-.047-.27.008-.46l-.868.71-1.96 1.621v2.633l6.425-5.062c0-.055.008-.11.024-.164.047-.18.047-.27-.032-.262Zm2.765.852c-.098 0-.262.136-.52.414-.355.375-.91.742-1.207.816l-.043.023c-.05.02-.097.04-.148.055a6.484 6.484 0 0 1-.305.094c-.238.062-.539.125-.804.117a.921.921 0 0 1-.367-.074.459.459 0 0 1-.247-.238c-.074-.184-.043-.446.125-.817l-5.668 4.469v1.605h2.489l5.285-4.148c.137-.152.344-.36.621-.621.746-.692.914-.93.914-1.285 0-.274-.027-.414-.125-.414Zm1.258 2.597-.453.453a3.943 3.943 0 0 1-1.016.66l-.062.028-.004.008-.012.011c-.012.012-.02.012-.027.016-.125.047-.25.09-.375.125a4.076 4.076 0 0 1-.868.152 1.474 1.474 0 0 1-.414-.035.49.49 0 0 1-.289-.191c-.066-.102-.082-.23-.047-.395.028-.117.07-.226.125-.332l-4.261 3.367h5.668l.68-.777c.93-1.086 1.355-1.86 1.355-2.523Zm0 0"></path>
  </symbol>


  <symbol xmlns="http://www.w3.org/2000/svg" viewBox="0 0 32 32" id="netlify">
    <path d="m23.184 11.105-.012-.003-.02-.012a.098.098 0 0 1-.023-.078l.644-3.946 3.028 3.028-3.149 1.34c-.007 0-.015.004-.027.004h-.012a1.425 1.425 0 0 0-.43-.332Zm4.386-.242 3.235 3.235c.672.675 1.011 1.011 1.133 1.398.019.059.03.117.042.176l-7.73-3.274c-.004-.003-.008-.003-.012-.007-.031-.012-.066-.028-.066-.059 0-.031.039-.047.066-.059l.012-.003Zm4.282 5.844c-.168.316-.493.64-1.043 1.191l-3.649 3.649-4.719-.985-.023-.003c-.043-.008-.086-.016-.086-.051a1.42 1.42 0 0 0-.547-.996c-.02-.02-.015-.051-.008-.078v-.012l.891-5.445v-.02c.008-.039.016-.09.05-.09.387-.047.735-.246.97-.555.007-.007.011-.015.023-.023.027-.012.059 0 .086.012Zm-5.532 5.68-5.996 5.996 1.028-6.309v-.012c0-.007.003-.015.007-.023.008-.02.028-.027.051-.035l.008-.004a1.56 1.56 0 0 0 .582-.434c.02-.023.043-.043.074-.046a.025.025 0 0 1 .024 0Zm-7.265 7.265-.676.676-7.473-10.8c-.004-.005-.008-.008-.008-.012-.011-.016-.027-.032-.023-.051 0-.012.008-.024.02-.035l.007-.012c.024-.031.043-.066.063-.102l.015-.03h.004c.012-.02.024-.04.043-.052.016-.007.04-.004.059 0l8.281 1.707a.128.128 0 0 1 .063.028.048.048 0 0 1 .015.035c.117.445.434.805.86.98.023.012.011.04.004.067-.008.012-.012.023-.016.035-.102.637-.996 6.094-1.238 7.566Zm-1.41 1.41c-.5.493-.793.754-1.125.86-.329.105-.68.105-1.008 0-.387-.125-.727-.457-1.399-1.133L6.61 23.285l1.961-3.039a.086.086 0 0 1 .035-.039c.02-.016.051-.008.075 0 .449.133.933.11 1.367-.07.023-.008.043-.016.062 0 .008.008.016.02.024.027Zm-11.758-8.5L4.164 20.84l3.402-1.45c.008-.003.016-.007.028-.007.027 0 .043.027.058.055.035.054.07.105.11.152l.011.015c.008.012 0 .028-.007.043Zm-2.485-2.484-2.18-2.18c-.367-.367-.636-.636-.824-.867l6.622 1.371c.011.004.02.004.027.004.039.008.086.016.086.055s-.051.059-.09.074l-.02.012ZM.02 15.91c.003-.14.03-.281.074-.414.12-.39.457-.723 1.129-1.398l2.789-2.786c1.285 1.864 2.57 3.723 3.86 5.579.023.03.05.066.023.09a2.398 2.398 0 0 0-.329.44.185.185 0 0 1-.043.052c-.011.007-.023.004-.035.004h-.004Zm4.738-5.344 3.75-3.75c.351.157 1.633.696 2.777 1.18.871.367 1.66.703 1.91.813.024.007.047.02.059.043a.112.112 0 0 1 0 .05c-.121.551.043 1.121.437 1.528.024.023 0 .058-.023.09l-.012.02-3.804 5.894c-.012.015-.02.027-.036.039-.023.011-.05.007-.074 0a1.78 1.78 0 0 0-.453-.059c-.137 0-.285.023-.434.05h-.003c-.016.005-.032.009-.043-.003a.205.205 0 0 1-.04-.043ZM9.262 6.06l4.851-4.852C14.785.535 15.125.199 15.512.078c.328-.105.68-.105 1.008 0 .386.121.722.457 1.394 1.129l1.055 1.055-3.453 5.343a.11.11 0 0 1-.036.04c-.02.015-.046.007-.074 0a1.752 1.752 0 0 0-1.601.308c-.024.024-.055.012-.086-.004-.45-.195-3.953-1.676-4.457-1.886Zm10.437-3.067 3.188 3.188-.77 4.754v.011c0 .012 0 .024-.004.035-.008.016-.027.02-.043.024-.164.05-.32.125-.457.226-.008.004-.011.012-.015.016-.012.008-.02.02-.035.02-.012 0-.024 0-.036-.004l-4.855-2.063-.008-.004c-.031-.015-.07-.03-.07-.062a1.821 1.821 0 0 0-.258-.762c-.023-.039-.05-.078-.027-.117Zm-3.281 7.184 4.55 1.926c.028.011.055.023.067.05a.095.095 0 0 1 0 .047 1.34 1.34 0 0 0-.027.219v.129c0 .031-.031.043-.063.058h-.008c-.722.31-10.125 4.32-10.136 4.32-.016 0-.031 0-.043-.015-.028-.023 0-.058.02-.094a.054.054 0 0 0 .011-.015l3.742-5.793.008-.008c.02-.035.047-.074.086-.074l.035.004c.086.011.16.023.238.023.567 0 1.094-.277 1.41-.746a.085.085 0 0 1 .028-.035c.023-.016.059-.008.082.004Zm-5.211 7.664 10.246-4.371s.016 0 .031.015c.055.055.102.094.149.13l.023.011c.02.012.043.027.043.047 0 .012 0 .015-.004.023l-.875 5.39-.004.024c-.007.043-.011.09-.05.09a1.432 1.432 0 0 0-1.145.707l-.008.004c-.011.02-.02.04-.039.05-.02.009-.039.005-.058 0l-8.172-1.687c-.012 0-.13-.433-.137-.433Zm0 0"></path>
  </symbol>


  <symbol xmlns="http://www.w3.org/2000/svg" viewBox="0 0 32 32" id="material-ui">
    <path d="M0 3.3v13.852l4 2.313v-9.238l8 4.62 8-4.62v4.62l-8 4.618v4.617l8 4.617 12-6.926v-9.238l-4 2.313v4.617l-8 4.617-4-2.309 8-4.62V3.3l-12 6.926Zm32 0-4 2.305v4.622l4-2.309V3.297Zm0 0"></path>
  </symbol>

  <symbol xmlns="http://www.w3.org/2000/svg" viewBox="0 0 32 32" id="jira">
    <path d="M31.613 15.105C26.91 10.562 20.683 4.488 16.031 0 5.355 10.305.387 15.105.387 15.105a1.246 1.246 0 0 0 0 1.793C8.953 25.168 4.375 20.742 16.03 32c24.477-23.625 1.016-1.043 15.582-15.105a1.228 1.228 0 0 0 0-1.79ZM16.031 20.73 11.13 16l4.902-4.73L20.934 16Zm0 0"></path>
  </symbol>


   <symbol xmlns="http://www.w3.org/2000/svg" viewBox="0 0 32 32" id="google-cloud">
    <path d="M30.668 19.668c0 4.598-3.734 8.332-8.336 8.332H9.668c-4.602 0-8.336-3.734-8.336-8.332a8.327 8.327 0 0 1 3.613-6.867C6.105 7.76 10.613 4 16 4s9.895 3.762 11.055 8.8a8.297 8.297 0 0 1 3.613 6.868m-8.496 3c1.75 0 3.16-1.414 3.16-3.16a3.164 3.164 0 0 0-3.039-3.176l.039-.664a6.34 6.34 0 0 0-11.094-4.188c2 .387 3.735 1.48 4.95 3L12.668 18c-.563-.973-1.613-1.668-2.828-1.668a3.163 3.163 0 0 0-3.172 3.176 3.173 3.173 0 0 0 3 3.16Zm0 0"></path>
  </symbol>

   <symbol xmlns="http://www.w3.org/2000/svg" viewBox="0 0 32 32" id="sass">
    <path d="M16 0c8.836 0 16 7.164 16 16s-7.164 16-16 16S0 24.836 0 16 7.164 0 16 0Zm-3.18 21.332c.235.86.207 1.664-.03 2.387l-.087.242a4.391 4.391 0 0 1-.848 1.313c-.93 1.011-2.226 1.398-2.785 1.074-.601-.348-.3-1.782.778-2.918 1.164-1.227 2.828-2.016 2.828-2.016v-.004ZM26.035 6.848c-.723-2.844-5.437-3.778-9.898-2.192-2.649.942-5.524 2.422-7.59 4.356-2.457 2.297-2.848 4.297-2.684 5.133.567 2.945 4.606 4.875 6.27 6.304v.008c-.488.242-4.074 2.04-4.914 3.898-.903 1.961.136 3.364.82 3.543 2.098.582 4.258-.48 5.418-2.199 1.121-1.683 1.023-3.844.54-4.902.66-.18 1.44-.258 2.44-.137 2.801.32 3.36 2.078 3.239 2.797-.121.719-.696 1.14-.899 1.262-.199.12-.261.16-.242.238.02.121.121.121.281.102.22-.04 1.461-.602 1.52-1.961.062-1.72-1.578-3.641-4.5-3.602-1.2.024-1.961.121-2.5.344a.428.428 0 0 0-.137-.14c-1.8-1.942-5.14-3.302-5-5.88.04-.941.38-3.422 6.399-6.422 4.941-2.46 8.882-1.777 9.562-.277.977 2.137-2.101 6.117-7.242 6.7-1.961.218-2.98-.54-3.242-.821-.278-.3-.32-.32-.418-.262-.16.082-.059.34 0 .5.16.403.781 1.102 1.86 1.461.94.301 3.241.48 6-.597 3.1-1.2 5.519-4.543 4.82-7.34Zm0 0"></path>
  </symbol>

  <symbol xmlns="http://www.w3.org/2000/svg" viewBox="0 0 32 32" id="terminal">
    <path d="M0 6c0-2.21 1.79-4 4-4h24c2.21 0 4 1.79 4 4v20c0 2.21-1.79 4-4 4H4c-2.21 0-4-1.79-4-4Zm19 11h-6c-.55 0-1 .45-1 1s.45 1 1 1h6c.55 0 1-.45 1-1s-.45-1-1-1Zm-12.707-.707a1 1 0 1 0 1.414 1.414l4-4a1 1 0 0 0 0-1.414l-4-4a1 1 0 1 0-1.414 1.414L9.586 13Zm0 0"></path>
  </symbol>

   <symbol xmlns="http://www.w3.org/2000/svg" viewBox="0 0 32 32" id="chevron-right">
    <path d="M9.293 3.293a1 1 0 0 1 1.414 0l12 12a1 1 0 0 1 0 1.414l-12 12a1 1 0 1 1-1.414-1.414L20.586 16 9.293 4.707a1 1 0 0 1 0-1.414Zm0 0"></path>
  </symbol>

  <symbol xmlns="http://www.w3.org/2000/svg" viewBox="0 0 32 32" id="chevron-left">
    <path d="M22.707 3.293a1 1 0 0 1 0 1.414L11.414 16l11.293 11.293a1 1 0 1 1-1.414 1.414l-12-12a1 1 0 0 1 0-1.414l12-12a1 1 0 0 1 1.414 0Zm0 0"></path>
  </symbol>

  <symbol xmlns="http://www.w3.org/2000/svg" viewBox="0 0 50 50" id="express-js">
    <path d="M49.729 11h-.85c-1.051 0-2.041.49-2.68 1.324l-8.7 11.377-8.7-11.377C28.162 11.49 27.171 11 26.121 11h-.85l10.971 14.346L25.036 40h.85c1.051 0 2.041-.49 2.679-1.324L37.5 26.992l8.935 11.684C47.073 39.51 48.063 40 49.114 40h.85L38.758 25.346 49.729 11zM21.289 34.242c-2.554 3.881-7.582 5.87-12.389 4.116C4.671 36.815 2 32.611 2 28.109L2 27h12v0h11l0-4.134c0-6.505-4.818-12.2-11.295-12.809C6.273 9.358 0 15.21 0 22.5l0 5.573c0 5.371 3.215 10.364 8.269 12.183 6.603 2.376 13.548-1.17 15.896-7.256 0 0 0 0 0 0h-.638C22.616 33 21.789 33.481 21.289 34.242zM2 22.5C2 16.71 6.71 12 12.5 12S23 16.71 23 22.5V25H2V22.5z"></path>
  </symbol>

  <symbol xmlns="http://www.w3.org/2000/svg" viewBox="0 0 32 32" id="visual-studio-code">
    <path d="M22.668 21.96V9.853l-8 6.054M2.961 12.254a1.144 1.144 0 0 1-.027-1.535l1.601-1.48c.266-.239.918-.344 1.399 0l4.558 3.48 10.574-9.664c.426-.43 1.16-.602 2-.16l5.332 2.546c.48.278.934.72.934 1.532v18c0 .535-.387 1.105-.797 1.336l-5.867 2.796c-.43.176-1.227.016-1.508-.265l-10.695-9.735-4.531 3.47c-.508.347-1.133.253-1.399 0l-1.601-1.47c-.426-.437-.375-1.16.066-1.597l4-3.602"></path>
  </symbol>

  <symbol xmlns="http://www.w3.org/2000/svg" viewBox="0 0 50 50" id="prisma">
    <path d="M44.674,37.568L27.405,1.49c-0.89-1.859-3.473-2.012-4.575-0.271L3.679,31.461c-0.413,0.652-0.401,1.486,0.03,2.126	l9.647,14.323c0.599,0.889,1.7,1.29,2.729,0.994l26.994-7.775C44.596,40.692,45.357,38.994,44.674,37.568z M40.86,38.865	l-22.703,6.369c-0.526,0.148-1.02-0.318-0.906-0.853L25.3,6.749c0.145-0.678,1.064-0.788,1.364-0.163l14.843,30.881	C41.766,38.033,41.459,38.697,40.86,38.865z"></path>
  </symbol>

</svg>