<svg width="0" height="0" class="hidden">

 <symbol fill="none" xmlns="http://www.w3.org/2000/svg" viewBox="0 0 24 24" id="terminal">
    <path
      d="M22 9H2M6 17.5L8.5 15L6 12.5M11 17.5L15 17.5M2 7.8L2 16.2C2 17.8802 2 18.7202 2.32698 19.362C2.6146 19.9265 3.07354 20.3854 3.63803 20.673C4.27976 21 5.11984 21 6.8 21H17.2C18.8802 21 19.7202 21 20.362 20.673C20.9265 20.3854 21.3854 19.9265 21.673 19.362C22 18.7202 22 17.8802 22 16.2V7.8C22 6.11984 22 5.27977 21.673 4.63803C21.3854 4.07354 20.9265 3.6146 20.362 3.32698C19.7202 3 18.8802 3 17.2 3L6.8 3C5.11984 3 4.27976 3 3.63803 3.32698C3.07354 3.6146 2.6146 4.07354 2.32698 4.63803C2 5.27976 2 6.11984 2 7.8Z"
      stroke="#817d8f" stroke-width="2" stroke-linecap="round" stroke-linejoin="round"></path>
</symbol>
<symbol xmlns="http://www.w3.org/2000/svg" viewBox="0 0 24 24" id="sass">

    <rect width="24" height="24" fill="none"></rect>
    <path
      d="M12,2A10,10,0,1,1,2,12,10,10,0,0,1,12,2M10,15.33a2.55,2.55,0,0,1,0,1.5c0,.05,0,.1-.06.17s0,.07-.07.12a2.5,2.5,0,0,1-.46.67c-.58.64-1.41.88-1.74.68s-.17-1.12.49-1.83a6.91,6.91,0,0,1,1.76-1.26h0l.08-.05m8.27-9c-.45-1.78-3.4-2.36-6.18-1.37A14,14,0,0,0,7.34,7.63c-1.53,1.44-1.78,2.69-1.68,3.21.34,1.84,2.88,3.05,3.92,3.94h0c-.3.15-2.54,1.28-3.08,2.44A1.62,1.62,0,0,0,7,19.45a3.16,3.16,0,0,0,3.41-1.38A3.44,3.44,0,0,0,10.75,15a4.34,4.34,0,0,1,1.53-.08c1.76.21,2.1,1.3,2,1.76a1.16,1.16,0,0,1-.55.79c-.12.07-.16.1-.15.16s.07.08.17.06a1.36,1.36,0,0,0,1-1.22c0-1.08-1-2.28-2.81-2.25a4.84,4.84,0,0,0-1.56.22l-.08-.09c-1.13-1.2-3.21-2-3.12-3.67,0-.59.23-2.13,4-4,3.08-1.54,5.55-1.12,6-.17.61,1.33-1.32,3.82-4.52,4.18a2.44,2.44,0,0,1-2-.51c-.17-.17-.19-.2-.25-.17s0,.23,0,.33a2,2,0,0,0,1.15.91,6.18,6.18,0,0,0,3.76-.37C17.2,10.12,18.72,8,18.27,6.28Z"
      fill="#817d8f">
    </path>
</symbol>

  <symbol fill="#817d8f" version="1.1" xmlns="http://www.w3.org/2000/svg" xmlns:xlink="http://www.w3.org/1999/xlink"
    enable-background="new 0 0 512 512" xml:space="preserve" viewBox="0 0 512 512" id="corel-draw">
    <g id="2069a460dcf28295e231f3111e0396ed">
      <path display="inline" d="M239.532,463.443h32.923c5.977,0,10.85,4.873,10.85,10.85v26.369c0,5.963-4.873,10.837-10.85,10.837
		h-32.923c-5.963,0-10.837-4.874-10.837-10.837v-26.369C228.695,468.316,233.569,463.443,239.532,463.443L239.532,463.443z
		 M239.532,463.443 M102.525,146.023c0.412,81.391,69.535,208.35,133.431,295.97h6.288
		c-48.593-88.639-90.036-197.933-90.402-284.073c-0.341-78.151,31.58-127.745,74.662-156.048c-9.564,0.89-19.146,2.217-28.64,4.042
		C144.734,27.04,102.144,70.638,102.525,146.023L102.525,146.023z M102.525,146.023 M243.163,0.753
		c-24.897,33.505-44.102,81.012-43.931,149.948c0.229,89.978,21.279,196.93,48.426,291.292h16.684
		c27.147-94.361,48.197-201.314,48.427-291.292c0.17-68.936-19.034-116.443-43.931-149.948
		C260.288,0.417,251.713,0.417,243.163,0.753L243.163,0.753z M243.163,0.753 M409.475,146.023
		c-0.411,81.391-69.534,208.35-133.431,295.97h-6.287c48.592-88.639,90.036-197.933,90.397-284.073
		C360.5,79.77,328.579,30.175,285.497,1.872c9.564,0.89,19.146,2.217,28.627,4.042C367.266,27.04,409.854,70.638,409.475,146.023
		L409.475,146.023z M409.475,146.023 M280.382,441.993c71.526-75.27,152.676-201.084,153.212-298.033
		c0.325-59.454-28.614-98.881-69.151-122.959c49.665,21.308,87.449,60.635,87.083,124.556
		c-0.582,98.475-94.968,228.569-169.9,296.436H280.382z M280.382,441.993 M231.619,441.993
		C160.092,366.724,78.943,240.909,78.406,143.96c-0.324-59.454,28.603-98.881,69.14-122.959
		C97.894,42.31,60.109,81.637,60.475,145.557c0.583,98.475,94.969,228.569,169.9,296.436H231.619z M231.619,441.993">
      </path>
    </g>
  </symbol>


  <symbol xmlns="http://www.w3.org/2000/svg" id="backend" viewBox="0 0 24 24">
    <path
      d="M21.3,13.88l-.45-.26c.1-.54,.15-1.09,.15-1.63s-.05-1.08-.15-1.63l.45-.26c1.43-.82,1.93-2.66,1.11-4.1-.4-.69-1.05-1.19-1.82-1.4-.77-.21-1.58-.1-2.28,.3l-.45,.26c-.84-.72-1.81-1.28-2.86-1.65v-.52c0-1.65-1.35-3-3-3s-3,1.35-3,3v.52c-1.05,.37-2.02,.93-2.86,1.65l-.45-.26c-.69-.4-1.5-.5-2.28-.3-.77,.21-1.42,.71-1.82,1.4-.82,1.43-.33,3.27,1.1,4.1l.45,.26c-.1,.54-.15,1.09-.15,1.63s.05,1.08,.15,1.63l-.45,.26c-1.43,.82-1.93,2.66-1.11,4.1,.4,.69,1.05,1.19,1.82,1.4,.77,.21,1.58,.1,2.28-.3l.45-.26c.84,.72,1.81,1.28,2.86,1.65v.52c0,1.65,1.35,3,3,3s3-1.35,3-3v-.52c1.05-.37,2.02-.93,2.86-1.65l.45,.26c.69,.4,1.5,.51,2.28,.3,.77-.21,1.42-.71,1.82-1.4,.82-1.43,.33-3.27-1.1-4.1Zm-2.56-3.74c.17,.62,.26,1.25,.26,1.86s-.09,1.23-.26,1.86c-.12,.44,.07,.9,.47,1.13l1.09,.63c.48,.28,.64,.89,.37,1.37-.13,.23-.35,.4-.61,.47-.26,.07-.53,.04-.76-.1l-1.09-.63c-.4-.23-.89-.16-1.21,.17-.89,.91-2.01,1.56-3.25,1.88-.44,.11-.75,.51-.75,.97v1.26c0,.55-.45,1-1,1s-1-.45-1-1v-1.26c0-.46-.31-.85-.75-.97-1.24-.32-2.36-.97-3.25-1.88-.19-.2-.45-.3-.72-.3-.17,0-.34,.04-.5,.13l-1.09,.63c-.23,.13-.5,.17-.76,.1-.26-.07-.47-.24-.61-.47-.27-.48-.11-1.09,.37-1.37l1.09-.63c.4-.23,.59-.69,.47-1.13-.17-.62-.26-1.25-.26-1.86s.09-1.23,.26-1.86c.12-.44-.07-.9-.47-1.13l-1.09-.63c-.48-.28-.64-.89-.37-1.37,.13-.23,.35-.4,.61-.47,.26-.07,.53-.03,.76,.1l1.09,.63c.4,.23,.89,.16,1.21-.17,.89-.91,2.01-1.56,3.25-1.88,.44-.11,.75-.51,.75-.97v-1.26c0-.55,.45-1,1-1s1,.45,1,1v1.26c0,.46,.31,.85,.75,.97,1.24,.32,2.36,.97,3.25,1.88,.32,.33,.82,.4,1.21,.17l1.09-.63c.23-.13,.5-.17,.76-.1,.26,.07,.47,.24,.61,.47,.27,.48,.11,1.09-.37,1.37l-1.09,.63c-.4,.23-.59,.69-.47,1.13Zm-4.96-1.94l-1.6,8c-.09,.48-.51,.8-.98,.8-.06,0-.13,0-.2-.02-.54-.11-.89-.63-.78-1.18l1.6-8c.11-.54,.63-.89,1.18-.78,.54,.11,.89,.63,.78,1.18Zm-4.57,2.65l-1.21,1.21,1.21,1.19c.39,.39,.39,1.02,0,1.41-.2,.2-.45,.29-.71,.29s-.51-.1-.71-.29l-1.21-1.21c-.78-.78-.78-2.04,0-2.81l1.21-1.21c.39-.39,1.02-.39,1.41,0s.39,1.02,0,1.41Zm8.21-.2c.78,.78,.78,2.04,0,2.81l-1.21,1.21c-.2,.2-.45,.29-.71,.29s-.51-.1-.71-.29c-.39-.39-.39-1.02,0-1.41l1.21-1.21-1.21-1.2c-.39-.39-.39-1.02,0-1.41s1.02-.39,1.41,0l1.21,1.21Z"
      fill="#5e3bee">
    </path>
  </symbol>

  <symbol id="frontend" xmlns="http://www.w3.org/2000/svg" viewBox="0 0 24 24">
    <path
      d="m19 1h-14a5.006 5.006 0 0 0 -5 5v12a5.006 5.006 0 0 0 5 5h14a5.006 5.006 0 0 0 5-5v-12a5.006 5.006 0 0 0 -5-5zm-14 2h14a3 3 0 0 1 3 3v1h-20v-1a3 3 0 0 1 3-3zm14 18h-14a3 3 0 0 1 -3-3v-9h20v9a3 3 0 0 1 -3 3zm0-8a1 1 0 0 1 -1 1h-12a1 1 0 0 1 0-2h12a1 1 0 0 1 1 1zm-4 4a1 1 0 0 1 -1 1h-8a1 1 0 0 1 0-2h8a1 1 0 0 1 1 1zm-12-12a1 1 0 1 1 1 1 1 1 0 0 1 -1-1zm3 0a1 1 0 1 1 1 1 1 1 0 0 1 -1-1zm3 0a1 1 0 1 1 1 1 1 1 0 0 1 -1-1z"
      fill="#5e3bee"></path>
  </symbol>
  <symbol xmlns="http://www.w3.org/2000/svg" id="management" viewBox="0 0 24 24">
    <path
      d="m13,9h-2c-1.103,0-2,.897-2,2v2c0,1.103.897,2,2,2h2c1.103,0,2-.897,2-2v-2c0-1.103-.897-2-2-2Zm0,4h-2v-2h2v2Zm0-12h-2c-1.103,0-2,.897-2,2v2c0,1.103.897,2,2,2h2c1.103,0,2-.897,2-2v-2c0-1.103-.897-2-2-2Zm0,4h-2v-2h2v2Zm0,12h-2c-1.103,0-2,.897-2,2v2c0,1.103.897,2,2,2h2c1.103,0,2-.897,2-2v-2c0-1.103-.897-2-2-2Zm0,4h-2v-2h2v2Zm10.866-10.613c-.186.321-.521.5-.867.5-.17,0-.342-.043-.499-.134l-.76-.439c-.706.795-1.66,1.365-2.74,1.585v1.101c0,.553-.447,1-1,1s-1-.447-1-1v-2c0-.552.447-1,1-1,1.654,0,3-1.346,3-3s-1.346-3-3-3c-.553,0-1-.448-1-1V1c0-.552.447-1,1-1s1,.448,1,1v1.101c1.08.22,2.035.79,2.74,1.585l.76-.439c.477-.276,1.089-.113,1.366.366.276.479.112,1.09-.366,1.366l-.757.437c.167.498.257,1.03.257,1.583s-.091,1.086-.257,1.583l.757.437c.479.276.643.888.366,1.366ZM7.414,18.586c.78.779.78,2.049,0,2.828l-1.793,1.793c-.195.195-.451.293-.707.293s-.512-.098-.707-.293c-.391-.391-.391-1.023,0-1.414l.793-.793h-1.5c-1.93,0-3.5-1.57-3.5-3.5v-3c0-1.93,1.57-3.5,3.5-3.5h2.5c.552,0,1,.448,1,1s-.448,1-1,1h-2.5c-.827,0-1.5.673-1.5,1.5v3c0,.827.673,1.5,1.5,1.5h1.5l-.793-.793c-.391-.391-.391-1.023,0-1.414s1.023-.391,1.414,0l1.793,1.793Z"
      fill="#5e3bee">
    </path>
  </symbol>

  <symbol fill="none" xmlns="http://www.w3.org/2000/svg" xml:space="preserve" viewBox="0 0 32 32" id="database">
    <path
      d="M12.427 2.06c-.714.063-1.719.207-2.42.347-3.35.669-5.91 2.263-6.716 4.18-.316.752-.304.377-.304 9.413 0 7.354.009 8.317.085 8.682.183.89.522 1.478 1.298 2.255.57.571 1.036.919 1.763 1.316 2.275 1.242 5.573 1.879 8.893 1.717a17.501 17.501 0 0 0 3.24-.447l.732-.177.388.278a7.46 7.46 0 0 0 2.299 1.093c.725.192 1.151-.043 1.435-.792.177-.47.558-.912.786-.912.282 0 .626.424.811.997.114.352.25.524.525.664.319.163.62.145 1.284-.079 1.12-.379 1.928-.862 2.682-1.607.736-.726.771-.997.233-1.798-.347-.516-.489-.948-.379-1.154.112-.211.349-.286.851-.272.843.023.952.014 1.161-.094.556-.287.71-.968.728-3.217.011-1.409.007-1.475-.103-1.68a.963.963 0 0 0-.488-.476c-.148-.075-.276-.083-.826-.053-.532.029-.688.021-.852-.048-.473-.199-.395-.7.246-1.59.22-.306.265-.554.164-.897-.065-.216-.154-.332-.514-.666a8.126 8.126 0 0 0-1.798-1.255c-.491-.246-1.476-.588-1.695-.588-.255 0-.567.128-.746.306l-.177.178v-3.978c0-3.429-.011-4.034-.085-4.388-.176-.856-.578-1.547-1.325-2.282-1.485-1.461-3.895-2.439-7.096-2.88-.613-.084-3.456-.151-4.08-.096m3.733 2.074c2.16.259 4.077.884 5.353 1.744.495.334 1.058.922 1.265 1.322.163.314.18.389.18.8 0 .411-.017.486-.18.8-.207.4-.77.988-1.266 1.322-1.256.847-3.039 1.437-5.299 1.753-.944.132-3.482.132-4.426 0-2.26-.316-4.043-.906-5.299-1.753C5.992 9.788 5.429 9.2 5.222 8.8c-.163-.314-.18-.389-.18-.8 0-.411.017-.486.18-.8.207-.4.77-.988 1.265-1.322.423-.284 1.363-.752 1.94-.963 1.237-.454 2.67-.738 4.453-.882.552-.045 2.587.018 3.28.101m-9.627 8.31c1.331.662 3.039 1.149 4.88 1.395 1.376.183 3.627.194 4.987.025 2.433-.303 4.624-1.027 6.12-2.022l.467-.31v3.92l-.254-.13a.769.769 0 0 0-.52-.104c-.379.039-1.025.264-1.706.595a6.27 6.27 0 0 0-1.646 1.107c-.69.622-.824 1.087-.468 1.632.373.571.446.71.401.756-.076.075-1.214.353-1.941.472-1.86.307-4.294.28-6.111-.067-1.656-.316-3.125-.848-4.136-1.499-.521-.337-1.201-1.033-1.406-1.442l-.16-.319-.015-2.462-.016-2.462.469.312c.258.171.733.443 1.055.603m15.321 5.196c.062.11.27.372.462.582.297.323.412.407.764.556.562.237 1.207.276 1.717.103.596-.201 1.016-.536 1.475-1.174l.189-.264.356.18c.196.1.468.262.605.36.239.171.246.184.174.311-.127.227-.334.927-.371 1.257-.108.955.464 1.982 1.332 2.394.38.18.809.295 1.099.295h.157v.467c0 .256-.016.592-.034.746-.03.247-.048.28-.156.28-.258 0-.917.17-1.237.319a2.496 2.496 0 0 0-1.293 1.547c-.143.537-.042 1.343.246 1.974l.134.293-.121.098c-.2.161-.809.507-.958.543-.122.03-.156.006-.277-.201-.203-.346-.803-.882-1.19-1.064a2.368 2.368 0 0 0-2.064.02c-.367.185-.926.694-1.144 1.043-.118.187-.168.226-.264.203-.138-.034-.713-.362-.96-.549l-.172-.129.1-.196c.354-.693.448-1.615.226-2.221a2.474 2.474 0 0 0-.824-1.126c-.376-.277-.727-.413-1.32-.512l-.452-.075-.016-.53a5.175 5.175 0 0 1 .015-.7c.03-.162.046-.171.336-.205 1.057-.122 1.755-.479 2.174-1.112.512-.771.543-1.698.092-2.715l-.137-.31.122-.09c.137-.102 1.024-.596 1.071-.597.017-.001.081.089.144.199M5.44 19.84c1.499.996 3.68 1.715 6.142 2.025.839.105 2.44.153 3.481.104.555-.026 1.017-.04 1.027-.03.009.009-.01.158-.043.332-.102.54.035 2.315.223 2.886.074.225.337.475.609.579.178.068.304.075.666.037 1.143-.121 1.466.2 1.041 1.033-.33.646-.397.698-1.105.848-1.17.247-1.881.313-3.454.316-1.492.003-2.102-.043-3.174-.239-1.714-.314-3.205-.847-4.247-1.517-.521-.337-1.201-1.033-1.406-1.442l-.16-.319-.015-2.444c-.013-1.983-.003-2.437.053-2.404.038.022.201.128.362.235m18.095 2.292c-.193.117-.481.489-.53.681-.039.158.107.687.227.82.05.055.198.163.33.24.207.121.28.136.533.11.36-.037.606-.218.799-.587.127-.243.131-.273.068-.56-.07-.32-.271-.59-.546-.734-.213-.112-.675-.096-.881.03"
      fill-rule="evenodd" fill="#817d8f"></path>
  </symbol>

   <symbol version="1.1" xmlns="http://www.w3.org/2000/svg" xmlns:xlink="http://www.w3.org/1999/xlink"
    preserveAspectRatio="xMidYMid" viewBox="-27 0 310 310" id="prisma">
    <g>
      <path
        d="M254.312882,235.518775 L148.000961,9.74987264 C145.309805,4.08935083 139.731924,0.359884549 133.472618,0.0359753113 C127.198908,-0.384374336 121.212054,2.71925839 117.939655,8.08838662 L2.63252565,194.847143 C-0.947129465,200.604248 -0.871814894,207.912774 2.8257217,213.594888 L59.2003287,300.896318 C63.5805009,307.626626 71.8662281,310.673635 79.5631922,308.384597 L243.161606,259.992851 C248.145475,258.535702 252.252801,254.989363 254.421072,250.271225 C256.559881,245.57581 256.523135,240.176915 254.32061,235.511047 L254.312882,235.518775 Z M230.511129,245.201761 L91.6881763,286.252058 C87.4533189,287.511696 83.388474,283.840971 84.269448,279.567474 L133.866738,42.0831633 C134.794079,37.6396542 140.929985,36.9364206 142.869673,41.0476325 L234.684164,236.021085 C235.505704,237.779423 235.515611,239.809427 234.711272,241.575701 C233.906934,243.341974 232.369115,244.667163 230.503401,245.201761 L230.511129,245.201761 Z"
        fill="#817d8f" fill-rule="nonzero"></path>
    </g>
  </symbol>

  <symbol fill="none" xmlns="http://www.w3.org/2000/svg" viewBox="0 0 24 24" id="git">
    <path fill-rule="evenodd" clip-rule="evenodd"
      d="M13.4142 3.82843C12.6332 3.04738 11.3668 3.04738 10.5858 3.82843L9.91421 4.5L11.482 6.06774C11.6472 6.02356 11.8208 6 12 6C13.1046 6 14 6.89543 14 8C14 8.17916 13.9764 8.35282 13.9323 8.51804L15.982 10.5677C16.1472 10.5236 16.3208 10.5 16.5 10.5C17.6046 10.5 18.5 11.3954 18.5 12.5C18.5 13.6046 17.6046 14.5 16.5 14.5C15.3954 14.5 14.5 13.6046 14.5 12.5C14.5 12.3208 14.5236 12.1472 14.5677 11.982L13 10.4142V15.2676C13.5978 15.6134 14 16.2597 14 17C14 18.1046 13.1046 19 12 19C10.8954 19 10 18.1046 10 17C10 16.2597 10.4022 15.6134 11 15.2676V9.73244C10.4022 9.38663 10 8.74028 10 8C10 7.82084 10.0236 7.64718 10.0677 7.48196L8.5 5.91421L3.82843 10.5858C3.04738 11.3668 3.04738 12.6332 3.82843 13.4142L10.5858 20.1716C11.3668 20.9526 12.6332 20.9526 13.4142 20.1716L20.1716 13.4142C20.9526 12.6332 20.9526 11.3668 20.1716 10.5858L13.4142 3.82843ZM9.17157 2.41421C10.7337 0.852115 13.2663 0.852119 14.8284 2.41422L21.5858 9.17157C23.1479 10.7337 23.1479 13.2663 21.5858 14.8284L14.8284 21.5858C13.2663 23.1479 10.7337 23.1479 9.17157 21.5858L2.41421 14.8284C0.852115 13.2663 0.852119 10.7337 2.41422 9.17157L9.17157 2.41421Z"
      fill="#817d8f"></path>
  </symbol>

<symbol fill="none" xmlns="http://www.w3.org/2000/svg" viewBox="0 0 16 16" id="typescript">
    <path fill-rule="nonzero" clip-rule="nonzero"
      d="M0 1.75C0 0.783501 0.783502 0 1.75 0H14.25C15.2165 0 16 0.783502 16 1.75V3.75C16 4.16421 15.6642 4.5 15.25 4.5C14.8358 4.5 14.5 4.16421 14.5 3.75V1.75C14.5 1.61193 14.3881 1.5 14.25 1.5H1.75C1.61193 1.5 1.5 1.61193 1.5 1.75V14.25C1.5 14.3881 1.61193 14.5 1.75 14.5H15.25C15.6642 14.5 16 14.8358 16 15.25C16 15.6642 15.6642 16 15.25 16H1.75C0.783501 16 0 15.2165 0 14.25V1.75ZM4.75 6.5C4.75 6.08579 5.08579 5.75 5.5 5.75H9.25C9.66421 5.75 10 6.08579 10 6.5C10 6.91421 9.66421 7.25 9.25 7.25H8.25V12.5C8.25 12.9142 7.91421 13.25 7.5 13.25C7.08579 13.25 6.75 12.9142 6.75 12.5V7.25H5.5C5.08579 7.25 4.75 6.91421 4.75 6.5ZM11.2757 6.58011C11.6944 6.08164 12.3507 5.75 13.25 5.75C14.0849 5.75 14.7148 6.03567 15.1394 6.48481C15.4239 6.78583 15.4105 7.26052 15.1095 7.54505C14.8085 7.82958 14.3338 7.81621 14.0493 7.51519C13.9394 7.39898 13.7204 7.25 13.25 7.25C12.7493 7.25 12.5306 7.41836 12.4243 7.54489C12.2934 7.70065 12.25 7.896 12.25 8C12.25 8.104 12.2934 8.29935 12.4243 8.45511C12.5306 8.58164 12.7493 8.75 13.25 8.75C13.3257 8.75 13.3988 8.76121 13.4676 8.78207C14.1307 8.87646 14.6319 9.17251 14.9743 9.58011C15.3684 10.0493 15.5 10.604 15.5 11C15.5 11.396 15.3684 11.9507 14.9743 12.4199C14.5556 12.9184 13.8993 13.25 13 13.25C12.1651 13.25 11.5352 12.9643 11.1106 12.5152C10.8261 12.2142 10.8395 11.7395 11.1405 11.4549C11.4415 11.1704 11.9162 11.1838 12.2007 11.4848C12.3106 11.601 12.5296 11.75 13 11.75C13.5007 11.75 13.7194 11.5816 13.8257 11.4551C13.9566 11.2993 14 11.104 14 11C14 10.896 13.9566 10.7007 13.8257 10.5449C13.7194 10.4184 13.5007 10.25 13 10.25C12.9243 10.25 12.8512 10.2388 12.7824 10.2179C12.1193 10.1235 11.6181 9.82749 11.2757 9.41989C10.8816 8.95065 10.75 8.396 10.75 8C10.75 7.604 10.8816 7.04935 11.2757 6.58011Z"
      fill="#817d8f"></path>
</symbol>

  <symbol fill="none" xmlns="http://www.w3.org/2000/svg" viewBox="0 0 16 16" id="vscode">
    <path
      d="M11.573 0.275 C 11.507 0.294,11.421 0.327,11.382 0.348 C 11.343 0.369,9.999 1.520,8.396 2.906 C 6.792 4.291,5.462 5.424,5.440 5.424 C 5.418 5.424,4.776 4.956,4.013 4.384 C 3.251 3.813,2.585 3.327,2.533 3.306 C 2.383 3.243,2.065 3.256,1.920 3.330 C 1.754 3.416,0.189 4.975,0.094 5.150 C -0.036 5.390,-0.020 5.704,0.134 5.916 C 0.175 5.973,0.709 6.473,1.319 7.026 C 1.930 7.579,2.426 8.041,2.421 8.052 C 2.417 8.064,1.926 8.494,1.330 9.009 C 0.734 9.523,0.208 9.990,0.162 10.045 C -0.015 10.259,-0.044 10.597,0.093 10.849 C 0.189 11.024,1.752 12.583,1.920 12.670 C 2.086 12.757,2.417 12.759,2.573 12.675 C 2.632 12.644,3.273 12.173,3.997 11.629 L 5.315 10.641 5.424 10.741 C 5.484 10.796,6.713 11.909,8.154 13.214 C 10.000 14.885,10.820 15.610,10.926 15.667 L 11.076 15.747 11.750 15.747 L 12.424 15.747 14.055 14.933 C 15.555 14.185,15.695 14.110,15.803 13.991 C 16.016 13.754,16.000 14.232,16.000 8.253 C 16.000 2.432,16.009 2.785,15.849 2.554 C 15.791 2.470,15.439 2.223,14.215 1.406 C 13.358 0.834,12.602 0.341,12.535 0.311 C 12.435 0.266,12.348 0.255,12.053 0.248 C 11.816 0.243,11.652 0.252,11.573 0.275 M13.272 2.580 L 14.505 3.400 14.506 8.220 L 14.507 13.040 13.302 13.640 L 12.098 14.240 11.813 14.240 L 11.529 14.240 8.660 11.644 C 7.082 10.216,5.748 9.028,5.697 9.003 C 5.498 8.909,5.197 8.902,5.036 8.989 C 5.002 9.007,4.385 9.464,3.664 10.004 C 2.943 10.545,2.342 10.987,2.329 10.987 C 2.299 10.987,1.852 10.539,1.868 10.525 C 2.541 9.948,3.946 8.731,4.050 8.634 C 4.136 8.553,4.219 8.442,4.260 8.354 C 4.317 8.227,4.325 8.180,4.314 8.011 C 4.304 7.853,4.286 7.788,4.223 7.687 C 4.170 7.601,3.769 7.221,2.994 6.520 L 1.844 5.480 2.075 5.247 C 2.202 5.118,2.317 5.013,2.331 5.013 C 2.344 5.013,2.975 5.478,3.731 6.046 C 5.227 7.169,5.268 7.194,5.541 7.162 C 5.619 7.153,5.733 7.122,5.794 7.093 C 5.856 7.064,6.297 6.703,6.773 6.291 C 7.250 5.879,7.784 5.417,7.960 5.265 C 8.136 5.113,9.120 4.263,10.147 3.375 C 11.173 2.488,12.019 1.761,12.026 1.761 C 12.034 1.760,12.594 2.129,13.272 2.580 M11.640 4.257 C 11.611 4.263,11.539 4.286,11.480 4.308 C 11.421 4.329,10.401 5.046,9.213 5.901 C 6.867 7.590,6.920 7.547,6.851 7.854 C 6.825 7.969,6.825 8.031,6.851 8.146 C 6.919 8.453,6.868 8.410,9.213 10.099 C 10.401 10.954,11.427 11.675,11.493 11.700 C 11.840 11.833,12.236 11.671,12.422 11.320 L 12.493 11.187 12.493 8.000 L 12.493 4.813 12.422 4.680 C 12.333 4.512,12.208 4.391,12.053 4.324 C 11.926 4.268,11.729 4.236,11.640 4.257 M10.980 8.757 L 10.973 9.514 9.927 8.764 C 9.352 8.351,8.881 8.007,8.881 8.000 C 8.881 7.993,9.352 7.649,9.927 7.236 L 10.973 6.486 10.980 7.243 C 10.984 7.659,10.984 8.341,10.980 8.757 "
      stroke="none" fill="#817d8f" fill-rule="evenodd"></path>
  </symbol>

<symbol fill="none" xmlns="http://www.w3.org/2000/svg" viewBox="0 0 16 16" id="javascript">
    <path fill-rule="nonzero" clip-rule="nonzero"
      d="M0 1.75C0 0.783501 0.783502 0 1.75 0H14.25C15.2165 0 16 0.783502 16 1.75V3.75C16 4.16421 15.6642 4.5 15.25 4.5C14.8358 4.5 14.5 4.16421 14.5 3.75V1.75C14.5 1.61193 14.3881 1.5 14.25 1.5H1.75C1.61193 1.5 1.5 1.61193 1.5 1.75V14.25C1.5 14.3881 1.61193 14.5 1.75 14.5H15.25C15.6642 14.5 16 14.8358 16 15.25C16 15.6642 15.6642 16 15.25 16H1.75C0.783501 16 0 15.2165 0 14.25V1.75ZM8.25 5.75C8.66421 5.75 9 6.08579 9 6.5V10.5C9 11.5048 8.72399 12.2584 8.15514 12.7324C7.61223 13.1848 6.95384 13.25 6.5 13.25C6.08579 13.25 5.75 12.9142 5.75 12.5C5.75 12.0858 6.08579 11.75 6.5 11.75C6.84617 11.75 7.06277 11.6902 7.19486 11.5801C7.301 11.4916 7.5 11.2452 7.5 10.5V6.5C7.5 6.08579 7.83578 5.75 8.25 5.75ZM11.2757 6.58011C11.6944 6.08164 12.3507 5.75 13.25 5.75C14.0849 5.75 14.7148 6.03567 15.1394 6.48481C15.4239 6.78583 15.4105 7.26052 15.1095 7.54505C14.8085 7.82958 14.3338 7.81621 14.0493 7.51519C13.9394 7.39898 13.7204 7.25 13.25 7.25C12.7493 7.25 12.5306 7.41836 12.4243 7.54489C12.2934 7.70065 12.25 7.896 12.25 8C12.25 8.104 12.2934 8.29935 12.4243 8.45511C12.5306 8.58164 12.7493 8.75 13.25 8.75C13.3257 8.75 13.3988 8.76121 13.4676 8.78207C14.1307 8.87646 14.6319 9.17251 14.9743 9.58011C15.3684 10.0493 15.5 10.604 15.5 11C15.5 11.396 15.3684 11.9507 14.9743 12.4199C14.5556 12.9184 13.8993 13.25 13 13.25C12.1651 13.25 11.5352 12.9643 11.1106 12.5152C10.8261 12.2142 10.8395 11.7395 11.1405 11.4549C11.4415 11.1704 11.9162 11.1838 12.2007 11.4848C12.3106 11.601 12.5296 11.75 13 11.75C13.5007 11.75 13.7194 11.5816 13.8257 11.4551C13.9566 11.2993 14 11.104 14 11C14 10.896 13.9566 10.7007 13.8257 10.5449C13.7194 10.4184 13.5007 10.25 13 10.25C12.9243 10.25 12.8512 10.2388 12.7824 10.2179C12.1193 10.1235 11.6181 9.82749 11.2757 9.41989C10.8816 8.95065 10.75 8.396 10.75 8C10.75 7.604 10.8816 7.04935 11.2757 6.58011Z"
      fill="#817d8f"></path>
</symbol>

  <symbol fill="none" xmlns="http://www.w3.org/2000/svg" viewBox="0 0 16 16" id="node-js">
    <path fill-rule="nonzero" clip-rule="nonzero"
      d="M7.58638 0.102166C7.8199 -0.0340553 8.10867 -0.0340553 8.34219 0.102166L14.5565 3.72717C14.7869 3.86157 14.9286 4.10825 14.9286 4.375V11.625C14.9286 11.8918 14.7869 12.1384 14.5565 12.2728L8.34219 15.8978C8.10867 16.0341 7.8199 16.0341 7.58638 15.8978L6.03281 14.9916C5.67502 14.7829 5.55417 14.3236 5.76288 13.9658C5.97159 13.6081 6.43083 13.4872 6.78862 13.6959L7.96429 14.3817L13.4286 11.1942V4.80578L7.96429 1.61828L2.5 4.80578V11.1942L3.6168 11.8457C3.96098 11.9561 4.38611 11.9831 4.68576 11.8507C4.82477 11.7893 4.95031 11.6893 5.04968 11.5107C5.15426 11.3227 5.25 11.0098 5.25 10.5V5.25C5.25 4.83579 5.58579 4.5 6 4.5C6.41421 4.5 6.75 4.83579 6.75 5.25V10.5C6.75 11.1902 6.62104 11.7716 6.36047 12.2399C6.09471 12.7176 5.71466 13.036 5.29192 13.2228C4.48562 13.579 3.59523 13.433 3.04999 13.2371C3.00686 13.2216 2.96525 13.2022 2.92567 13.1791L1.3721 12.2728C1.14168 12.1384 1 11.8918 1 11.625V4.375C1 4.10825 1.14168 3.86157 1.3721 3.72717L7.58638 0.102166ZM8.24655 5.28323C8.64339 4.81081 9.26318 4.5 10.1042 4.5C10.8847 4.5 11.4792 4.76756 11.8815 5.19314C12.166 5.49417 12.1527 5.96885 11.8516 6.25338C11.5506 6.53792 11.0759 6.52455 10.7914 6.22352C10.7038 6.13087 10.5202 6 10.1042 6C9.66182 6 9.47952 6.14753 9.39511 6.24802C9.28615 6.37774 9.25 6.54184 9.25 6.625C9.25 6.70816 9.28615 6.87226 9.39511 7.00198C9.47952 7.10247 9.66182 7.25 10.1042 7.25C10.1782 7.25 10.2497 7.26073 10.3173 7.28072C10.9368 7.37001 11.4089 7.64784 11.7326 8.03323C12.1049 8.47643 12.2292 8.99983 12.2292 9.375C12.2292 9.75017 12.1049 10.2736 11.7326 10.7168C11.3358 11.1892 10.716 11.5 9.87501 11.5C9.0945 11.5 8.49996 11.2324 8.09768 10.8069C7.81315 10.5058 7.82652 10.0311 8.12755 9.74662C8.42857 9.46208 8.90325 9.47546 9.18779 9.77648C9.27536 9.86913 9.459 10 9.87501 10C10.3174 10 10.4997 9.85247 10.5841 9.75198C10.693 9.62226 10.7292 9.45816 10.7292 9.375C10.7292 9.29184 10.693 9.12774 10.5841 8.99802C10.4997 8.89753 10.3174 8.75 9.87501 8.75C9.80097 8.75 9.72943 8.73927 9.66188 8.71928C9.04237 8.62999 8.57028 8.35216 8.24655 7.96677C7.87427 7.52357 7.75 7.00017 7.75 6.625C7.75 6.24983 7.87427 5.72643 8.24655 5.28323Z"
      fill="#817d8f"></path>
  </symbol>

  <symbol fill="none" xmlns="http://www.w3.org/2000/svg" viewBox="0 0 16 16" id="npm">
    <path fill-rule="nonzero" clip-rule="nonzero"
      d="M1 2.88462C1 1.84377 1.84377 1 2.88462 1H13.1154C14.1562 1 15 1.84377 15 2.88462V13.1154C15 14.1562 14.1562 15 13.1154 15H2.88462C1.84377 15 1 14.1562 1 13.1154V2.88462ZM2.88462 2.61538C2.73592 2.61538 2.61538 2.73592 2.61538 2.88462V13.1154C2.61538 13.2641 2.73592 13.3846 2.88462 13.3846H8.53846V6.38462C8.53846 5.93854 8.90008 5.57692 9.34615 5.57692C9.79223 5.57692 10.1538 5.93854 10.1538 6.38462V13.3846H13.1154C13.2641 13.3846 13.3846 13.2641 13.3846 13.1154V2.88462C13.3846 2.73592 13.2641 2.61538 13.1154 2.61538H2.88462Z"
      fill="#817d8f"></path>
  </symbol>

<symbol xmlns="http://www.w3.org/2000/svg" viewBox="0 0 50 50" id="express-js">
    <path
      d="M49.729 11h-.85c-1.051 0-2.041.49-2.68 1.324l-8.7 11.377-8.7-11.377C28.162 11.49 27.171 11 26.121 11h-.85l10.971 14.346L25.036 40h.85c1.051 0 2.041-.49 2.679-1.324L37.5 26.992l8.935 11.684C47.073 39.51 48.063 40 49.114 40h.85L38.758 25.346 49.729 11zM21.289 34.242c-2.554 3.881-7.582 5.87-12.389 4.116C4.671 36.815 2 32.611 2 28.109L2 27h12v0h11l0-4.134c0-6.505-4.818-12.2-11.295-12.809C6.273 9.358 0 15.21 0 22.5l0 5.573c0 5.371 3.215 10.364 8.269 12.183 6.603 2.376 13.548-1.17 15.896-7.256 0 0 0 0 0 0h-.638C22.616 33 21.789 33.481 21.289 34.242zM2 22.5C2 16.71 6.71 12 12.5 12S23 16.71 23 22.5V25H2V22.5z"
      fill="#817d8f">
    </path>      
</symbol>

<symbol fill="none" xmlns="http://www.w3.org/2000/svg" viewBox="0 0 16 16" id="html5">
    <path fill-rule="nonzero" clip-rule="nonzero"
      d="M3 1.5C2.86193 1.5 2.75 1.61193 2.75 1.75V11.3003C2.75 11.3896 2.79769 11.4722 2.87509 11.5168L7.73381 14.3194C7.80942 14.363 7.90231 14.364 7.97886 14.3221L13.1201 11.5048C13.2002 11.4609 13.25 11.3769 13.25 11.2856V1.75C13.25 1.61193 13.1381 1.5 13 1.5H3ZM1.25 1.75C1.25 0.783502 2.0335 0 3 0H13C13.9665 0 14.75 0.783503 14.75 1.75V11.2856C14.75 11.9248 14.4015 12.5131 13.841 12.8203L8.69968 15.6375C8.16383 15.9311 7.51363 15.924 6.98434 15.6187L2.12562 12.8162C1.58382 12.5037 1.25 11.9258 1.25 11.3003V1.75ZM5 4.25C5 3.83579 5.33579 3.5 5.75 3.5H10.3654C10.7796 3.5 11.1154 3.83579 11.1154 4.25C11.1154 4.66421 10.7796 5 10.3654 5H6.5V6.71154H10.3654C10.7796 6.71154 11.1154 7.04732 11.1154 7.46154V10.3462C11.1154 10.6302 10.9549 10.8899 10.7008 11.017L8.3931 12.1708C8.18196 12.2764 7.93343 12.2764 7.72228 12.1708L5.41459 11.017C5.1605 10.8899 5 10.6302 5 10.3462V9.76923C5 9.35502 5.33579 9.01923 5.75 9.01923C6.16421 9.01923 6.5 9.35502 6.5 9.76923V9.88263L8.05769 10.6615L9.61539 9.88263V8.21154H5.75C5.33579 8.21154 5 7.87575 5 7.46154V4.25Z"
      fill="#817d8f"></path>
</symbol>

<symbol fill="none" xmlns="http://www.w3.org/2000/svg" viewBox="0 0 16 16" id="css3">
    <path fill-rule="nonzero" clip-rule="nonzero"
      d="M3 1.60001C2.86193 1.60001 2.75 1.71193 2.75 1.85001V11.4003C2.75 11.4896 2.79769 11.5722 2.87509 11.6168L7.73381 14.4194C7.80942 14.463 7.90231 14.464 7.97886 14.4221L13.1201 11.6048C13.2002 11.5609 13.25 11.4769 13.25 11.3856V1.85001C13.25 1.71193 13.1381 1.60001 13 1.60001H3ZM1.25 1.85001C1.25 0.883508 2.0335 0.100006 3 0.100006H13C13.9665 0.100006 14.75 0.883509 14.75 1.85001V11.3856C14.75 12.0248 14.4015 12.6131 13.841 12.9203L8.69968 15.7375C8.16383 16.0311 7.51363 16.024 6.98434 15.7187L2.12562 12.9162C1.58382 12.6037 1.25 12.0258 1.25 11.4003V1.85001ZM5 4.35001C5 3.93579 5.33579 3.60001 5.75 3.60001H10.3654C10.7796 3.60001 11.1154 3.93579 11.1154 4.35001V10.4462C11.1154 10.7302 10.9549 10.9899 10.7008 11.117L8.3931 12.2708C8.18196 12.3764 7.93343 12.3764 7.72228 12.2708L5.41459 11.117C5.1605 10.9899 5 10.7302 5 10.4462V9.86924C5 9.45502 5.33579 9.11924 5.75 9.11924C6.16421 9.11924 6.5 9.45502 6.5 9.86924V9.98263L8.05769 10.7615L9.61539 9.98263V8.31154H7C6.58579 8.31154 6.25 7.97576 6.25 7.56154C6.25 7.14733 6.58579 6.81154 7 6.81154H9.61539V5.10001H5.75C5.33579 5.10001 5 4.76422 5 4.35001Z"
      fill="#817d8f"></path>
</symbol>

   <symbol fill="none" xmlns="http://www.w3.org/2000/svg" viewBox="0 0 24 24" id="figma">
    <path
      d="M12 3H9C7.34315 3 6 4.34315 6 6C6 7.65685 7.34315 9 9 9M12 3V9M12 3H15C16.6569 3 18 4.34315 18 6C18 7.65685 16.6569 9 15 9M12 9H9M12 9H15M12 9V15M9 9C7.34315 9 6 10.3431 6 12C6 13.6569 7.34315 15 9 15M15 9C16.6569 9 18 10.3431 18 12C18 13.6569 16.6569 15 15 15C13.3431 15 12 13.6569 12 12C12 10.3431 13.3431 9 15 9ZM12 15H9M12 15V18C12 19.6569 10.6569 21 9 21C7.34315 21 6 19.6569 6 18C6 16.3431 7.34315 15 9 15"
      stroke="#817d8f" stroke-width="2" stroke-linecap="round" stroke-linejoin="round"></path>
  </symbol>

  <symbol fill="#817d8f" version="1.1" xmlns="http://www.w3.org/2000/svg" viewBox="0 0 32 32" id="mongodb">

    <path
      d="M15.821 23.185s0-10.361 0.344-10.36c0.266 0 0.612 13.365 0.612 13.365-0.476-0.056-0.956-2.199-0.956-3.005zM22.489 12.945c-0.919-4.016-2.932-7.469-5.708-10.134l-0.007-0.006c-0.338-0.516-0.647-1.108-0.895-1.732l-0.024-0.068c0.001 0.020 0.001 0.044 0.001 0.068 0 0.565-0.253 1.070-0.652 1.409l-0.003 0.002c-3.574 3.034-5.848 7.505-5.923 12.508l-0 0.013c-0.001 0.062-0.001 0.135-0.001 0.208 0 4.957 2.385 9.357 6.070 12.115l0.039 0.028 0.087 0.063q0.241 1.784 0.412 3.576h0.601c0.166-1.491 0.39-2.796 0.683-4.076l-0.046 0.239c0.396-0.275 0.742-0.56 1.065-0.869l-0.003 0.003c2.801-2.597 4.549-6.297 4.549-10.404 0-0.061-0-0.121-0.001-0.182l0 0.009c-0.003-0.981-0.092-1.94-0.261-2.871l0.015 0.099z">
    </path>
  </symbol>

<symbol xmlns="http://www.w3.org/2000/svg" viewBox="0 0 50 50" id="github">
    <path
      d="M17.791,46.836C18.502,46.53,19,45.823,19,45v-5.4c0-0.197,0.016-0.402,0.041-0.61C19.027,38.994,19.014,38.997,19,39 c0,0-3,0-3.6,0c-1.5,0-2.8-0.6-3.4-1.8c-0.7-1.3-1-3.5-2.8-4.7C8.9,32.3,9.1,32,9.7,32c0.6,0.1,1.9,0.9,2.7,2c0.9,1.1,1.8,2,3.4,2 c2.487,0,3.82-0.125,4.622-0.555C21.356,34.056,22.649,33,24,33v-0.025c-5.668-0.182-9.289-2.066-10.975-4.975 c-3.665,0.042-6.856,0.405-8.677,0.707c-0.058-0.327-0.108-0.656-0.151-0.987c1.797-0.296,4.843-0.647,8.345-0.714 c-0.112-0.276-0.209-0.559-0.291-0.849c-3.511-0.178-6.541-0.039-8.187,0.097c-0.02-0.332-0.047-0.663-0.051-0.999 c1.649-0.135,4.597-0.27,8.018-0.111c-0.079-0.5-0.13-1.011-0.13-1.543c0-1.7,0.6-3.5,1.7-5c-0.5-1.7-1.2-5.3,0.2-6.6 c2.7,0,4.6,1.3,5.5,2.1C21,13.4,22.9,13,25,13s4,0.4,5.6,1.1c0.9-0.8,2.8-2.1,5.5-2.1c1.5,1.4,0.7,5,0.2,6.6c1.1,1.5,1.7,3.2,1.6,5 c0,0.484-0.045,0.951-0.11,1.409c3.499-0.172,6.527-0.034,8.204,0.102c-0.002,0.337-0.033,0.666-0.051,0.999 c-1.671-0.138-4.775-0.28-8.359-0.089c-0.089,0.336-0.197,0.663-0.325,0.98c3.546,0.046,6.665,0.389,8.548,0.689 c-0.043,0.332-0.093,0.661-0.151,0.987c-1.912-0.306-5.171-0.664-8.879-0.682C35.112,30.873,31.557,32.75,26,32.969V33 c2.6,0,5,3.9,5,6.6V45c0,0.823,0.498,1.53,1.209,1.836C41.37,43.804,48,35.164,48,25C48,12.318,37.683,2,25,2S2,12.318,2,25 C2,35.164,8.63,43.804,17.791,46.836z"
      fill="#404152">
    </path>
</symbol>

  <symbol fill="5e3bee" version="1.1" xmlns="http://www.w3.org/2000/svg" viewBox="0 0 1024 1024" id="chevron-right">
    <path d="M426.666667 256l-60.373334 60.373333L561.92 512l-195.626667 195.626667L426.666667 768l256-256z" ></path>
  </symbol>

  <symbol version="1.1" xmlns="http://www.w3.org/2000/svg" viewBox="0 0 1024 1024" id="chevron-left">
    <path d="M657.706667 316.373333L597.333333 256 341.333333 512l256 256 60.373334-60.373333L462.08 512z"></path>
  </symbol>


  <symbol fill="none" xmlns="http://www.w3.org/2000/svg" viewBox="0 0 44.343 46" id="jira">
    <path d="M 22.15625 0 A 1.0001 1.0001 0 0 0 21.464844 0.29296875 L 21.445312 0.3125 L 0.87890625 20.878906 C -0.28429206 22.042104 -0.28429206 23.957896 0.87890625 25.121094 L 21.464844 45.707031 A 1.0001 1.0001 0 0 0 22.878906 45.707031 L 22.898438 45.6875 L 43.464844 25.121094 C 44.628041 23.957896 44.628041 22.042104 43.464844 20.878906 L 22.878906 0.29296875 A 1.0001 1.0001 0 0 0 22.15625 0 z M 22.234375 2.4765625 L 42.050781 22.292969 C 42.449681 22.691868 42.449681 23.308132 42.050781 23.707031 L 25.933594 39.824219 C 26.052442 39.242277 26.138227 38.651984 26.169922 38.052734 A 1.0001 1.0001 0 0 0 26.169922 37.947266 C 26.036349 35.421796 25.108902 33.01145 23.537109 31.050781 L 30.878906 23.707031 A 1.0001 1.0001 0 0 0 30.878906 22.292969 L 22.898438 14.3125 C 21.275291 12.594247 20.319287 10.358489 20.181641 8 C 20.299146 5.9866151 21.018169 4.0654641 22.234375 2.4765625 z M 18.410156 6.1757812 C 18.291308 6.7577229 18.205523 7.3480156 18.173828 7.9472656 A 1.0001 1.0001 0 0 0 18.173828 8.0527344 C 18.307423 10.578631 19.236316 12.988371 20.808594 14.949219 L 13.464844 22.292969 A 1.0001 1.0001 0 0 0 13.464844 23.707031 L 21.464844 31.708984 C 23.075846 33.424403 24.02503 35.651211 24.162109 38 C 24.044604 40.013385 23.325581 41.934536 22.109375 43.523438 L 2.2929688 23.707031 C 1.8940686 23.308131 1.8940686 22.691869 2.2929688 22.292969 L 18.410156 6.1757812 z M 22.171875 16.414062 L 28.757812 23 L 22.171875 29.585938 L 15.585938 23 L 22.171875 16.414062 z" fill="#817d8f"></path>
  </symbol>


   <symbol xmlns="http://www.w3.org/2000/svg" version="1.1" xmlns:xlink="http://www.w3.org/1999/xlink" viewBox="0 0 32px 32px" id="netlify">
    <g>
      <path fill="#817d8f" d="M 13.5,-0.5 C 14.8333,-0.5 16.1667,-0.5 17.5,-0.5C 17.8333,0.166667 18.1667,0.833333 18.5,1.5C 16.901,1.23219 15.5676,1.56552 14.5,2.5C 13.7101,3.79423 12.7101,4.9609 11.5,6C 12.4158,6.27842 13.0825,6.77842 13.5,7.5C 12.8333,7.83333 12.1667,8.16667 11.5,8.5C 10.5,8.5 9.5,8.5 8.5,8.5C 8.57735,7.25025 9.24402,6.41691 10.5,6C 9.94404,5.61742 9.61071,5.11742 9.5,4.5C 10.8333,2.83333 12.1667,1.16667 13.5,-0.5 Z"></path>
    </g>
    <g>
      <path fill="#817d8f" d="M 14.5,2.5 C 15.5676,1.56552 16.901,1.23219 18.5,1.5C 20.1667,2.5 21.5,3.83333 22.5,5.5C 21.8333,5.83333 21.1667,6.16667 20.5,6.5C 19.8333,6.16667 19.1667,5.83333 18.5,5.5C 17.5,5.5 16.5,5.5 15.5,5.5C 17.129,3.80407 16.7957,2.80407 14.5,2.5 Z"></path>
    </g>
    <g>
      <path fill="#817d8f" d="M 9.5,4.5 C 9.61071,5.11742 9.94404,5.61742 10.5,6C 9.24402,6.41691 8.57735,7.25025 8.5,8.5C 8.16667,9.5 7.5,10.1667 6.5,10.5C 5.83333,10.5 5.16667,10.5 4.5,10.5C 4.16667,10.5 3.83333,10.5 3.5,10.5C 5.16667,8.16667 7.16667,6.16667 9.5,4.5 Z"></path>
    </g>
    <g>
      <path fill="#817d8f" d="M 22.5,5.5 C 23.5,5.83333 24.1667,6.5 24.5,7.5C 23.791,8.40397 22.791,8.73731 21.5,8.5C 21.5,9.5 21.5,10.5 21.5,11.5C 20.1667,11.5 18.8333,11.5 17.5,11.5C 16.8333,11.5 16.5,11.1667 16.5,10.5C 16.8333,9.83333 17.1667,9.16667 17.5,8.5C 19.5983,9.9143 20.5983,9.24764 20.5,6.5C 21.1667,6.16667 21.8333,5.83333 22.5,5.5 Z"></path>
    </g>
    <g>
      <path fill="#817d8f" d="M 15.5,5.5 C 16.5,5.5 17.5,5.5 18.5,5.5C 18.0472,6.45837 17.3805,7.2917 16.5,8C 16.7284,8.39877 17.0618,8.56544 17.5,8.5C 17.1667,9.16667 16.8333,9.83333 16.5,10.5C 15.8333,10.5 15.1667,10.5 14.5,10.5C 13.8333,10.5 13.1667,10.5 12.5,10.5C 12.1667,9.83333 11.8333,9.16667 11.5,8.5C 12.1667,8.16667 12.8333,7.83333 13.5,7.5C 14.1667,6.83333 14.8333,6.16667 15.5,5.5 Z"></path>
    </g>
    <g>
      <path fill="#817d8f" d="M 3.5,10.5 C 3.83333,10.5 4.16667,10.5 4.5,10.5C 4.44312,11.609 4.10978,12.609 3.5,13.5C 3.5,13.8333 3.5,14.1667 3.5,14.5C 2.16667,14.5 0.833333,14.5 -0.5,14.5C -0.5,14.1667 -0.5,13.8333 -0.5,13.5C 0.833333,12.5 2.16667,11.5 3.5,10.5 Z"></path>
    </g>
    <g>
      <path fill="#817d8f" d="M 24.5,7.5 C 26.1667,8.5 27.5,9.83333 28.5,11.5C 28.5,12.8333 28.5,14.1667 28.5,15.5C 26.5588,15.1307 24.7255,14.464 23,13.5C 22.2086,14.745 21.7086,16.0783 21.5,17.5C 20.8333,17.5 20.1667,17.5 19.5,17.5C 19.5,16.5 19.5,15.5 19.5,14.5C 19.9382,14.5654 20.2716,14.3988 20.5,14C 19.4734,13.4867 18.4734,12.9867 17.5,12.5C 17.5,12.1667 17.5,11.8333 17.5,11.5C 18.8333,11.5 20.1667,11.5 21.5,11.5C 21.5,10.5 21.5,9.5 21.5,8.5C 22.791,8.73731 23.791,8.40397 24.5,7.5 Z"></path>
    </g>
    <g>
      <path fill="#817d8f" d="M 17.5,12.5 C 18.4734,12.9867 19.4734,13.4867 20.5,14C 20.2716,14.3988 19.9382,14.5654 19.5,14.5C 17.0763,15.0305 14.743,15.8638 12.5,17C 14.3817,17.1981 16.0484,17.6981 17.5,18.5C 17.8333,19.1667 18.1667,19.8333 18.5,20.5C 16.9397,20.4809 15.4397,20.1476 14,19.5C 12.3167,20.1765 12.1501,21.1765 13.5,22.5C 13.7373,23.791 13.404,24.791 12.5,25.5C 12.5,24.8333 12.1667,24.5 11.5,24.5C 11.5,23.8333 11.1667,23.5 10.5,23.5C 10.3404,21.847 9.67373,20.5137 8.5,19.5C 7.16667,19.5 5.83333,19.5 4.5,19.5C 4.5,18.1667 5.16667,17.5 6.5,17.5C 9.24903,18.4886 11.249,17.4886 12.5,14.5C 13.1667,14.5 13.5,14.1667 13.5,13.5C 14.8333,13.1667 16.1667,12.8333 17.5,12.5 Z"></path>
    </g>
    <g>
      <path fill="#817d8f" d="M 12.5,10.5 C 13.1667,10.5 13.8333,10.5 14.5,10.5C 14.4431,11.609 14.1098,12.609 13.5,13.5C 12.8333,13.5 12.5,13.8333 12.5,14.5C 11.249,17.4886 9.24903,18.4886 6.5,17.5C 6.5,17.1667 6.5,16.8333 6.5,16.5C 7.5,16.1667 8.16667,15.5 8.5,14.5C 9.83333,13.1667 11.1667,11.8333 12.5,10.5 Z"></path>
    </g>
    <g>
      <path fill="#817d8f" d="M 4.5,10.5 C 5.16667,10.5 5.83333,10.5 6.5,10.5C 7.16667,11.8333 7.83333,13.1667 8.5,14.5C 8.16667,15.5 7.5,16.1667 6.5,16.5C 4.16667,17.8333 1.83333,17.8333 -0.5,16.5C -0.5,15.8333 -0.5,15.1667 -0.5,14.5C 0.833333,14.5 2.16667,14.5 3.5,14.5C 4.07683,15.7733 4.7435,15.7733 5.5,14.5C 5.04311,13.7025 4.37644,13.3691 3.5,13.5C 4.10978,12.609 4.44312,11.609 4.5,10.5 Z"></path>
    </g>
    <g>
      <path fill="#817d8f" d="M 28.5,11.5 C 29.5,12.1667 30.5,12.8333 31.5,13.5C 31.5,14.8333 31.5,16.1667 31.5,17.5C 30.8333,17.8333 30.1667,18.1667 29.5,18.5C 29.6716,17.5084 29.3382,16.8417 28.5,16.5C 28.5,16.1667 28.5,15.8333 28.5,15.5C 28.5,14.1667 28.5,12.8333 28.5,11.5 Z"></path>
    </g>
    <g>
      <path fill="#817d8f" d="M -0.5,17.5 C -0.5,17.1667 -0.5,16.8333 -0.5,16.5C 1.83333,17.8333 4.16667,17.8333 6.5,16.5C 6.5,16.8333 6.5,17.1667 6.5,17.5C 5.16667,17.5 4.5,18.1667 4.5,19.5C 3.83333,19.5 3.16667,19.5 2.5,19.5C 1.5,18.8333 0.5,18.1667 -0.5,17.5 Z"></path>
    </g>
    <g>
      <path fill="#817d8f" d="M 19.5,17.5 C 20.1667,17.5 20.8333,17.5 21.5,17.5C 21.8333,18.1667 22.1667,18.8333 22.5,19.5C 22.0825,20.2216 21.4158,20.7216 20.5,21C 20.7284,21.3988 21.0618,21.5654 21.5,21.5C 21.5,21.8333 21.5,22.1667 21.5,22.5C 21.1667,22.5 20.8333,22.5 20.5,22.5C 19.8333,22.1667 19.1667,21.8333 18.5,21.5C 18.5,21.1667 18.5,20.8333 18.5,20.5C 18.1667,19.8333 17.8333,19.1667 17.5,18.5C 18.4916,18.6716 19.1583,18.3382 19.5,17.5 Z"></path>
    </g>
    <g>
      <path fill="#817d8f" d="M 28.5,16.5 C 29.3382,16.8417 29.6716,17.5084 29.5,18.5C 28.8333,19.8333 27.8333,20.8333 26.5,21.5C 24.9731,21.573 23.9731,20.9063 23.5,19.5C 25.4113,18.925 27.078,17.925 28.5,16.5 Z"></path>
    </g>
    <g>
      <path fill="#817d8f" d="M 22.5,19.5 C 22.8333,19.5 23.1667,19.5 23.5,19.5C 23.9731,20.9063 24.9731,21.573 26.5,21.5C 25.8333,22.8333 24.8333,23.8333 23.5,24.5C 23.6716,23.5084 23.3382,22.8417 22.5,22.5C 22.5,21.8333 22.1667,21.5 21.5,21.5C 21.0618,21.5654 20.7284,21.3988 20.5,21C 21.4158,20.7216 22.0825,20.2216 22.5,19.5 Z"></path>
    </g>
    <g>
      <path fill="#817d8f" d="M 2.5,19.5 C 3.16667,19.5 3.83333,19.5 4.5,19.5C 5.83333,19.5 7.16667,19.5 8.5,19.5C 8.22911,21.3797 8.89578,22.713 10.5,23.5C 10.5,23.8333 10.5,24.1667 10.5,24.5C 10.1667,25.1667 9.83333,25.8333 9.5,26.5C 6.83333,24.5 4.5,22.1667 2.5,19.5 Z"></path>
    </g>
    <g>
      <path fill="#817d8f" d="M 18.5,21.5 C 19.1667,21.8333 19.8333,22.1667 20.5,22.5C 20.8333,23.8333 21.1667,23.8333 21.5,22.5C 21.8333,22.5 22.1667,22.5 22.5,22.5C 23.3382,22.8417 23.6716,23.5084 23.5,24.5C 22.8333,25.8333 21.8333,26.8333 20.5,27.5C 19.5,27.5 18.5,27.5 17.5,27.5C 18.1495,25.5648 18.4828,23.5648 18.5,21.5 Z"></path>
    </g>
    <g>
      <path fill="#817d8f" d="M 13.5,22.5 C 14.3382,22.8417 14.6716,23.5084 14.5,24.5C 14.67,25.8221 14.3366,26.9887 13.5,28C 14,28.5 14.5,29 15,29.5C 16.3561,28.6198 17.8561,28.2865 19.5,28.5C 18.8333,29.5 18.1667,30.5 17.5,31.5C 16.1667,31.5 14.8333,31.5 13.5,31.5C 12.1667,29.8333 10.8333,28.1667 9.5,26.5C 9.83333,25.8333 10.1667,25.1667 10.5,24.5C 10.8333,24.5 11.1667,24.5 11.5,24.5C 12.1667,24.5 12.5,24.8333 12.5,25.5C 13.404,24.791 13.7373,23.791 13.5,22.5 Z"></path>
    </g>
    <g>
      <path fill="#817d8f" d="M 14.5,24.5 C 15.2719,25.6935 16.2719,26.6935 17.5,27.5C 18.5,27.5 19.5,27.5 20.5,27.5C 20.5,28.1667 20.1667,28.5 19.5,28.5C 17.8561,28.2865 16.3561,28.6198 15,29.5C 14.5,29 14,28.5 13.5,28C 14.3366,26.9887 14.67,25.8221 14.5,24.5 Z"></path>
    </g>
  </symbol>

   <symbol fill="#5e3bee" xmlns="http://www.w3.org/2000/svg" viewBox="0 0 50 50" id="prisma">
    <path d="M44.674,37.568L27.405,1.49c-0.89-1.859-3.473-2.012-4.575-0.271L3.679,31.461c-0.413,0.652-0.401,1.486,0.03,2.126	l9.647,14.323c0.599,0.889,1.7,1.29,2.729,0.994l26.994-7.775C44.596,40.692,45.357,38.994,44.674,37.568z M40.86,38.865	l-22.703,6.369c-0.526,0.148-1.02-0.318-0.906-0.853L25.3,6.749c0.145-0.678,1.064-0.788,1.364-0.163l14.843,30.881	C41.766,38.033,41.459,38.697,40.86,38.865z"></path>
  </symbol>

   <symbol fill="none" xmlns="http://www.w3.org/2000/svg" viewBox="0 0 16 16" id="npm">
    <path fill-rule="nonzero" clip-rule="nonzero"
      d="M1 2.88462C1 1.84377 1.84377 1 2.88462 1H13.1154C14.1562 1 15 1.84377 15 2.88462V13.1154C15 14.1562 14.1562 15 13.1154 15H2.88462C1.84377 15 1 14.1562 1 13.1154V2.88462ZM2.88462 2.61538C2.73592 2.61538 2.61538 2.73592 2.61538 2.88462V13.1154C2.61538 13.2641 2.73592 13.3846 2.88462 13.3846H8.53846V6.38462C8.53846 5.93854 8.90008 5.57692 9.34615 5.57692C9.79223 5.57692 10.1538 5.93854 10.1538 6.38462V13.3846H13.1154C13.2641 13.3846 13.3846 13.2641 13.3846 13.1154V2.88462C13.3846 2.73592 13.2641 2.61538 13.1154 2.61538H2.88462Z"
      fill="#817d8f"></path>
  </symbol>

  <symbol fill="none" xmlns="http://www.w3.org/2000/svg" viewBox="0 0 16 16" id="react">
    <path fill-rule="nonzero" clip-rule="nonzero"
      d="M4.84989 2.37195C4.59895 2.51683 4.33488 2.91636 4.30424 3.78785C4.28968 4.20181 3.9423 4.52559 3.52835 4.51103C3.11439 4.49647 2.79061 4.1491 2.80516 3.73514C2.84273 2.66673 3.1806 1.60366 4.09989 1.07291C5.02179 0.540653 6.11484 0.782356 7.06128 1.28727C7.42674 1.48224 7.56495 1.93656 7.36998 2.30201C7.17501 2.66747 6.72069 2.80568 6.35524 2.61072C5.5818 2.1981 5.10158 2.22663 4.84989 2.37195ZM8.87139 3.67284C9.19036 3.40858 9.66315 3.45293 9.92741 3.7719C10.4818 4.44103 11.0136 5.20405 11.4963 6.04018C12.5366 7.84191 13.178 9.68785 13.3509 11.2362C13.4372 12.0091 13.4108 12.7446 13.2303 13.3754C13.0484 14.011 12.6941 14.5863 12.0999 14.9293C11.381 15.3444 10.5509 15.2855 9.79114 15.0089C9.02868 14.7313 8.24395 14.2056 7.49586 13.5228C7.18993 13.2435 7.16831 12.7691 7.44756 12.4632C7.72681 12.1573 8.20119 12.1356 8.50712 12.4149C9.16624 13.0165 9.78567 13.4105 10.3043 13.5994C10.8257 13.7892 11.1537 13.7436 11.3499 13.6303C11.5143 13.5354 11.6797 13.342 11.7882 12.9627C11.8981 12.5787 11.9328 12.0529 11.8602 11.4026C11.7152 10.1045 11.1591 8.45607 10.1973 6.79018C9.75492 6.02396 9.27081 5.33055 8.77232 4.72886C8.50807 4.40989 8.55242 3.93709 8.87139 3.67284Z"
      fill="#817d8f"></path>
    <path fill-rule="nonzero" clip-rule="nonzero"
      d="M14.5 8.20557C14.5 7.91581 14.286 7.48735 13.5466 7.02507C13.1954 6.80549 13.0887 6.34276 13.3083 5.99154C13.5279 5.64032 13.9906 5.53361 14.3418 5.75319C15.2483 6.31993 16 7.14407 16 8.20557C16 9.27009 15.2442 10.0958 14.3337 10.663C13.9821 10.882 13.5195 10.7746 13.3005 10.423C13.0815 10.0714 13.189 9.60887 13.5405 9.38985C14.2846 8.92635 14.5 8.4962 14.5 8.20557ZM11.3626 11.0378C11.432 11.4462 11.1572 11.8335 10.7488 11.9029C9.89219 12.0484 8.96547 12.1274 8 12.1274C5.91954 12.1274 4.00018 11.76 2.57286 11.1355C1.86032 10.8238 1.23659 10.4332 0.780529 9.9615C0.320977 9.48616 0 8.89166 0 8.20557C0 7.37549 0.466082 6.68599 1.08548 6.16636C1.70712 5.64485 2.55471 5.22808 3.52013 4.92164C3.91494 4.79633 4.33657 5.01479 4.46189 5.40959C4.5872 5.80439 4.36874 6.22603 3.97394 6.35135C3.12334 6.62134 2.4724 6.96078 2.04954 7.31553C1.62442 7.67217 1.5 7.97899 1.5 8.20557C1.5 8.39536 1.58476 8.6353 1.85895 8.91891C2.13663 9.20613 2.57464 9.49905 3.17409 9.76131C4.37076 10.2848 6.07639 10.6274 8 10.6274C8.88475 10.6274 9.72732 10.5549 10.4976 10.424C10.906 10.3547 11.2933 10.6295 11.3626 11.0378Z"
      fill="#817d8f"></path>
    <path fill-rule="nonzero" clip-rule="nonzero"
      d="M4.87192 13.6303C5.12286 13.7752 5.6009 13.8041 6.37095 13.3949C6.73673 13.2005 7.19082 13.3395 7.38519 13.7052C7.57957 14.071 7.44062 14.5251 7.07484 14.7195C6.13079 15.2211 5.04121 15.4601 4.12192 14.9293C3.20003 14.3971 2.86282 13.3296 2.82687 12.2575C2.81299 11.8435 3.13733 11.4967 3.55131 11.4828C3.96529 11.4689 4.31215 11.7932 4.32603 12.2072C4.35541 13.0834 4.62023 13.485 4.87192 13.6303ZM3.98778 9.49712C3.59944 9.35301 3.40145 8.92138 3.54556 8.53304C3.84786 7.71839 4.24274 6.8763 4.72548 6.04018C5.76571 4.23845 7.04361 2.75996 8.29806 1.83609C8.92431 1.37487 9.57441 1.02999 10.211 0.870901C10.8524 0.71059 11.5278 0.729863 12.1219 1.07291C12.8408 1.48795 13.2049 2.23634 13.3452 3.03257C13.486 3.83168 13.4232 4.77409 13.2058 5.7634C13.1169 6.16796 12.7169 6.42388 12.3124 6.33501C11.9078 6.24613 11.6519 5.84612 11.7408 5.44155C11.9322 4.56992 11.9637 3.83647 11.868 3.29288C11.7717 2.7464 11.5681 2.48524 11.3719 2.37195C11.2076 2.27705 10.9574 2.23049 10.5747 2.32614C10.1871 2.42301 9.71442 2.65588 9.18757 3.04388C8.13584 3.81846 6.98632 5.12428 6.02452 6.79018C5.58214 7.55639 5.22369 8.32235 4.95185 9.0549C4.80774 9.44323 4.37611 9.64122 3.98778 9.49712Z"
      fill="#817d8f"></path>
    <path
      d="M9.45925 8.06618C9.45925 8.81694 8.85063 9.42556 8.09987 9.42556C7.34911 9.42556 6.7405 8.81694 6.7405 8.06618C6.7405 7.31542 7.34911 6.70681 8.09987 6.70681C8.85063 6.70681 9.45925 7.31542 9.45925 8.06618Z"
      fill="#817d8f"></path>
  </symbol>


   <symbol fill="none" xmlns="http://www.w3.org/2000/svg" viewBox="0 0 32 32" id="yarn">
    <path d="M 16 3 C 8.8 3 3 8.8 3 16 C 3 23.2 8.8 29 16 29 C 23.2 29 29 23.2 29 16 C 29 8.8 23.2 3 16 3 z M 16 5 C 22.1 5 27 9.9 27 16 C 27 22.1 22.1 27 16 27 C 9.9 27 5 22.1 5 16 C 5 9.9 9.9 5 16 5 z M 16.208984 9.0449219 C 15.75918 9.1214844 15.300781 10.5 15.300781 10.5 C 15.300781 10.5 14.099609 10.300781 13.099609 11.300781 C 12.899609 11.500781 12.700391 11.599219 12.400391 11.699219 C 12.300391 11.799219 12.2 11.800391 12 12.400391 C 11.6 13.300391 12.599609 14.400391 12.599609 14.400391 C 10.499609 15.900391 10.599219 17.900391 10.699219 18.400391 C 9.3992187 19.500391 9.8992187 20.900781 10.199219 21.300781 C 10.399219 21.600781 10.599219 21.5 10.699219 21.5 C 10.699219 21.6 10.199219 22.200391 10.699219 22.400391 C 11.199219 22.700391 12.000391 22.800391 12.400391 22.400391 C 12.700391 22.100391 12.800391 21.499219 12.900391 21.199219 C 13.000391 21.099219 13.000391 21.399609 13.400391 21.599609 C 13.400391 21.599609 12.7 21.899609 13 22.599609 C 13.1 22.799609 13.4 23 14 23 C 14.2 23 16.599219 22.899219 17.199219 22.699219 C 17.599219 22.599219 17.699219 22.400391 17.699219 22.400391 C 20.299219 21.700391 20.799609 20.599219 22.599609 20.199219 C 23.199609 20.099219 23.199609 19.099219 22.099609 19.199219 C 21.299609 19.199219 20.6 19.6 20 20 C 19 20.6 18.300781 20.699609 18.300781 20.599609 C 18.200781 20.499609 18.699219 19.3 18.199219 18 C 17.699219 16.6 16.800391 16.199609 16.900391 16.099609 C 17.200391 15.599609 17.899219 14.800391 18.199219 13.400391 C 18.299219 12.500391 18.300391 11.000781 17.900391 10.300781 C 17.800391 10.100781 17.199219 10.5 17.199219 10.5 C 17.199219 10.5 16.600391 9.1996094 16.400391 9.0996094 C 16.337891 9.0496094 16.273242 9.0339844 16.208984 9.0449219 z" fill="#817d8f"></path>
  </symbol>

  <symbol fill="none" xmlns="http://www.w3.org/2000/svg" viewBox="0 0 50 50" id="express-js">
    <path d="M49.729 11h-.85c-1.051 0-2.041.49-2.68 1.324l-8.7 11.377-8.7-11.377C28.162 11.49 27.171 11 26.121 11h-.85l10.971 14.346L25.036 40h.85c1.051 0 2.041-.49 2.679-1.324L37.5 26.992l8.935 11.684C47.073 39.51 48.063 40 49.114 40h.85L38.758 25.346 49.729 11zM21.289 34.242c-2.554 3.881-7.582 5.87-12.389 4.116C4.671 36.815 2 32.611 2 28.109L2 27h12v0h11l0-4.134c0-6.505-4.818-12.2-11.295-12.809C6.273 9.358 0 15.21 0 22.5l0 5.573c0 5.371 3.215 10.364 8.269 12.183 6.603 2.376 13.548-1.17 15.896-7.256 0 0 0 0 0 0h-.638C22.616 33 21.789 33.481 21.289 34.242zM2 22.5C2 16.71 6.71 12 12.5 12S23 16.71 23 22.5V25H2V22.5z" fill="#817d8f"></path>
  </symbol>


<symbol fill="none" xmlns="http://www.w3.org/2000/svg" viewBox="0 0 32 32" id="styled-components">
    <path d="m21.617 9.016-.097.523c-.157.984-.098 1.27.324 1.637l.41.336-.426 1.89c-.254 1.13-.562 2.075-.762 2.387-.168.266-.363.66-.406.875-.07.25-.312.508-.68.73-.324.184-.96.68-1.41 1.075-.36.324-.61.523-.742.61l-.441.347c-.14.226-.219.41-.25.547-.032.144-.016.238.031.308a.37.37 0 0 0 .223.14c.125.032.25.04.379.032.285-.02.566-.07.84-.148l.23-.07c.101-.122.328-.352.73-.75 1.075-1.06 1.485-1.637 1.059-1.481-.152.055-.082-.086.183-.367.567-.551.891-1.383 1.567-3.992.535-2.06.535-2.09.933-2.09.184 0 .708.03.708.03v-2.57Zm5.121 4.218c-.086 0-.226.13-.312.27-.153.254.027.41 2.355 1.863 1.383.875 2.5 1.621 2.473 1.68-.031.043-1.16.777-2.512 1.621-2.457 1.523-2.469 1.539-2.246 1.848.285.367 0 .496 3.188-1.496L32 17.54v-1.114l-2.582-1.594c-1.398-.875-2.61-1.582-2.68-1.598Zm-21.449.157c-.07 0-1.281.722-2.68 1.582L0 16.566v1.114l2.598 1.625c1.437.886 2.652 1.62 2.707 1.62.058 0 .172-.128.285-.28.168-.27.023-.383-2.36-1.891C.96 17.328.72 17.129.945 16.977c.145-.098 1.215-.762 2.371-1.48 2.641-1.626 2.5-1.513 2.286-1.852-.082-.141-.227-.266-.309-.254Zm11.582.03c-.39 0-1.226.59-3.734 2.638-.11.257-.117.437-.07.55a.35.35 0 0 0 .171.172.774.774 0 0 0 .301.074c.227.02.496-.015.715-.058l.144-.031a.52.52 0 0 1 .196-.16c.152-.086.8-.676 1.453-1.313 1.14-1.156 1.41-1.68.945-1.848a.333.333 0 0 0-.12-.023Zm2.926.806c-.344.007-.961.406-2.016 1.25-.531.43-.867.664-1.047.71l-.699.551c-.262.48-.3.778-.234.942a.327.327 0 0 0 .187.18c.102.038.207.062.32.062.262-.004.52-.043.77-.113.133-.036.262-.079.39-.125l.04-.016.07-.04c.133-.171.438-.495.824-.866 1.211-1.172 1.832-2.004 1.707-2.313-.058-.152-.156-.226-.312-.222Zm-3.23 1.441c-.102.008-.32.18-.72.531-.577.508-1.202.801-1.421.672-.051.008-.102.02-.153.031a2.891 2.891 0 0 1-.742.059 1.031 1.031 0 0 1-.34-.082.482.482 0 0 1-.222-.227c-.047-.12-.047-.27.008-.46l-.868.71-1.96 1.621v2.633l6.425-5.062c0-.055.008-.11.024-.164.047-.18.047-.27-.032-.262Zm2.765.852c-.098 0-.262.136-.52.414-.355.375-.91.742-1.207.816l-.043.023c-.05.02-.097.04-.148.055a6.484 6.484 0 0 1-.305.094c-.238.062-.539.125-.804.117a.921.921 0 0 1-.367-.074.459.459 0 0 1-.247-.238c-.074-.184-.043-.446.125-.817l-5.668 4.469v1.605h2.489l5.285-4.148c.137-.152.344-.36.621-.621.746-.692.914-.93.914-1.285 0-.274-.027-.414-.125-.414Zm1.258 2.597-.453.453a3.943 3.943 0 0 1-1.016.66l-.062.028-.004.008-.012.011c-.012.012-.02.012-.027.016-.125.047-.25.09-.375.125a4.076 4.076 0 0 1-.868.152 1.474 1.474 0 0 1-.414-.035.49.49 0 0 1-.289-.191c-.066-.102-.082-.23-.047-.395.028-.117.07-.226.125-.332l-4.261 3.367h5.668l.68-.777c.93-1.086 1.355-1.86 1.355-2.523Zm0 0" fill="#817d8f"></path>
</symbol>

<symbol fill="none" xmlns="http://www.w3.org/2000/svg" viewBox="0 0 32 32" id="google-cloud">
    <path d="M30.668 19.668c0 4.598-3.734 8.332-8.336 8.332H9.668c-4.602 0-8.336-3.734-8.336-8.332a8.327 8.327 0 0 1 3.613-6.867C6.105 7.76 10.613 4 16 4s9.895 3.762 11.055 8.8a8.297 8.297 0 0 1 3.613 6.868m-8.496 3c1.75 0 3.16-1.414 3.16-3.16a3.164 3.164 0 0 0-3.039-3.176l.039-.664a6.34 6.34 0 0 0-11.094-4.188c2 .387 3.735 1.48 4.95 3L12.668 18c-.563-.973-1.613-1.668-2.828-1.668a3.163 3.163 0 0 0-3.172 3.176 3.173 3.173 0 0 0 3 3.16Zm0 0" fill="#817d8f"></path>
</symbol>

<symbol fill="none" xmlns="http://www.w3.org/2000/svg" viewBox="0 0 32 32" id="material-ui">
    <path d="M0 3.3v13.852l4 2.313v-9.238l8 4.62 8-4.62v4.62l-8 4.618v4.617l8 4.617 12-6.926v-9.238l-4 2.313v4.617l-8 4.617-4-2.309 8-4.62V3.3l-12 6.926Zm32 0-4 2.305v4.622l4-2.309V3.297Zm0 0" fill="#817d8f"></path>
</symbol>

<symbol xmlns="http://www.w3.org/2000/svg" version="1.1" xmlns:xlink="http://www.w3.org/1999/xlink" viewBox="0 0 60px 60px" id="frontend">
    <g>
      <path fill="#000000" d="M 7.5,8.5 C 22.1705,8.33342 36.8371,8.50009 51.5,9C 52,9.5 52.5,10 53,10.5C 53.4999,23.8292 53.6666,37.1625 53.5,50.5C 37.5,50.5 21.5,50.5 5.5,50.5C 5.33344,37.1625 5.5001,23.8292 6,10.5C 6.71719,9.9558 7.21719,9.28913 7.5,8.5 Z M 8.5,11.5 C 22.504,11.3334 36.504,11.5001 50.5,12C 51.731,13.1827 51.731,14.3493 50.5,15.5C 36.5,15.5 22.5,15.5 8.5,15.5C 7.37437,14.1916 7.37437,12.8583 8.5,11.5 Z M 7.5,16.5 C 21.8685,16.7981 36.2019,16.7981 50.5,16.5C 51.4986,26.8119 51.8319,37.1452 51.5,47.5C 36.8333,47.5 22.1667,47.5 7.5,47.5C 7.5,37.1667 7.5,26.8333 7.5,16.5 Z"></path>
    </g>
    <g>
      <path fill="#000000" d="M 31.5,22.5 C 32.552,22.3505 33.552,22.5172 34.5,23C 31.7043,30.0865 28.5376,36.9199 25,43.5C 24.5,43.1667 24,42.8333 23.5,42.5C 26.3702,35.8842 29.0368,29.2175 31.5,22.5 Z"></path>
    </g>
    <g>
      <path fill="#000000" d="M 19.5,26.5 C 20.7562,26.4614 21.7562,26.9614 22.5,28C 20.981,29.3513 19.6477,30.8513 18.5,32.5C 19.6477,34.1487 20.981,35.6487 22.5,37C 21.9747,37.6924 21.3081,38.1924 20.5,38.5C 18.1667,36.8333 16.1667,34.8333 14.5,32.5C 16.1897,30.4807 17.8564,28.4807 19.5,26.5 Z"></path>
    </g>
    <g>
      <path fill="#000000" d="M 37.5,26.5 C 40.4073,27.7341 42.7407,29.7341 44.5,32.5C 42.8333,34.8333 40.8333,36.8333 38.5,38.5C 37.6919,38.1924 37.0253,37.6924 36.5,37C 38.019,35.6487 39.3523,34.1487 40.5,32.5C 39.3523,30.8513 38.019,29.3513 36.5,28C 37.056,27.6174 37.3893,27.1174 37.5,26.5 Z"></path>
    </g>
</symbol>

<symbol xmlns="http://www.w3.org/2000/svg" version="1.1" xmlns:xlink="http://www.w3.org/1999/xlink" viewBox="0 0 50px 50px" id="development">
    <g>
      <path fill="#5d3aee" d="M 35.5,-0.5 C 37.5,-0.5 39.5,-0.5 41.5,-0.5C 41.3505,0.551975 41.5172,1.55198 42,2.5C 44.5734,-0.00477748 46.7401,0.495223 48.5,4C 45.7406,6.48365 46.074,7.65032 49.5,7.5C 49.5,9.5 49.5,11.5 49.5,13.5C 45.9007,13.2619 45.5673,14.2619 48.5,16.5C 47.8551,17.646 47.0217,18.646 46,19.5C 45.5006,24.8229 45.334,30.1563 45.5,35.5C 46.5,35.5 47.5,35.5 48.5,35.5C 48.822,37.7224 48.1554,39.5557 46.5,41C 31.8333,41.6667 17.1667,41.6667 2.5,41C 0.844644,39.5557 0.177978,37.7224 0.5,35.5C 1.5,35.5 2.5,35.5 3.5,35.5C 3.18215,26.2494 3.51549,17.0828 4.5,8C 11.856,7.16872 19.1893,7.33539 26.5,8.5C 20.1928,9.33059 13.8594,9.83059 7.5,10C 7,10.5 6.5,11 6,11.5C 5.33333,18.8333 5.33333,26.1667 6,33.5C 6.5,34 7,34.5 7.5,35C 18.8333,35.6667 30.1667,35.6667 41.5,35C 42,34.5 42.5,34 43,33.5C 43.226,29.1126 43.726,24.7793 44.5,20.5C 42.2619,17.5673 41.2619,17.9007 41.5,21.5C 39.5,21.5 37.5,21.5 35.5,21.5C 35.6503,18.074 34.4837,17.7406 32,20.5C 28.4952,18.7401 27.9952,16.5734 30.5,14C 29.552,13.5172 28.552,13.3505 27.5,13.5C 27.5,11.5 27.5,9.5 27.5,7.5C 28.552,7.64945 29.552,7.48278 30.5,7C 28.0167,4.20409 28.6834,2.03743 32.5,0.5C 34.7381,3.43268 35.7381,3.09935 35.5,-0.5 Z M 37.5,5.5 C 34.6699,7.36227 33.8366,10.0289 35,13.5C 41.3333,16.1667 43.6667,14.1667 42,7.5C 41.0053,6.93406 40.172,6.26739 39.5,5.5C 40.8333,5.5 42.1667,5.5 43.5,5.5C 44.8333,8.83333 44.8333,12.1667 43.5,15.5C 40.1667,16.8333 36.8333,16.8333 33.5,15.5C 32.3733,12.1427 32.3733,8.80939 33.5,5.5C 34.8333,5.5 36.1667,5.5 37.5,5.5 Z M 37.5,9.5 C 39.337,9.63945 39.6704,10.3061 38.5,11.5C 37.7025,11.0431 37.3691,10.3764 37.5,9.5 Z M 3.5,38.5 C 17.3272,37.3393 31.3272,37.1727 45.5,38C 38.6012,39.1314 31.6012,39.6314 24.5,39.5C 17.4538,39.4644 10.4538,39.131 3.5,38.5 Z"></path>
    </g>
    <g>
      <path fill="#5d3aed" d="M 37.5,5.5 C 38.1667,5.5 38.8333,5.5 39.5,5.5C 40.172,6.26739 41.0053,6.93406 42,7.5C 43.6667,14.1667 41.3333,16.1667 35,13.5C 33.8366,10.0289 34.6699,7.36227 37.5,5.5 Z M 37.5,9.5 C 37.3691,10.3764 37.7025,11.0431 38.5,11.5C 39.6704,10.3061 39.337,9.63945 37.5,9.5 Z"></path>
    </g>
</symbol>

<symbol xmlns="http://www.w3.org/2000/svg" version="1.1" xmlns:xlink="http://www.w3.org/1999/xlink" viewBox="0 0 50px 50px" id="design">
    <g>
      <path fill="#5c3aee" d="M 25.5,3.5 C 26.9717,5.13431 28.6383,6.63431 30.5,8C 27.5721,12.7098 24.9054,12.5432 22.5,7.5C 23.9095,6.43052 24.9095,5.09719 25.5,3.5 Z"></path>
    </g>
    <g>
      <path fill="#5d3aed" d="M 15.5,7.5 C 21.1004,8.94329 21.6004,11.2766 17,14.5C 15.5,13.6667 14.3333,12.5 13.5,11C 14.4295,9.9231 15.0962,8.75644 15.5,7.5 Z"></path>
    </g>
    <g>
      <path fill="#5d3aed" d="M 6.5,8.5 C 8.97747,8.05078 10.9775,8.71745 12.5,10.5C 10.604,11.4656 8.60395,11.7989 6.5,11.5C 6.5,18.5 6.5,25.5 6.5,32.5C 18.5,32.5 30.5,32.5 42.5,32.5C 42.5,25.5 42.5,18.5 42.5,11.5C 40.396,11.7989 38.396,11.4656 36.5,10.5C 37.1709,9.05421 38.3376,8.38754 40,8.5C 42.3052,8.48409 43.9718,9.48409 45,11.5C 45.6667,20.1667 45.6667,28.8333 45,37.5C 41.8028,42.5265 40.9695,41.8598 42.5,35.5C 37.1667,35.5 31.8333,35.5 26.5,35.5C 26.5,36.5 26.5,37.5 26.5,38.5C 25.1667,38.5 23.8333,38.5 22.5,38.5C 22.5,37.5 22.5,36.5 22.5,35.5C 17.1667,35.5 11.8333,35.5 6.5,35.5C 6.33003,36.8221 6.66337,37.9887 7.5,39C 18.5151,39.1676 29.5151,39.6676 40.5,40.5C 36.8776,41.3253 33.211,41.8253 29.5,42C 30.938,42.2189 32.2713,42.7189 33.5,43.5C 33.2907,44.086 32.9574,44.586 32.5,45C 27.1667,45.6667 21.8333,45.6667 16.5,45C 16.0426,44.586 15.7093,44.086 15.5,43.5C 16.7287,42.7189 18.062,42.2189 19.5,42C 14.8333,41.6667 10.1667,41.3333 5.5,41C 5,40.5 4.5,40 4,39.5C 3.33333,30.1667 3.33333,20.8333 4,11.5C 4.69794,10.3094 5.53128,9.30943 6.5,8.5 Z"></path>
    </g>
    <g>
      <path fill="#5e39ee" d="M 32.5,9.5 C 38.3559,11.6428 38.6892,14.3095 33.5,17.5C 32.6143,16.675 32.281,15.675 32.5,14.5C 28.5,13.8333 28.5,13.1667 32.5,12.5C 32.5,11.5 32.5,10.5 32.5,9.5 Z"></path>
    </g>
    <g>
      <path fill="#5d3aed" d="M 39.5,20.5 C 38.6043,19.4937 37.9377,19.4937 37.5,20.5C 31.4908,20.3338 25.4908,20.5005 19.5,21C 25.1569,21.4994 30.8236,21.6661 36.5,21.5C 30.1667,22.8333 23.8333,22.8333 17.5,21.5C 16.8333,20.1667 16.1667,20.1667 15.5,21.5C 14.596,22.209 14.2627,23.209 14.5,24.5C 10.0628,24.6946 8.39616,22.8612 9.5,19C 14.5,18.8333 19.5,18.6667 24.5,18.5C 29.8806,18.5058 34.8806,19.1725 39.5,20.5 Z"></path>
    </g>
    <g>
      <path fill="#5d3aee" d="M 39.5,20.5 C 40.2589,22.6657 39.2589,24.1657 36.5,25C 38.5268,26.3957 38.8602,28.0624 37.5,30C 28.4653,30.7481 19.4653,30.5815 10.5,29.5C 10.8087,26.6545 12.4754,25.1545 15.5,25C 15.2716,24.6012 14.9382,24.4346 14.5,24.5C 14.2627,23.209 14.596,22.209 15.5,21.5C 16.1667,21.5 16.8333,21.5 17.5,21.5C 23.8333,22.8333 30.1667,22.8333 36.5,21.5C 37.1667,21.5 37.5,21.1667 37.5,20.5C 37.9377,19.4937 38.6043,19.4937 39.5,20.5 Z"></path>
    </g>
</symbol>


 <symbol fill="none" xmlns="http://www.w3.org/2000/svg" xmlns:xlink="http://www.w3.org/1999/xlink" viewBox="0,0,256,256" id="postman">
    <g fill="#817d8f" fill-rule="nonzero" stroke="none" stroke-width="1" stroke-linecap="butt" stroke-linejoin="miter" stroke-miterlimit="10" stroke-dasharray="" stroke-dashoffset="0" font-family="none" font-weight="none" font-size="none" text-anchor="none">
      <g transform="scale(4,4)">
        <path d="M31.88086,3c-4.21938,0.01364 -8.50134,0.95286 -12.55078,2.91992c-6.914,3.359 -12.20966,9.3278 -14.72266,16.5918c-5.244,15.126 2.76753,31.63786 17.89453,36.88086c15.127,5.243 31.63881,-2.76853 36.88281,-17.89453c2.544,-7.27 2.06869,-15.25778 -1.32031,-22.17578c-5.02766,-10.34784 -15.40072,-16.35713 -26.18359,-16.32227zM31.5332,4.98633c3.08043,-0.05333 6.22252,0.42447 9.30273,1.49219c6.761,2.344 12.31545,7.27684 15.43945,13.71484c3.125,6.438 3.56175,13.85519 1.21875,20.61719c-4.881,14.08 -20.25103,21.5382 -34.33203,16.6582c-14.081,-4.88 -21.5382,-20.25103 -16.6582,-34.33203c3.8125,-11.00078 14.02775,-17.95993 25.0293,-18.15039zM31.63867,8.31836c-0.835,-0.012 -1.66995,0.02161 -2.50195,0.09961c-0.552,0.018 -0.98384,0.48025 -0.96484,1.03125c0.018,0.552 0.48025,0.98384 1.03125,0.96484c0.041,-0.001 0.084,-0.00472 0.125,-0.01172c0.752,-0.078 1.50672,-0.11628 2.26172,-0.11328c0.547,-0.076 0.92756,-0.58095 0.85156,-1.12695c-0.059,-0.424 -0.38173,-0.76375 -0.80273,-0.84375zM25.05273,9.24219c-0.12908,-0.01417 -0.26423,-0.00239 -0.39648,0.03711c-7.037,2.141 -12.63059,7.50817 -15.05859,14.45117c-0.196,0.516 0.06408,1.09306 0.58008,1.28906c0.516,0.196 1.09306,-0.06213 1.28906,-0.57812c0.007,-0.017 0.01258,-0.03473 0.01758,-0.05273l-0.03516,0.03516c2.215,-6.358 7.33825,-11.27647 13.78125,-13.23047c0.529,-0.158 0.82792,-0.71514 0.66992,-1.24414c-0.1185,-0.39675 -0.46042,-0.66452 -0.84766,-0.70703zM44.9375,14.75c-2.382,0 -4.31055,1.9305 -4.31055,4.3125c0,2.382 1.92955,4.31445 4.31055,4.31445c0.614,0 1.19561,-0.13323 1.72461,-0.36523l-3.16406,-3.26953c-0.066,-0.068 -0.10166,-0.16086 -0.09766,-0.25586c0.003,-0.095 0.04619,-0.18505 0.11719,-0.24805l4.01758,-3.59766c-0.724,-0.551 -1.61766,-0.89062 -2.59766,-0.89062zM48.0625,16.10547l-3.80859,3.41211l3.04492,3.14648c1.173,-0.771 1.94922,-2.09256 1.94922,-3.60156c0,-1.148 -0.45455,-2.18403 -1.18555,-2.95703zM47.98242,18.15234c0.13481,-0.00811 0.26753,0.06241 0.33203,0.19141c0.018,0.037 0.44505,0.9185 -0.12695,2.0625c-0.061,0.123 -0.1845,0.19336 -0.3125,0.19336c-0.052,0 -0.10625,-0.01211 -0.15625,-0.03711c-0.173,-0.086 -0.24325,-0.29475 -0.15625,-0.46875c0.409,-0.817 0.136,-1.41641 0.125,-1.44141c-0.082,-0.173 -0.00989,-0.38084 0.16211,-0.46484c0.043,-0.02075 0.08787,-0.03245 0.13281,-0.03516zM39.4082,21.6582c-0.643,0.02775 -1.3727,0.1838 -2.1582,0.4668c-3.125,1.125 -6.875,5.25 -6.875,5.25l-3.00781,3.48828l2.46875,2.42578l11.20898,-11.32617c-0.4375,-0.231 -0.99372,-0.33244 -1.63672,-0.30469zM41.60156,22.39648l-11.26758,11.38477l1.45508,1.43164l8.46094,-8.58203c0.025,-0.024 1.84977,-1.82483 1.75977,-3.42383c-0.083,-0.317 -0.2182,-0.59155 -0.4082,-0.81055zM41.77148,25.87695c-0.486,0.713 -0.9863,1.209 -1.0293,1.25l-8.45508,8.57422l1.12305,1.10547c0.114,-0.104 0.22389,-0.20064 0.33789,-0.30664c6.093,-5.65 7.37544,-8.06005 8.02344,-10.62305zM26.9082,31.39453l-2.7832,3.23047l5.10352,-0.94922zM29.7207,34.1582l-1.75781,1.82031l3.12109,-0.48047zM31.70508,36.11133l-4.54492,0.69922l-8.33203,8.62305l3.49609,3.4375l0.17578,0.00391l-0.875,-3.625c0,0 4.82058,-2.18961 11.26758,-7.97461zM51.74219,37.12109c-0.3832,0.06998 -0.70492,0.36138 -0.79492,0.76563c-0.113,0.507 0.17978,1.01687 0.67578,1.17188l1.92969,0.51563c0.539,0.12 1.07336,-0.21881 1.19336,-0.75781c0.113,-0.507 -0.18173,-1.01687 -0.67773,-1.17187l-1.92773,-0.51562c-0.13475,-0.03 -0.2707,-0.03114 -0.39844,-0.00781zM50.04297,41.82813c-0.38813,-0.03413 -0.7772,0.16209 -0.9707,0.52734c-0.246,0.464 -0.09053,1.03941 0.35547,1.31641l1.73047,0.99609c0.482,0.275 1.09609,0.107 1.37109,-0.375c0.275,-0.482 0.107,-1.09609 -0.375,-1.37109l-1.73047,-0.98047c-0.122,-0.06475 -0.25148,-0.10191 -0.38086,-0.11328zM46.83203,45.83203c-0.25563,0 -0.50958,0.09797 -0.70508,0.29297c-0.39,0.39 -0.39,1.02211 0,1.41211l1.41211,1.41406c0.39,0.39 1.02211,0.39 1.41211,0c0.39,-0.39 0.39,-1.02406 0,-1.41406l-1.41211,-1.41211c-0.195,-0.195 -0.45141,-0.29297 -0.70703,-0.29297zM18.3418,45.9375l-2.7168,2.8125l5.68359,0.10352zM42.66992,48.9375c-0.12847,0.01628 -0.25405,0.05795 -0.37305,0.12695c-0.475,0.278 -0.63733,0.88923 -0.36133,1.36523l0.99023,1.72266c0.259,0.488 0.86261,0.67306 1.34961,0.41406c0.488,-0.259 0.67306,-0.86261 0.41406,-1.34961c-0.011,-0.02 -0.0212,-0.04155 -0.0332,-0.06055l-0.99609,-1.73047c-0.2085,-0.357 -0.60483,-0.53713 -0.99023,-0.48828zM38.23633,50.88672c-0.12845,-0.0188 -0.26103,-0.01327 -0.39453,0.02148c-0.002,0.001 -0.00291,0 -0.00391,0c-0.533,0.142 -0.85198,0.69161 -0.70898,1.22461c0.001,0.002 0.00095,0.00286 0.00195,0.00586l0.51563,1.92969c0.165,0.527 0.72595,0.8193 1.25195,0.6543c0.496,-0.155 0.79073,-0.66292 0.67773,-1.16992l-0.51562,-1.92969c-0.10425,-0.4005 -0.43886,-0.67994 -0.82422,-0.73633z"></path>
      </g>
    </g>
</symbol>


<symbol fill="none" xmlns="http://www.w3.org/2000/svg" viewBox="0 0 24 24" id="eye">
    <path d="M3.27489 15.2957C2.42496 14.1915 2 13.6394 2 12C2 10.3606 2.42496 9.80853 3.27489 8.70433C4.97196 6.49956 7.81811 4 12 4C16.1819 4 19.028 6.49956 20.7251 8.70433C21.575 9.80853 22 10.3606 22 12C22 13.6394 21.575 14.1915 20.7251 15.2957C19.028 17.5004 16.1819 20 12 20C7.81811 20 4.97196 17.5004 3.27489 15.2957Z" stroke="#817d8f" stroke-width="1.5"></path>
    <path  d="M15 12C15 13.6569 13.6569 15 12 15C10.3431 15 9 13.6569 9 12C9 10.3431 10.3431 9 12 9C13.6569 9 15 10.3431 15 12Z" stroke="#817d8f" stroke-width="1.5"></path>
</symbol>

  <symbol version="1.1" id="github-outlined" xmlns="http://www.w3.org/2000/svg" xmlns:xlink="http://www.w3.org/1999/xlink" enable-background="new 0 0 100 100" xml:space="preserve" viewBox="0 0 100 100">
    <g>
      <path fill-rule="evenodd" clip-rule="evenodd" fill="#817d8f" d="M49.998,11.963C28.461,11.963,11,29.425,11,50.965
		c0,17.231,11.172,31.849,26.671,37.003c1.952,0.361,2.662-0.84,2.662-1.877c0-0.924-0.034-3.375-0.051-6.633
		c-10.849,2.359-13.138-5.229-13.138-5.229c-1.774-4.505-4.331-5.703-4.331-5.703c-3.541-2.418,0.269-2.371,0.269-2.371
		c3.914,0.277,5.974,4.018,5.974,4.018c3.478,5.96,9.129,4.235,11.35,3.243c0.353-2.525,1.363-4.24,2.476-5.217
		c-8.659-0.984-17.763-4.33-17.763-19.274c0-4.259,1.519-7.741,4.013-10.468c-0.399-0.982-1.74-4.947,0.383-10.319
		c0,0,3.274-1.048,10.726,4.001c3.109-0.869,6.446-1.303,9.763-1.316c3.312,0.014,6.65,0.447,9.763,1.316
		c7.447-5.049,10.716-4.001,10.716-4.001c2.128,5.372,0.788,9.337,0.388,10.319c2.5,2.727,4.008,6.209,4.008,10.468
		c0,14.979-9.117,18.279-17.805,19.241c1.398,1.205,2.646,3.59,2.646,7.229c0,5.211-0.047,9.416-0.047,10.695
		c0,1.045,0.701,2.26,2.681,1.873C77.836,82.798,89,68.191,89,50.965C89,29.425,71.539,11.963,49.998,11.963z"></path>
    </g>
  </symbol>

 
  <symbol xmlns="http://www.w3.org/2000/svg" xmlns:xlink="http://www.w3.org/1999/xlink" viewBox="0,0,256,256" id="twitterx">
    <g fill="#817d8f" fill-rule="nonzero" stroke="none" stroke-width="1" stroke-linecap="butt" stroke-linejoin="miter" stroke-miterlimit="10" stroke-dasharray="" stroke-dashoffset="0" font-family="none" font-weight="none" font-size="none" text-anchor="none">
      <g transform="scale(5.12,5.12)">
        <path d="M11,4c-3.866,0 -7,3.134 -7,7v28c0,3.866 3.134,7 7,7h28c3.866,0 7,-3.134 7,-7v-28c0,-3.866 -3.134,-7 -7,-7zM13.08594,13h7.9375l5.63672,8.00977l6.83984,-8.00977h2.5l-8.21094,9.61328l10.125,14.38672h-7.93555l-6.54102,-9.29297l-7.9375,9.29297h-2.5l9.30859,-10.89648zM16.91406,15l14.10742,20h3.06445l-14.10742,-20z"></path>
      </g>
    </g>
  </symbol>

  <symbol xmlns="http://www.w3.org/2000/svg" xmlns:xlink="http://www.w3.org/1999/xlink" viewBox="0,0,256,256" id="linkedin">
    <g fill="#817d8f" fill-rule="nonzero" stroke="none" stroke-width="1" stroke-linecap="butt" stroke-linejoin="miter" stroke-miterlimit="10" stroke-dasharray="" stroke-dashoffset="0" font-family="none" font-weight="none" font-size="none" text-anchor="none">
      <g transform="scale(5.12,5.12)">
        <path d="M41,4h-32c-2.76,0 -5,2.24 -5,5v32c0,2.76 2.24,5 5,5h32c2.76,0 5,-2.24 5,-5v-32c0,-2.76 -2.24,-5 -5,-5zM17,20v19h-6v-19zM11,14.47c0,-1.4 1.2,-2.47 3,-2.47c1.8,0 2.93,1.07 3,2.47c0,1.4 -1.12,2.53 -3,2.53c-1.8,0 -3,-1.13 -3,-2.53zM39,39h-6c0,0 0,-9.26 0,-10c0,-2 -1,-4 -3.5,-4.04h-0.08c-2.42,0 -3.42,2.06 -3.42,4.04c0,0.91 0,10 0,10h-6v-19h6v2.56c0,0 1.93,-2.56 5.81,-2.56c3.97,0 7.19,2.73 7.19,8.26z"></path>
      </g>
    </g>
  </symbol>

  <symbol version="1.1" xmlns="http://www.w3.org/2000/svg" viewBox="0 0 1024 1024" id="github-sq">
    <path d="M170.666667 85.333333h682.666666a85.333333 85.333333 0 0 1 85.333334 85.333334v682.666666a85.333333 85.333333 0 0 1-85.333334 85.333334h-219.733333c-14.933333-3.413333-14.933333-32.426667-14.933333-42.666667v-116.906667c0-39.68-14.08-65.706667-29.44-78.933333 95.146667-10.666667 194.986667-46.506667 194.986666-209.493333 0-47.36-16.213333-85.333333-43.946666-115.626667 4.266667-10.666667 19.2-55.04-4.266667-112.64 0 0-35.84-11.52-117.333333 43.52-33.706667-9.386667-70.4-14.08-106.666667-14.08-36.266667 0-72.96 4.693333-106.666667 14.08-81.493333-55.04-117.333333-43.52-117.333333-43.52-23.466667 57.6-8.533333 101.973333-4.266667 112.64-27.733333 30.293333-43.946667 68.266667-43.946666 115.626667 0 162.56 99.413333 199.253333 194.133333 209.92-11.946667 10.666667-23.04 29.44-26.88 57.173333-24.32 10.24-87.04 29.44-124.16-35.413333 0 0-22.613333-40.96-65.28-43.946667 0 0-41.813333-0.853333-4.266667 25.6 0 0 29.013333 13.226667 48.64 62.72 0 0 25.173333 82.773333 143.36 57.173333V896c0 10.24 0 39.253333-15.36 42.666667H170.666667a85.333333 85.333333 0 0 1-85.333334-85.333334V170.666667a85.333333 85.333333 0 0 1 85.333334-85.333334z" fill="#817d8f"></path>
  </symbol>


  <symbol xmlns="http://www.w3.org/2000/svg" xmlns:xlink="http://www.w3.org/1999/xlink" viewBox="0,0,256,256" id="facebook">
    <g fill="#817d8f" fill-rule="nonzero" stroke="none" stroke-width="1" stroke-linecap="butt" stroke-linejoin="miter" stroke-miterlimit="10" stroke-dasharray="" stroke-dashoffset="0" font-family="none" font-weight="none" font-size="none" text-anchor="none">
      <g transform="scale(5.12,5.12)">
        <path d="M41,4h-32c-2.76,0 -5,2.24 -5,5v32c0,2.76 2.24,5 5,5h32c2.76,0 5,-2.24 5,-5v-32c0,-2.76 -2.24,-5 -5,-5zM37,19h-2c-2.14,0 -3,0.5 -3,2v3h5l-1,5h-4v15h-5v-15h-4v-5h4v-3c0,-4 2,-7 6,-7c2.9,0 4,1 4,1z"></path>
      </g>
    </g>
  </symbol>

  <symbol xmlns="http://www.w3.org/2000/svg" width="32px" height="32px" viewBox="0 0 24 24" id="email">
   <path fill="none" d="M0 0h24v24H0V0z"></path><path d="M20 4H4c-1.1 0-1.99.9-1.99 2L2 18c0 1.1.9 2 2 2h16c1.1 0 2-.9 2-2V6c0-1.1-.9-2-2-2zm-.4 4.25l-7.07 4.42c-.32.2-.74.2-1.06 0L4.4 8.25c-.25-.16-.4-.43-.4-.72 0-.67.73-1.07 1.3-.72L12 11l6.7-4.19c.57-.35 1.3.05 1.3.72 0 .29-.15.56-.4.72z" fill="#5E3BEE"></path>
  </symbol>

  <symbol xmlns="http://www.w3.org/2000/svg"  viewBox="0 0 50 50" width="32px" height="32px" id="phone">
   <path d="M 14 3.9902344 C 8.4886661 3.9902344 4 8.4789008 4 13.990234 L 4 35.990234 C 4 41.501568 8.4886661 45.990234 14 45.990234 L 36 45.990234 C 41.511334 45.990234 46 41.501568 46 35.990234 L 46 13.990234 C 46 8.4789008 41.511334 3.9902344 36 3.9902344 L 14 3.9902344 z M 18.005859 12.033203 C 18.633859 12.060203 19.210594 12.414031 19.558594 12.957031 C 19.954594 13.575031 20.569141 14.534156 21.369141 15.785156 C 22.099141 16.926156 22.150047 18.399844 21.498047 19.589844 L 20.033203 21.673828 C 19.637203 22.237828 19.558219 22.959703 19.824219 23.595703 C 20.238219 24.585703 21.040797 26.107203 22.466797 27.533203 C 23.892797 28.959203 25.414297 29.761781 26.404297 30.175781 C 27.040297 30.441781 27.762172 30.362797 28.326172 29.966797 L 30.410156 28.501953 C 31.600156 27.849953 33.073844 27.901859 34.214844 28.630859 C 35.465844 29.430859 36.424969 30.045406 37.042969 30.441406 C 37.585969 30.789406 37.939797 31.366141 37.966797 31.994141 C 38.120797 35.558141 35.359641 37.001953 34.556641 37.001953 C 34.000641 37.001953 27.316344 37.761656 19.777344 30.222656 C 12.238344 22.683656 12.998047 15.999359 12.998047 15.443359 C 12.998047 14.640359 14.441859 11.879203 18.005859 12.033203 z" fill="#5E3BEE"/>
  </symbol>
</svg>