<svg width="200" height="200" viewBox="0 0 200 200" fill="none" xmlns="http://www.w3.org/2000/svg" id="logo">
<path d="M57.0663 146.182C53.1732 146.182 50 143.008 50 139.115V79.8793C50 66.1403 55.633 53.6411 64.6924 44.575C73.7584 35.509 86.2576 29.8827 99.9967 29.8827C113.736 29.8827 126.235 35.5156 135.301 44.575C144.367 53.6411 150 66.1403 150 79.8793C150 93.6184 144.367 106.118 135.301 115.184C128.122 122.363 118.929 127.276 108.956 129.083C103.297 130.103 97.4303 130.149 91.7573 129.203V170H91.4574C87.5709 170 84.3978 166.827 84.3978 162.934V79.8727C84.3978 74.2797 87.3376 69.3734 91.7573 66.6202V103.944C94.3838 104.844 97.1702 105.311 99.9967 105.311C114.036 105.311 125.435 93.9317 125.435 79.8727C125.435 65.8136 114.136 54.4344 99.9967 54.4344C85.8576 54.4344 74.5584 65.7603 74.5584 79.8727V158.087H74.2585C70.3654 158.087 67.1922 154.914 67.1922 151.021V79.8727C67.1922 70.8799 70.8986 62.6805 76.8449 56.7276C82.7978 50.7746 91.0039 47.0682 99.99 47.0682C108.976 47.0682 117.189 50.7746 123.135 56.7276C129.488 63.0805 132.788 71.2799 132.788 80.2393C132.475 98.7514 118.109 112.237 99.99 112.67C97.1435 112.67 94.3838 112.311 91.7506 111.624V121.703C97.4103 122.81 103.31 122.763 108.95 121.557C116.982 119.837 124.275 115.777 130.088 109.957C137.821 102.225 142.627 91.5652 142.627 79.866C142.627 68.1668 137.821 57.5008 130.088 49.768C122.355 42.0352 111.696 37.2289 99.99 37.2289C88.2841 37.2289 77.6315 42.0352 69.8921 49.768C62.1592 57.5008 57.3529 68.1601 57.3529 79.866V146.162H57.0529L57.0663 146.182Z" fill="#5E3BEE"/>
</svg>
